SplineFontDB: 3.2
FontName: ChromSerif-Bold
FullName: Chrom Serif Bold
FamilyName: Chrom Serif
Weight: Bold
Copyright:                                           
Version: 001.001
ItalicAngle: 0
UnderlinePosition: -100
UnderlineWidth: 50
Ascent: 800
Descent: 200
InvalidEm: 0
sfntRevision: 0x00000000
LayerCount: 2
Layer: 0 0 "Back" 1
Layer: 1 0 "Fore" 0
StyleMap: 0x0000
FSType: 0
OS2Version: 0
OS2_WeightWidthSlopeOnly: 0
OS2_UseTypoMetrics: 0
CreationTime: 0
ModificationTime: 1757284880
OS2TypoAscent: 0
OS2TypoAOffset: 0
OS2TypoDescent: 0
OS2TypoDOffset: 0
OS2TypoLinegap: 0
OS2WinAscent: 0
OS2WinAOffset: 0
OS2WinDescent: 0
OS2WinDOffset: 0
HheadAscent: 0
HheadAOffset: 0
HheadDescent: 0
HheadDOffset: 0
DEI: 91125
Encoding: AdobeStandard
UnicodeInterp: none
NameList: AGL For New Fonts
DisplaySize: -48
AntiAlias: 1
FitToEm: 0
BeginPrivate: 6
BlueValues 23 [-19 0 461 473 676 691]
OtherBlues 9 [268 275]
BlueScale 1 0
StdHW 4 [42]
StdVW 5 [137]
ForceBold 4 true
EndPrivate
BeginChars: 336 229

StartChar: exclam
Encoding: 33 33 1
Width: 333
Flags: HMW
HStem: -13 169<142 189.5> 671 20G<140 191.5>
VStem: 81 170<47.5 93.5 563.5 623>
LayerCount: 2
Fore
SplineSet
151 234 m 1
 142 322 132 382 121 426 c 0
 101 509 81 536 81 591 c 0
 81 655 114 691 166 691 c 0
 217 691 251 655 251 591 c 0
 251 536 231 510 211 428 c 0
 200 384 189 324 180 234 c 1
 151 234 l 1
81 71 m 0
 81 116 118 156 166 156 c 0
 213 156 251 117 251 71 c 0
 251 23 213 -13 166 -13 c 0
 118 -13 81 24 81 71 c 0
EndSplineSet
EndChar

StartChar: quotedbl
Encoding: 34 34 2
Width: 555
Flags: HMW
HStem: 404 21G<127 127 127 168 387 428 387 387> 671 20G<127 167 387 427>
VStem: 83 129<607.5 640.5> 343 129<619 640.5>
LayerCount: 2
Fore
SplineSet
387 404 m 1
 370 476 342 596 343 619 c 0
 343 662 367 691 407 691 c 0
 447 691 472 662 472 619 c 0
 472 596 445 476 428 404 c 1
 387 404 l 1
127 404 m 1
 110 476 83 596 83 619 c 0
 83 662 107 691 147 691 c 0
 187 691 212 662 212 619 c 0
 212 596 185 476 168 404 c 1
 127 404 l 1
EndSplineSet
EndChar

StartChar: numbersign
Encoding: 35 35 3
Width: 500
Flags: HMW
HStem: 0 21G<42 42 42 109 252 252 252 319> 210 65<5 90 4 104 5 157 171 298 381 466> 210 73 423 73 426 64<34 136 33 152 34 203 219 348 428 495> 680 20G<199 265 265 265 409 475 475 475>
LayerCount: 2
Fore
SplineSet
171 275 m 1
 314 275 l 1
 348 426 l 1
 203 426 l 1
 171 275 l 1
42 0 m 1
 90 210 l 1
 4 210 l 1
 5 275 l 1
 104 275 l 1
 136 426 l 1
 33 426 l 1
 34 490 l 1
 152 490 l 1
 199 700 l 1
 265 700 l 1
 219 490 l 1
 361 490 l 1
 409 700 l 1
 475 700 l 1
 428 490 l 1
 496 490 l 1
 495 426 l 1
 415 426 l 1
 381 275 l 1
 467 275 l 1
 466 210 l 1
 365 210 l 1
 319 0 l 1
 252 0 l 1
 298 210 l 1
 157 210 l 1
 109 0 l 1
 42 0 l 1
EndSplineSet
EndChar

StartChar: dollar
Encoding: 36 36 4
Width: 500
Flags: HMW
HStem: -99 21G<214 269 214 214> 730 20G<214 269 269 269>
VStem: 81 95 225 56 375 110
LayerCount: 2
Fore
SplineSet
213 454 m 1
 213 644 l 1
 172 635 124 615 124 553 c 0
 124 482 202 458 213 454 c 1
46 43 m 1
 46 199 l 1
 77 197 l 1
 113 69 158 40 213 30 c 1
 213 281 l 1
 142 316 29 375 29 496 c 0
 29 613 130 668 214 672 c 1
 214 750 l 1
 269 750 l 1
 269 674 l 1
 365 660 400 639 428 622 c 1
 428 481 l 1
 397 481 l 1
 386 520 365 625 269 641 c 1
 269 426 l 1
 377 371 472 321 472 199 c 0
 472 53 370 17 269 0 c 1
 269 -99 l 1
 214 -99 l 1
 214 0 l 1
 146 3 118 14 46 43 c 1
269 30 m 1
 296 35 362 47 362 140 c 0
 362 198 327 217 269 250 c 1
 269 30 l 1
EndSplineSet
EndChar

StartChar: percent
Encoding: 37 37 5
Width: 1000
Flags: HMW
HStem: -14 46 294 46 321 51 631 47 672 20G
VStem: 124 114 432 33 535 117 844 33
LayerCount: 2
Fore
SplineSet
238 -15 m 1
 698 677 l 1
 764 677 l 1
 304 -15 l 1
 238 -15 l 1
192 498 m 0
 192 448 192 348 234 348 c 0
 276 348 276 448 276 498 c 0
 276 548 276 648 234 648 c 0
 192 648 192 548 192 498 c 0
70 498 m 0
 70 591 133 676 234 676 c 0
 335 676 398 591 398 498 c 0
 398 405 335 320 234 320 c 0
 133 320 70 405 70 498 c 0
724 164 m 0
 724 114 724 14 766 14 c 0
 808 14 808 114 808 164 c 0
 808 214 808 314 766 314 c 0
 724 314 724 214 724 164 c 0
602 164 m 0
 602 257 665 342 766 342 c 0
 867 342 930 257 930 164 c 0
 930 71 867 -14 766 -14 c 0
 665 -14 602 71 602 164 c 0
EndSplineSet
EndChar

StartChar: ampersand
Encoding: 38 38 6
Width: 833
Flags: HMW
HStem: -16 77<205 377.5> -16 101<603 722.5> 658 33<363.5 404.5>
VStem: 62 139<226 227.5> 323 144<505.5 623> 467 101<529 559> 643 144
LayerCount: 2
Fore
SplineSet
397 452 m 1
 424 461 467 477 467 534 c 0
 467 584 433 658 376 658 c 0
 351 658 323 647 323 599 c 0
 323 548 373 481 397 452 c 1
452 100 m 1
 414 150 363 226 275 358 c 1
 222 328 201 304 201 260 c 0
 201 192 268 61 362 61 c 0
 393 61 425 80 452 100 c 1
475 72 m 1
 436 42 355 -16 253 -16 c 0
 157 -16 62 43 62 162 c 0
 62 293 192 356 258 388 c 1
 138 539 240 691 400 691 c 0
 526 691 568 624 568 570 c 0
 568 488 481 445 416 423 c 1
 567 209 l 1
 599 248 643 292 643 340 c 0
 643 377 629 379 577 385 c 1
 577 419 l 1
 787 419 l 1
 787 385 l 1
 742 381 727 372 710 345 c 0
 655 256 644 245 590 176 c 1
 632 122 663 85 710 85 c 0
 735 85 755 101 767 123 c 1
 787 111 l 1
 786 110 760 57 743 40 c 0
 705 2 671 -16 634 -16 c 0
 572 -16 513 25 475 72 c 1
EndSplineSet
EndChar

StartChar: quotesingle
Encoding: 169 39 7
Width: 278
Flags: HMW
HStem: 404 21G<119 119 119 160> 671 20G<119 159>
VStem: -47 129
LayerCount: 2
Fore
SplineSet
119 404 m 1
 102 476 75 588 75 611 c 0
 75 654 99 691 139 691 c 0
 179 691 204 654 204 611 c 0
 204 588 177 476 160 404 c 1
 119 404 l 1
EndSplineSet
EndChar

StartChar: parenleft
Encoding: 40 40 8
Width: 333
Flags: HMW
HStem: -168 21G<306 306> 674 20G<306 306>
VStem: 52 113
LayerCount: 2
Fore
SplineSet
306 -140 m 1
 306 -168 l 1
 74 -43 46 181 46 263 c 0
 46 555 251 669 306 694 c 1
 306 667 l 1
 223 611 159 568 159 263 c 0
 159 -9 209 -81 306 -140 c 1
EndSplineSet
EndChar

StartChar: parenright
Encoding: 41 41 9
Width: 333
Flags: HMW
HStem: -168 21G<27 27> 674 20G<27 27>
VStem: 174 113<128 315 128 410>
LayerCount: 2
Fore
SplineSet
27 -141 m 1
 110 -85 174 -31 174 274 c 0
 174 546 124 607 27 666 c 1
 27 694 l 1
 259 569 287 356 287 274 c 0
 287 -18 82 -143 27 -168 c 1
 27 -141 l 1
EndSplineSet
EndChar

StartChar: asterisk
Encoding: 42 42 10
Width: 500
Flags: HMW
HStem: 255 21G<236.5 261> 339 21G<90.5 125.5> 342 21G<388.5 411> 444 21G<105.5 128> 671 20G<236 261>
VStem: 201 99<293 307 291.5 329.5>
LayerCount: 2
Fore
SplineSet
241 449 m 1
 234 454 l 1
 211 439 196 424 184 410 c 0
 151 371 147 339 104 339 c 0
 77 339 55 365 56 391 c 0
 58 427 91 444 120 444 c 0
 136 444 152 444 165 446 c 0
 182 448 201 454 225 472 c 1
 226 479 l 1
 203 490 182 496 162 500 c 0
 137 504 115 505 97 508 c 0
 71 513 56 523 56 558 c 0
 56 595 87 606 100 606 c 0
 151 606 156 573 180 540 c 0
 192 524 206 507 234 494 c 1
 241 497 l 1
 241 533 236 555 227 572 c 0
 215 596 200 611 200 642 c 0
 200 672 224 691 248 691 c 0
 274 691 300 671 300 637 c 0
 300 608 286 594 275 573 c 0
 266 556 257 535 260 497 c 1
 268 494 l 1
 290 510 307 526 319 540 c 0
 351 579 356 609 396 609 c 0
 429 609 447 586 447 561 c 0
 447 540 434 518 406 508 c 0
 383 499 362 505 336 501 c 0
 320 498 301 492 278 476 c 1
 278 468 l 1
 296 458 315 453 333 449 c 0
 394 437 447 449 447 390 c 0
 447 357 424 342 398 342 c 0
 379 342 357 354 343 375 c 0
 328 396 319 410 311 420 c 0
 297 437 288 443 266 454 c 1
 259 449 l 1
 261 424 265 404 270 389 c 0
 283 349 299 336 300 307 c 0
 300 276 273 255 249 255 c 0
 224 255 201 276 201 310 c 0
 201 349 222 355 233 388 c 0
 238 402 241 421 241 449 c 1
EndSplineSet
EndChar

StartChar: plus
Encoding: 43 43 11
Width: 570
Flags: HMW
HStem: 0 21G<251 315 251 251> 224 59 486 20G<251 315 315 315>
VStem: 237 90 251 64<0 226 0 226 285 506>
LayerCount: 2
Fore
SplineSet
33 226 m 1
 33 285 l 1
 251 285 l 1
 251 506 l 1
 315 506 l 1
 315 285 l 1
 537 285 l 1
 537 226 l 1
 315 226 l 1
 315 0 l 1
 251 0 l 1
 251 226 l 1
 33 226 l 1
EndSplineSet
EndChar

StartChar: comma
Encoding: 44 44 12
Width: 250
Flags: HMW
HStem: -180 21G<55 55> 135 20G<98 157.5>
VStem: 39 184<41.5 67 -22 99> 155 68<-22 -12.5>
LayerCount: 2
Fore
SplineSet
43 -160 m 1
 71 -141 155 -82 155 -26 c 0
 155 1 133 -6 113 -6 c 0
 85 -6 39 10 39 73 c 0
 39 125 75 155 121 155 c 0
 194 155 223 93 223 41 c 0
 223 -85 108 -150 55 -180 c 1
 43 -160 l 1
EndSplineSet
EndChar

StartChar: hyphen
Encoding: 45 45 13
Width: 333
Flags: HMW
HStem: 171 116<44 287 44 287>
LayerCount: 2
Fore
SplineSet
44 171 m 1
 44 287 l 1
 287 287 l 1
 287 171 l 1
 44 171 l 1
EndSplineSet
EndChar

StartChar: period
Encoding: 46 46 14
Width: 250
Flags: HMW
HStem: -13 169<101 148.5>
VStem: 41 169<47.5 93.5>
LayerCount: 2
Fore
SplineSet
41 71 m 0
 41 116 77 156 125 156 c 0
 172 156 210 117 210 71 c 0
 210 23 172 -13 125 -13 c 0
 77 -13 41 24 41 71 c 0
EndSplineSet
EndChar

StartChar: slash
Encoding: 47 47 15
Width: 278
Flags: HMW
HStem: -19 21G<-7 -7 -7 65> 656 20G 671 20G<213 293 293 293>
LayerCount: 2
Fore
SplineSet
-7 -19 m 1
 213 691 l 1
 293 691 l 1
 65 -19 l 1
 -7 -19 l 1
EndSplineSet
EndChar

StartChar: zero
Encoding: 48 48 16
Width: 500
Flags: HMW
HStem: -13 28<224 286 224 320> 660 28<215.5 273>
VStem: 24 158<231.5 451> 318 158<242 451 451 452 242 526.5>
LayerCount: 2
Fore
SplineSet
24 332 m 0
 24 584 148 688 249 688 c 0
 354 688 476 572 476 332 c 0
 476 152 390 -13 250 -13 c 0
 122 -13 24 131 24 332 c 0
182 222 m 2
 182 79 198 15 250 15 c 0
 322 15 318 143 318 222 c 2
 318 451 l 2
 318 602 297 660 249 660 c 0
 182 660 182 534 182 451 c 2
 182 222 l 2
EndSplineSet
EndChar

StartChar: one
Encoding: 49 49 17
Width: 500
Flags: HMW
HStem: 0 34<65 123 65 123 392.5 442> 668 20G<317 334 334 334>
VStem: 186 148<134 509 509 521.5>
LayerCount: 2
Fore
SplineSet
65 0 m 1
 65 34 l 1
 181 34 186 72 186 134 c 2
 186 509 l 2
 186 534 186 578 147 578 c 0
 133 578 99 566 65 553 c 1
 65 579 l 1
 317 688 l 1
 334 688 l 1
 334 128 l 2
 334 61 343 34 442 34 c 1
 442 0 l 1
 65 0 l 1
EndSplineSet
EndChar

StartChar: two
Encoding: 50 50 18
Width: 500
Flags: HMW
HStem: 0 133<160 301 301 354 160 433> 484 21G<31 59 31 31> 574 114<180.5 232.5>
VStem: 300 136<387 577>
LayerCount: 2
Fore
SplineSet
17 0 m 1
 17 23 l 1
 179 196 300 328 300 446 c 0
 300 474 284 574 181 574 c 0
 158 574 96 568 59 484 c 1
 31 484 l 1
 51 541 110 688 251 688 c 0
 313 688 436 653 436 501 c 0
 436 472 436 396 160 133 c 1
 301 133 l 2
 407 133 416 143 444 211 c 1
 478 211 l 1
 433 0 l 1
 17 0 l 1
EndSplineSet
EndChar

StartChar: three
Encoding: 51 51 19
Width: 500
Flags: HMW
HStem: -14 50<239 257> -14 148<62 257> 607 81<202 213.5>
VStem: 354 114<178 221.5>
LayerCount: 2
Fore
SplineSet
153 356 m 1
 153 373 l 1
 201 388 283 413 283 504 c 0
 283 563 250 607 177 607 c 0
 108 607 73 547 58 523 c 1
 37 535 l 1
 66 598 143 688 261 688 c 0
 357 688 429 646 429 553 c 0
 429 476 390 451 346 424 c 1
 425 395 468 323 468 248 c 0
 468 108 347 -14 167 -14 c 0
 87 -14 16 15 16 78 c 0
 16 111 46 134 78 134 c 0
 121 134 150 108 176 83 c 0
 201 59 224 36 254 36 c 0
 302 36 354 65 354 155 c 0
 354 288 229 330 153 356 c 1
EndSplineSet
EndChar

StartChar: four
Encoding: 52 52 20
Width: 500
Flags: HMW
HStem: 0 21G<267 412 267 267> 144 111<19 269 60 267 412 475> 549 21G<267 269 267 267> 668 20G<322 412 412 412>
VStem: 269 143<255 549 549 549>
LayerCount: 2
Fore
SplineSet
60 255 m 1
 269 255 l 1
 269 549 l 1
 267 549 l 1
 60 255 l 1
19 144 m 1
 19 257 l 1
 108 399 232 566 322 688 c 1
 412 688 l 1
 412 255 l 1
 475 255 l 1
 475 144 l 1
 412 144 l 1
 412 0 l 1
 267 0 l 1
 267 144 l 1
 19 144 l 1
EndSplineSet
EndChar

StartChar: five
Encoding: 53 53 21
Width: 500
Flags: HMW
HStem: -8 61<126.5 290> -8 148<62.5 256> 331 137<51 127> 549 127
VStem: 373 78<167.5 187.5>
LayerCount: 2
Fore
SplineSet
51 331 m 1
 148 686 l 1
 470 686 l 1
 427 559 l 1
 149 559 l 1
 127 468 l 1
 218 463 280 457 347 419 c 0
 392 394 451 331 451 233 c 0
 451 102 347 -8 165 -8 c 0
 88 -8 22 23 22 80 c 0
 22 108 41 140 84 140 c 0
 119 140 151 117 182 95 c 0
 212 74 242 53 273 53 c 0
 307 53 373 75 373 157 c 0
 373 218 319 268 266 291 c 0
 199 321 123 326 51 331 c 1
EndSplineSet
EndChar

StartChar: six
Encoding: 54 54 22
Width: 500
Flags: HMW
HStem: -13 27<231 292.5 231 347> 376 45<270 272.5> 668 20G<470 470>
VStem: 28 157<174.5 289.5 174.5 375> 323 152<184 228>
LayerCount: 2
Fore
SplineSet
194 363 m 0
 193 362 185 306 185 273 c 0
 185 76 200 14 262 14 c 0
 323 14 323 77 323 156 c 0
 323 300 307 376 238 376 c 0
 222 376 205 375 194 363 c 0
470 662 m 1
 370 642 248 588 204 404 c 1
 228 414 246 421 294 421 c 0
 363 421 475 383 475 211 c 0
 475 157 437 -13 257 -13 c 0
 167 -13 28 44 28 284 c 0
 28 466 170 658 470 688 c 1
 470 662 l 1
EndSplineSet
EndChar

StartChar: seven
Encoding: 55 55 23
Width: 500
Flags: HMW
HStem: 0 21G<147 147 147 242> 454 21G<17 52 17 17> 539 137<137 150 150 337>
LayerCount: 2
Fore
SplineSet
147 0 m 1
 337 539 l 1
 150 539 l 2
 124 539 74 539 52 454 c 1
 17 454 l 1
 61 676 l 1
 477 676 l 1
 242 0 l 1
 147 0 l 1
EndSplineSet
EndChar

StartChar: eight
Encoding: 56 56 24
Width: 500
Flags: HMW
HStem: -13 32<204.5 281.5 204.5 308.5> 659 29<229.5 291>
VStem: 28 121<121 193.5 121 209.5> 39 129<531.5 556.5> 333 139<127.5 177> 339 119<507 562.5>
LayerCount: 2
Fore
SplineSet
200 306 m 1
 170 261 149 230 149 157 c 0
 149 85 172 19 237 19 c 0
 326 19 333 110 333 136 c 0
 333 218 268 261 200 306 c 1
178 324 m 1
 103 366 39 427 39 510 c 0
 39 603 94 688 254 688 c 0
 406 688 458 594 458 537 c 0
 458 452 377 422 322 404 c 1
 408 353 472 283 472 190 c 0
 472 65 380 -13 237 -13 c 0
 129 -13 28 45 28 155 c 0
 28 264 111 303 178 324 c 1
298 422 m 1
 321 453 339 477 339 537 c 0
 339 588 328 659 254 659 c 0
 205 659 168 619 168 578 c 0
 168 485 288 427 298 422 c 1
EndSplineSet
EndChar

StartChar: nine
Encoding: 57 57 25
Width: 500
Flags: HMW
HStem: -13 21G<31 31> 254 45<172.5 271> 661 27<213.5 275>
VStem: 26 152<447 491> 316 157<379.5 489.5>
LayerCount: 2
Fore
SplineSet
307 312 m 0
 310 328 316 368 316 391 c 0
 316 588 306 661 244 661 c 0
 183 661 178 598 178 519 c 0
 178 375 194 299 263 299 c 0
 279 299 306 304 307 312 c 0
31 -13 m 1
 31 13 l 1
 131 33 248 84 299 273 c 1
 268 257 242 254 207 254 c 0
 138 254 26 292 26 464 c 0
 26 518 64 688 244 688 c 0
 334 688 473 631 473 391 c 0
 473 209 331 17 31 -13 c 1
EndSplineSet
EndChar

StartChar: colon
Encoding: 58 58 26
Width: 333
Flags: HMW
HStem: -13 166<142 189.5> 308 164<142 189.5>
VStem: 82 169<47.5 93.5 369.5 415.5>
LayerCount: 2
Fore
SplineSet
82 393 m 0
 82 438 118 472 166 472 c 0
 213 472 251 439 251 393 c 0
 251 345 213 308 166 308 c 0
 118 308 82 346 82 393 c 0
82 71 m 0
 82 116 118 153 166 153 c 0
 213 153 251 117 251 71 c 0
 251 23 213 -13 166 -13 c 0
 118 -13 82 24 82 71 c 0
EndSplineSet
EndChar

StartChar: semicolon
Encoding: 59 59 27
Width: 333
Flags: HMW
HStem: -180 21G<100 100> 155 152<142 189.5 142 200.5> 307 165<142 189.5>
VStem: 82 169<368.5 414.5> 198 68<-22 -20.5>
LayerCount: 2
Fore
SplineSet
82 392 m 0
 82 437 118 472 166 472 c 0
 213 472 251 438 251 392 c 0
 251 344 213 307 166 307 c 0
 118 307 82 345 82 392 c 0
89 -158 m 1
 117 -139 198 -82 198 -26 c 0
 198 -15 192 -4 156 -6 c 0
 153 -6 82 -6 82 73 c 0
 82 125 118 155 164 155 c 0
 237 155 266 93 266 41 c 0
 266 -85 153 -150 100 -180 c 1
 89 -158 l 1
EndSplineSet
EndChar

StartChar: less
Encoding: 60 60 28
Width: 570
Flags: HMW
HStem: -8 21G<539 539> 494 20G<539 539>
LayerCount: 2
Fore
SplineSet
31 215 m 1
 31 291 l 1
 539 514 l 1
 539 441 l 1
 119 256 l 1
 539 65 l 1
 539 -8 l 1
 31 215 l 1
EndSplineSet
EndChar

StartChar: equal
Encoding: 61 61 29
Width: 570
Flags: HMW
HStem: 107 84 313 86 331 68<33 537 33 537>
LayerCount: 2
Fore
SplineSet
33 107 m 1
 33 172 l 1
 537 172 l 1
 537 107 l 1
 33 107 l 1
33 331 m 1
 33 399 l 1
 537 399 l 1
 537 331 l 1
 33 331 l 1
EndSplineSet
EndChar

StartChar: greater
Encoding: 62 62 30
Width: 570
Flags: HMW
HStem: -8 21G<31 31> 494 20G<31 31>
LayerCount: 2
Fore
SplineSet
31 -8 m 1
 31 67 l 1
 450 255 l 1
 31 438 l 1
 31 514 l 1
 539 291 l 1
 539 215 l 1
 31 -8 l 1
EndSplineSet
EndChar

StartChar: question
Encoding: 63 63 31
Width: 500
Flags: HMW
HStem: -13 169<215 262> 653 36<205.5 249>
VStem: 57 131<528.5 547 507 566.5> 154 169<47.5 93.5> 296 149<490 540>
LayerCount: 2
Fore
SplineSet
154 71 m 0
 154 116 191 156 239 156 c 0
 285 156 323 117 323 71 c 0
 323 23 285 -13 239 -13 c 0
 191 -13 154 24 154 71 c 0
223 231 m 1
 207 302 237 340 263 390 c 0
 280 423 296 461 296 519 c 0
 296 561 288 653 210 653 c 0
 201 653 151 650 151 613 c 0
 151 600 158 592 166 584 c 0
 176 573 188 561 188 533 c 0
 188 481 147 469 127 469 c 0
 76 469 57 511 57 546 c 0
 57 587 87 689 251 689 c 0
 282 689 445 678 445 519 c 0
 445 455 404 407 351 374 c 0
 268 323 253 318 253 231 c 1
 223 231 l 1
EndSplineSet
EndChar

StartChar: at
Encoding: 64 64 32
Width: 930
Flags: HMW
HStem: -30 46 143 37<625.5 686 625.5 692.5> 143 48 461 48 652 39<409 576>
VStem: 96 92 333 77 775 47<343 445.5>
LayerCount: 2
Fore
SplineSet
539 216 m 1
 537 216 l 1
 526 199 479 149 418 144 c 0
 389 143 319 168 319 280 c 0
 319 357 384 519 522 519 c 0
 570 519 581 492 595 466 c 1
 606 506 l 1
 677 506 l 1
 611 246 l 2
 608 229 604 180 647 180 c 0
 725 180 775 299 775 387 c 0
 775 504 668 652 484 652 c 0
 334 652 200 548 200 320 c 0
 200 172 321 27 494 27 c 0
 585 27 639 49 698 76 c 1
 711 41 l 1
 645 9 575 -19 495 -19 c 0
 226 -19 108 182 108 320 c 0
 108 542 281 691 484 691 c 0
 674 691 822 561 822 387 c 0
 822 282 754 143 631 143 c 0
 562 143 538 203 539 216 c 1
396 280 m 0
 396 220 424 191 458 191 c 0
 502 191 563 261 577 406 c 1
 577 449 563 471 533 471 c 0
 484 471 396 401 396 280 c 0
EndSplineSet
EndChar

StartChar: A
Encoding: 65 65 33
Width: 722
Flags: HMW
HStem: 0 35<9 9 9 212> 197 39<189 384 189 399 174 384> 670 20G<329 357 357 357>
VStem: 9 203<0 35 0 35> 174 15
LayerCount: 2
Fore
SplineSet
189 236 m 1
 384 236 l 1
 283 479 l 1
 189 236 l 1
9 0 m 1
 9 35 l 1
 63 43 66 48 78 78 c 2
 329 690 l 1
 357 690 l 1
 624 74 l 2
 637 43 641 33 689 35 c 1
 689 0 l 1
 365 0 l 1
 365 35 l 1
 427 40 445 41 445 74 c 0
 445 101 413 165 399 197 c 1
 174 197 l 1
 146 125 130 94 130 78 c 0
 130 40 178 37 212 35 c 1
 212 0 l 1
 9 0 l 1
EndSplineSet
EndChar

StartChar: B
Encoding: 66 66 34
Width: 667
Flags: HMW
HStem: 0 42<303 338> 343 30<264 331 264 294> 636 40<291.5 325 325 353 16 357.5>
VStem: 104 160<103 343 373 580> 420 165<465 551> 447 172<151.5 239 140 253.5>
LayerCount: 2
Fore
SplineSet
16 0 m 1
 16 35 l 1
 72 41 104 42 104 103 c 2
 104 580 l 2
 104 646 62 638 16 641 c 1
 16 676 l 1
 325 676 l 2
 381 676 585 672 585 516 c 0
 585 405 472 379 430 366 c 1
 430 364 l 1
 514 350 619 296 619 182 c 0
 619 98 549 0 338 0 c 2
 16 0 l 1
264 373 m 1
 398 373 420 414 420 516 c 0
 420 586 398 636 317 636 c 0
 266 636 265 603 264 580 c 2
 264 373 l 1
264 343 m 1
 264 103 l 2
 264 58 282 42 324 42 c 0
 434 42 447 121 447 182 c 0
 447 325 359 340 294 343 c 2
 264 343 l 1
EndSplineSet
EndChar

StartChar: C
Encoding: 67 67 35
Width: 722
Flags: HMW
HStem: -19 48<339 452 339 477> 454 21G<634 669 634 634> 658 33<340 443.5 308 470> 668 20G<632 669 669 669>
VStem: 49 177<269.5 416.5 269.5 433.5> 50 177 634 35<454 688>
LayerCount: 2
Fore
SplineSet
657 152 m 1
 687 127 l 1
 614 44 541 -19 413 -19 c 0
 180 -19 49 145 49 332 c 0
 49 535 203 691 413 691 c 0
 474 691 521 668 552 654 c 0
 567 647 578 642 586 642 c 0
 613 642 622 663 632 688 c 1
 669 688 l 1
 669 454 l 1
 634 454 l 1
 599 541 527 658 413 658 c 0
 267 658 226 501 226 332 c 0
 226 207 265 29 413 29 c 0
 491 29 574 59 657 152 c 1
EndSplineSet
EndChar

StartChar: D
Encoding: 68 68 36
Width: 722
Flags: HMW
HStem: 0 35<14 45.5 14 45.5 14 330> 0 45<292 330> 632 44<289 319 319 407>
VStem: 97 162<101 574> 516 174<256 393.5>
LayerCount: 2
Fore
SplineSet
259 101 m 2
 259 61 268 45 316 45 c 0
 428 45 516 109 516 348 c 0
 516 439 493 632 321 632 c 0
 257 632 258 596 259 574 c 2
 259 101 l 2
14 0 m 1
 14 35 l 1
 77 35 97 64 97 101 c 2
 97 574 l 2
 97 635 53 637 14 641 c 1
 14 676 l 1
 319 676 l 2
 599 676 690 502 690 348 c 0
 690 164 582 0 330 0 c 2
 14 0 l 1
EndSplineSet
EndChar

StartChar: E
Encoding: 69 69 37
Width: 667
Flags: HMW
HStem: 0 41<317.5 399 317.5 601> 329 34<266 314 266 315.5> 632 44<311.5 406.5>
VStem: 104 162<97 329 363 570> 428 26<174 512 174 512> 568 25<475 676>
LayerCount: 2
Fore
SplineSet
16 0 m 1
 16 35 l 1
 73 41 104 35 104 97 c 2
 104 570 l 2
 104 636 62 638 16 641 c 1
 16 676 l 1
 593 676 l 1
 593 475 l 1
 568 475 l 1
 545 617 474 632 339 632 c 0
 284 632 266 613 266 570 c 2
 266 363 l 1
 362 363 413 388 428 512 c 1
 454 512 l 1
 454 174 l 1
 428 174 l 1
 416 299 365 329 266 329 c 1
 266 97 l 2
 266 53 285 41 350 41 c 0
 448 41 550 57 613 208 c 1
 641 208 l 1
 601 0 l 1
 16 0 l 1
EndSplineSet
EndChar

StartChar: F
Encoding: 70 70 38
Width: 611
Flags: HMW
HStem: 0 35<16 16 16 376> 329 34<266 328 266 329> 475 21G<559 583 559 559> 512 21G<419 444 444 444> 632 44<311 424>
VStem: 104 162<96 329 363 580> 419 25<174 512 174 512> 559 24<475 676>
LayerCount: 2
Fore
SplineSet
16 0 m 1
 16 35 l 1
 73 41 104 34 104 96 c 2
 104 580 l 2
 104 646 63 638 16 641 c 1
 16 676 l 1
 583 676 l 1
 583 475 l 1
 559 475 l 1
 537 579 510 632 338 632 c 0
 284 632 266 623 266 580 c 2
 266 363 l 1
 390 363 405 432 419 512 c 1
 444 512 l 1
 444 174 l 1
 419 174 l 1
 408 256 392 329 266 329 c 1
 266 96 l 2
 266 30 306 38 376 35 c 1
 376 0 l 1
 16 0 l 1
EndSplineSet
EndChar

StartChar: G
Encoding: 71 71 39
Width: 778
Flags: HMW
HStem: -19 33<314.5 452.5> 252 35<412 755 412 755> 454 21G<622 657 622 622> 658 33<328.5 433.5 293 458> 668 20G<620 657 657 657>
VStem: 37 177<296.5 418 296.5 430.5> 513 156<87 170 43 202>
LayerCount: 2
Fore
SplineSet
412 252 m 1
 412 287 l 1
 755 287 l 1
 755 252 l 1
 693 245 669 252 669 170 c 2
 669 43 l 1
 621 9 496 -19 409 -19 c 0
 159 -19 37 158 37 332 c 0
 37 529 185 691 401 691 c 0
 466 691 514 665 545 651 c 0
 557 646 567 642 574 642 c 0
 601 642 610 663 620 688 c 1
 657 688 l 1
 657 454 l 1
 622 454 l 1
 587 541 515 658 401 658 c 0
 256 658 214 504 214 332 c 0
 214 261 220 14 409 14 c 0
 497 14 513 44 513 87 c 2
 513 170 l 2
 513 234 481 248 412 252 c 1
EndSplineSet
EndChar

StartChar: H
Encoding: 72 72 40
Width: 778
Flags: HMW
HStem: 0 21G<21 21 21 358 419 419 419 759> 326 47<268 509 268 509> 641 35<21 358 21 358>
VStem: 106 162<106 326 373 570> 509 162<106 326 326 326 373 570>
LayerCount: 2
Fore
SplineSet
21 0 m 1
 21 35 l 1
 74 42 106 47 106 106 c 2
 106 570 l 2
 106 635 63 637 21 641 c 1
 21 676 l 1
 358 676 l 1
 358 641 l 1
 314 638 268 636 268 570 c 2
 268 373 l 1
 509 373 l 1
 509 570 l 2
 509 636 463 638 419 641 c 1
 419 676 l 1
 759 676 l 1
 759 641 l 1
 716 638 671 635 671 570 c 2
 671 106 l 2
 671 46 706 42 759 35 c 1
 759 0 l 1
 419 0 l 1
 419 35 l 1
 472 41 509 45 509 106 c 2
 509 326 l 1
 268 326 l 1
 268 106 l 2
 268 45 305 41 358 35 c 1
 358 0 l 1
 21 0 l 1
EndSplineSet
EndChar

StartChar: I
Encoding: 73 73 41
Width: 389
Flags: HMW
HStem: 0 35<20 20 20 370> 641 35<20 370 20 370>
VStem: 113 162<106 570>
LayerCount: 2
Fore
SplineSet
20 0 m 1
 20 35 l 1
 74 40 113 44 113 106 c 2
 113 570 l 2
 113 636 66 638 20 641 c 1
 20 676 l 1
 370 676 l 1
 370 641 l 1
 323 639 275 638 275 570 c 2
 275 106 l 2
 275 42 315 39 370 35 c 1
 370 0 l 1
 20 0 l 1
EndSplineSet
EndChar

StartChar: J
Encoding: 74 74 42
Width: 500
Flags: HMW
HStem: -96 33 -19 33<149 195.5 149 214.5> 641 35<127 479 127 479>
VStem: -40 143 228 162<101 559>
LayerCount: 2
Fore
SplineSet
127 641 m 1
 127 676 l 1
 479 676 l 1
 479 641 l 1
 422 637 390 628 390 559 c 2
 390 101 l 2
 390 -4 266 -19 163 -19 c 0
 13 -19 3 91 3 108 c 0
 3 163 45 185 74 185 c 0
 96 185 146 165 146 110 c 0
 146 94 141 85 136 78 c 0
 128 68 119 61 119 45 c 0
 119 28 135 14 163 14 c 0
 228 14 228 70 228 101 c 2
 228 559 l 2
 228 627 184 639 127 641 c 1
EndSplineSet
EndChar

StartChar: K
Encoding: 75 75 43
Width: 778
Flags: HMW
HStem: 0 35<30 30 30 367> 641 35<30 368 30 368>
VStem: 117 162<106 292 345 559>
LayerCount: 2
Fore
SplineSet
30 0 m 1
 30 35 l 1
 85 41 117 45 117 106 c 2
 117 559 l 2
 117 625 76 638 30 641 c 1
 30 676 l 1
 368 676 l 1
 368 641 l 1
 313 637 279 645 279 559 c 2
 279 345 l 1
 496 553 l 2
 550 607 555 640 447 641 c 1
 447 676 l 1
 736 676 l 1
 736 641 l 1
 631 635 583 596 415 424 c 1
 720 56 l 2
 735 38 749 36 769 35 c 1
 769 0 l 1
 433 0 l 1
 433 35 l 1
 523 34 530 50 488 100 c 2
 306 317 l 1
 279 292 l 1
 279 106 l 2
 279 46 314 42 367 35 c 1
 367 0 l 1
 30 0 l 1
EndSplineSet
EndChar

StartChar: L
Encoding: 76 76 44
Width: 667
Flags: HMW
HStem: 0 41<322.5 431.5 322.5 597> 641 35<19 41.5 333 368>
VStem: 105 162<97 559>
LayerCount: 2
Fore
SplineSet
19 0 m 1
 19 35 l 1
 63 42 105 36 105 97 c 2
 105 559 l 2
 105 625 64 641 19 641 c 1
 19 676 l 1
 368 676 l 1
 368 641 l 1
 298 641 267 627 267 559 c 2
 267 97 l 2
 267 49 289 41 356 41 c 0
 507 41 563 114 609 227 c 1
 638 227 l 1
 597 0 l 1
 19 0 l 1
EndSplineSet
EndChar

StartChar: M
Encoding: 77 77 45
Width: 944
Flags: HMW
HStem: 0 35<14 14 14 248> 642 35
VStem: 39 131 105 42<115 570 570 579> 651 155
LayerCount: 2
Fore
SplineSet
14 0 m 1
 14 35 l 1
 92 42 105 57 105 115 c 2
 105 570 l 2
 105 622 87 636 16 641 c 1
 16 676 l 1
 269 676 l 1
 469 204 l 1
 669 676 l 1
 921 676 l 1
 921 641 l 1
 865 637 833 635 833 549 c 2
 833 110 l 2
 833 30 855 44 921 35 c 1
 921 0 l 1
 589 0 l 1
 589 35 l 1
 649 41 678 44 678 110 c 2
 678 594 l 1
 676 594 l 1
 426 0 l 1
 399 0 l 1
 149 579 l 1
 147 579 l 1
 147 115 l 2
 147 45 165 40 248 35 c 1
 248 0 l 1
 14 0 l 1
EndSplineSet
EndChar

StartChar: N
Encoding: 78 78 46
Width: 722
Flags: HMW
HStem: -18 21G<595 623 595 595> 0 21G<16 16 16 243> 524 21G<148 150 148 148> 641 35<486 486 701 701>
VStem: 104 44<115 524> 579 44<249 552 -18 582>
LayerCount: 2
Fore
SplineSet
16 0 m 1
 16 35 l 1
 76 42 104 49 104 115 c 2
 104 579 l 1
 48 648 32 651 19 651 c 1
 19 676 l 1
 230 676 l 1
 577 249 l 1
 579 249 l 1
 579 552 l 2
 579 612 567 635 486 641 c 1
 486 676 l 1
 701 676 l 1
 701 641 l 1
 629 632 623 600 623 552 c 2
 623 -18 l 1
 595 -18 l 1
 150 524 l 1
 148 524 l 1
 148 115 l 2
 148 43 169 43 243 35 c 1
 243 0 l 1
 16 0 l 1
EndSplineSet
EndChar

StartChar: O
Encoding: 79 79 47
Width: 778
Flags: HMW
HStem: -19 33<303.5 474.5 303.5 491.5> 658 33<319 459>
VStem: 35 177<292.5 409 292.5 445> 566 177<288.5 405>
LayerCount: 2
Fore
SplineSet
35 336 m 0
 35 554 196 691 389 691 c 0
 582 691 743 550 743 332 c 0
 743 122 594 -19 389 -19 c 0
 184 -19 35 126 35 336 c 0
212 336 m 0
 212 249 218 14 389 14 c 0
 560 14 566 245 566 332 c 0
 566 478 529 658 389 658 c 0
 249 658 212 482 212 336 c 0
EndSplineSet
EndChar

StartChar: P
Encoding: 80 80 48
Width: 611
Flags: HMW
HStem: 0 21G<16 16 16 350> 303 35<262 345> 631 45<293 338 338 351>
VStem: 100 162<117 303 338 590 590 596> 428 172<427 546>
LayerCount: 2
Fore
SplineSet
262 338 m 1
 383 336 428 365 428 489 c 0
 428 603 392 631 310 631 c 0
 276 631 263 618 262 596 c 2
 262 338 l 1
16 0 m 1
 16 35 l 1
 61 35 100 27 100 117 c 2
 100 590 l 2
 100 631 69 636 16 641 c 1
 16 676 l 1
 338 676 l 2
 418 676 600 658 600 489 c 0
 600 346 428 303 262 303 c 1
 262 117 l 2
 262 36 281 44 350 35 c 1
 350 0 l 1
 16 0 l 1
EndSplineSet
EndChar

StartChar: Q
Encoding: 81 81 49
Width: 778
Flags: HMW
HStem: -176 190<303.5 611> 658 33<319 459>
VStem: 35 177<289.5 406 289.5 448.5> 566 177<289.5 406>
LayerCount: 2
Fore
SplineSet
212 333 m 0
 212 246 218 14 389 14 c 0
 560 14 566 246 566 333 c 0
 566 479 529 658 389 658 c 0
 249 658 212 479 212 333 c 0
273 -2 m 1
 112 46 35 205 35 333 c 0
 35 564 196 691 389 691 c 0
 582 691 743 551 743 333 c 0
 743 159 641 33 490 -6 c 1
 544 -122 636 -147 730 -117 c 1
 736 -141 l 1
 698 -156 644 -176 578 -176 c 0
 492 -176 386 -141 273 -2 c 1
EndSplineSet
EndChar

StartChar: R
Encoding: 82 82 50
Width: 722
Flags: HMW
HStem: 0 21G<26 26 26 364 510 510 510 715> 632 44<310.5 348 348 378> 641 35<26 348>
VStem: 114 162<127 313 345 589 589 590> 459 171<436.5 548.5>
LayerCount: 2
Fore
SplineSet
26 0 m 1
 26 35 l 1
 94 43 114 46 114 127 c 2
 114 589 l 2
 114 632 83 637 26 641 c 1
 26 676 l 1
 348 676 l 2
 418 676 630 666 630 498 c 0
 630 375 527 346 473 329 c 1
 669 54 l 2
 683 36 703 35 715 35 c 1
 715 0 l 1
 510 0 l 1
 303 313 l 1
 276 313 l 1
 276 127 l 2
 276 47 298 44 364 35 c 1
 364 0 l 1
 26 0 l 1
276 345 m 1
 407 346 459 368 459 498 c 0
 459 599 418 632 338 632 c 0
 283 632 281 621 276 590 c 1
 276 345 l 1
EndSplineSet
EndChar

StartChar: S
Encoding: 83 83 51
Width: 556
Flags: HMW
HStem: -19 33<236.5 325 201.5 357> 660 31<234 274.5 165 319> 672 20G<444 484 484 484>
VStem: 44 109<471 597.5> 394 119<146 159.5>
LayerCount: 2
Fore
SplineSet
35 -19 m 1
 35 228 l 1
 74 228 l 1
 94 127 138 14 265 14 c 0
 385 14 394 113 394 126 c 0
 394 193 347 217 215 280 c 0
 44 362 44 448 44 494 c 0
 44 555 70 691 260 691 c 0
 289 691 318 682 345 673 c 0
 369 665 391 658 411 658 c 0
 434 658 439 673 444 692 c 1
 484 692 l 1
 484 475 l 1
 446 475 l 1
 428 545 378 660 260 660 c 0
 208 660 153 630 153 565 c 0
 153 511 172 489 403 374 c 0
 437 357 513 299 513 190 c 0
 513 102 449 -19 265 -19 c 0
 208 -19 173 -7 147 3 c 0
 129 10 117 15 104 15 c 0
 83 15 78 -3 74 -19 c 1
 35 -19 l 1
EndSplineSet
EndChar

StartChar: T
Encoding: 84 84 52
Width: 667
Flags: HMW
HStem: 0 35<156 156 156 513> 475 21G<31 60 31 31 607 607 607 636> 644 32<253 253 415 415>
VStem: 253 162<127 644>
LayerCount: 2
Fore
SplineSet
156 0 m 1
 156 35 l 1
 229 41 253 43 253 127 c 2
 253 644 l 1
 183 640 80 635 60 475 c 1
 31 475 l 1
 31 676 l 1
 634 676 l 1
 636 475 l 1
 607 475 l 1
 587 635 484 640 415 644 c 1
 415 127 l 2
 415 42 439 40 513 35 c 1
 513 0 l 1
 156 0 l 1
EndSplineSet
EndChar

StartChar: U
Encoding: 85 85 53
Width: 722
Flags: HMW
HStem: -19 49<329 443> 641 35<16 354 16 354>
VStem: 98 159<225 552> 579 44<225 552>
LayerCount: 2
Fore
SplineSet
16 641 m 1
 16 676 l 1
 354 676 l 1
 354 641 l 1
 288 638 257 640 257 552 c 2
 257 225 l 2
 257 168 257 30 401 30 c 0
 577 30 579 161 579 225 c 2
 579 552 l 2
 579 613 567 637 481 641 c 1
 481 676 l 1
 701 676 l 1
 701 641 l 1
 646 633 623 618 623 552 c 2
 623 225 l 2
 623 72 516 -19 370 -19 c 0
 234 -19 98 40 98 225 c 2
 98 552 l 2
 98 636 72 635 16 641 c 1
EndSplineSet
EndChar

StartChar: V
Encoding: 86 86 54
Width: 722
Flags: HMW
HStem: -18 21G<356 356 356 383> 641 35<16 352 16 352>
LayerCount: 2
Fore
SplineSet
356 -18 m 1
 100 571 l 2
 74 631 59 634 16 641 c 1
 16 676 l 1
 352 676 l 1
 352 641 l 1
 289 637 266 637 266 599 c 0
 266 580 286 548 427 207 c 1
 574 595 l 1
 574 634 545 638 488 641 c 1
 488 676 l 1
 701 676 l 1
 701 641 l 1
 646 634 633 615 611 559 c 2
 383 -18 l 1
 356 -18 l 1
EndSplineSet
EndChar

StartChar: W
Encoding: 87 87 55
Width: 1000
Flags: HMW
HStem: -15 21G<300 300 300 328 685 685 685 712> 453 21G<510 517 510 510> 641 35<19 313 19 313>
LayerCount: 2
Fore
SplineSet
300 -15 m 1
 88 577 l 2
 71 625 61 635 19 641 c 1
 19 676 l 1
 313 676 l 1
 313 641 l 1
 277 638 249 636 249 599 c 0
 249 588 252 587 375 215 c 1
 377 215 l 1
 494 520 l 1
 459 606 l 2
 446 628 435 639 387 641 c 1
 387 676 l 1
 699 676 l 1
 699 641 l 1
 656 638 627 637 627 603 c 0
 627 591 635 577 748 225 c 1
 750 225 l 1
 868 597 l 1
 868 638 833 639 799 641 c 1
 799 676 l 1
 981 676 l 1
 981 641 l 1
 946 638 924 614 912 577 c 2
 712 -15 l 1
 685 -15 l 1
 517 453 l 1
 510 453 l 1
 328 -15 l 1
 300 -15 l 1
EndSplineSet
EndChar

StartChar: X
Encoding: 88 88 56
Width: 722
Flags: HMW
HStem: 0 35<16 16 16 266> 641 35<17 363 17 363>
VStem: 16 683<0 35 0 35>
LayerCount: 2
Fore
SplineSet
16 0 m 1
 16 35 l 1
 41 37 89 37 130 91 c 2
 295 302 l 1
 97 583 l 2
 76 614 59 639 17 641 c 1
 17 676 l 1
 363 676 l 1
 363 641 l 1
 304 637 284 637 284 608 c 0
 284 595 287 599 396 431 c 1
 510 589 510 579 510 606 c 0
 510 637 482 638 438 641 c 1
 438 676 l 1
 688 676 l 1
 688 641 l 1
 597 633 578 616 420 394 c 1
 602 121 l 2
 655 39 671 37 699 35 c 1
 699 0 l 1
 359 0 l 1
 359 35 l 1
 411 38 439 40 439 67 c 0
 439 77 428 93 317 271 c 1
 177 77 l 1
 177 42 231 38 266 35 c 1
 266 0 l 1
 16 0 l 1
EndSplineSet
EndChar

StartChar: Y
Encoding: 89 89 57
Width: 722
Flags: HMW
HStem: 0 35<185 185 185 532> 641 35<15 350 315.5 350>
VStem: 278 162<127 264 264 264> 577 122<597 676>
LayerCount: 2
Fore
SplineSet
185 0 m 1
 185 35 l 1
 254 42 278 44 278 127 c 2
 278 264 l 1
 95 586 l 2
 90 595 66 638 15 641 c 1
 15 676 l 1
 350 676 l 1
 350 641 l 1
 281 641 269 635 269 607 c 0
 269 592 285 577 413 329 c 1
 577 597 l 2
 594 626 526 638 479 641 c 1
 479 676 l 1
 699 676 l 1
 699 641 l 1
 680 638 651 634 631 602 c 2
 440 301 l 1
 440 127 l 2
 440 44 462 42 532 35 c 1
 532 0 l 1
 185 0 l 1
EndSplineSet
EndChar

StartChar: Z
Encoding: 90 90 58
Width: 667
Flags: HMW
HStem: 0 35<225 225 225 608> 450 20G<59 97 59 59> 641 35<410 410>
LayerCount: 2
Fore
SplineSet
28 0 m 1
 28 16 l 1
 410 641 l 1
 241 636 241 636 208 626 c 0
 133 603 115 521 97 470 c 1
 59 470 l 1
 80 676 l 1
 604 676 l 1
 604 660 l 1
 225 35 l 1
 448 32 546 31 598 241 c 1
 634 241 l 1
 608 0 l 1
 28 0 l 1
EndSplineSet
EndChar

StartChar: bracketleft
Encoding: 91 91 59
Width: 333
Flags: HMW
HStem: -149 43<221 301 221 301> 635 43<210 238 238 301>
VStem: 67 104<-69 -53 -53 565>
LayerCount: 2
Fore
SplineSet
67 -149 m 1
 67 678 l 1
 301 678 l 1
 301 635 l 1
 238 635 l 2
 182 635 171 624 171 565 c 2
 171 -53 l 2
 171 -85 172 -106 221 -106 c 2
 301 -106 l 1
 301 -149 l 1
 67 -149 l 1
EndSplineSet
EndChar

StartChar: backslash
Encoding: 92 92 60
Width: 278
Flags: HMW
HStem: -139 21G<194 194 194 262> -19 21G 671 20G<5 76 76 76>
LayerCount: 2
Fore
SplineSet
194 -139 m 1
 5 691 l 1
 76 691 l 1
 262 -139 l 1
 194 -139 l 1
EndSplineSet
EndChar

StartChar: bracketright
Encoding: 93 93 61
Width: 333
Flags: HMW
HStem: -149 43<32 112 112 137 32 266 32 112> 635 43<32 95 32 266>
VStem: 162 104<-53 565 565 594.5>
LayerCount: 2
Fore
SplineSet
32 -106 m 1
 112 -106 l 2
 162 -106 162 -86 162 -53 c 2
 162 565 l 2
 162 624 151 635 95 635 c 2
 32 635 l 1
 32 678 l 1
 266 678 l 1
 266 -149 l 1
 32 -149 l 1
 32 -106 l 1
EndSplineSet
EndChar

StartChar: asciicircum
Encoding: 94 94 62
Width: 581
Flags: HMW
HStem: 311 21G<73 73 73 162 420 420 420 509> 656 20G<251 331 331 331>
LayerCount: 2
Fore
SplineSet
73 311 m 1
 251 676 l 1
 331 676 l 1
 509 311 l 1
 420 311 l 1
 291 579 l 1
 162 311 l 1
 73 311 l 1
EndSplineSet
EndChar

StartChar: underscore
Encoding: 95 95 63
Width: 500
Flags: HMW
HStem: -125 50<0 500 0 500>
LayerCount: 2
Fore
SplineSet
0 -75 m 1
 500 -75 l 1
 500 -125 l 1
 0 -125 l 1
 0 -75 l 1
EndSplineSet
EndChar

StartChar: grave
Encoding: 193 96 64
Width: 333
Flags: HMW
HStem: 528 21G<190 190 190 246> 693 20G<38 67.5>
LayerCount: 2
Fore
SplineSet
190 528 m 1
 48 616 l 2
 23 631 8 646 8 669 c 0
 8 683 19 713 57 713 c 0
 78 713 98 698 109 685 c 2
 246 528 l 1
 190 528 l 1
EndSplineSet
EndChar

StartChar: a
Encoding: 97 97 65
Width: 500
Flags: HMW
HStem: -14 21G<111 147 343 400.5> -14 70 281 192<104 271.5> 441 32<198 253>
VStem: 25 146<108.5 145> 44 133<328 356.5 328 380.5> 293 138<100 245 245 245>
LayerCount: 2
Fore
SplineSet
293 100 m 1
 293 245 l 1
 270 240 171 211 171 124 c 0
 171 93 186 57 222 57 c 0
 256 57 279 84 293 100 c 1
294 56 m 1
 229 -9 159 -14 135 -14 c 0
 87 -14 25 17 25 93 c 0
 25 197 152 237 294 280 c 1
 294 336 l 2
 294 387 290 441 216 441 c 0
 180 441 147 421 147 405 c 0
 147 384 177 376 177 337 c 0
 177 319 162 281 110 281 c 0
 98 281 44 281 44 349 c 0
 44 412 92 473 216 473 c 0
 327 473 431 430 431 336 c 2
 431 75 l 2
 431 71 442 33 473 64 c 1
 488 43 l 1
 460 10 423 -14 378 -14 c 0
 308 -14 300 28 294 56 c 1
EndSplineSet
EndChar

StartChar: b
Encoding: 98 98 66
Width: 556
Flags: HMW
HStem: -14 32<263.5 309 251.5 361.5> -13 21G<72 72 72 84> 419 54<298.5 324.5> 656 20G<17 211 211 211>
VStem: 72 139<83 97 97 360 417 584 584 607.5> 374 147<162.5 255.5>
LayerCount: 2
Fore
SplineSet
211 97 m 2
 211 69 224 18 279 18 c 0
 339 18 374 69 374 226 c 0
 374 285 368 419 281 419 c 0
 235 419 220 382 211 360 c 1
 211 97 l 2
72 -13 m 1
 72 584 l 2
 72 631 53 635 17 642 c 1
 17 676 l 1
 211 676 l 1
 211 417 l 1
 228 435 264 473 333 473 c 0
 452 473 521 357 521 226 c 0
 521 99 444 -14 279 -14 c 0
 248 -14 209 -2 163 43 c 1
 84 -13 l 1
 72 -13 l 1
EndSplineSet
EndChar

StartChar: c
Encoding: 99 99 67
Width: 444
Flags: HMW
HStem: -14 67<266 278.5> 300 173<214 352> 442 31<214 258.5>
VStem: 25 141<235 235> 292 124<376 400 332 418>
LayerCount: 2
Fore
SplineSet
412 109 m 1
 430 91 l 1
 384 26 318 -14 239 -14 c 0
 111 -14 25 96 25 235 c 0
 25 432 167 473 261 473 c 0
 332 473 416 436 416 364 c 0
 416 300 356 300 348 300 c 0
 292 300 292 349 292 403 c 0
 292 433 266 442 251 442 c 0
 173 442 167 341 166 235 c 0
 165 95 227 53 305 53 c 0
 362 53 388 82 412 109 c 1
EndSplineSet
EndChar

StartChar: d
Encoding: 100 100 68
Width: 556
Flags: HMW
HStem: -14 56<213 237.5> 417 56<222.5 248 171 286> 642 34<260 475>
VStem: 25 148<197 274.5 197 313> 336 139<112 355 355 355.5 411 584 584 610.5>
LayerCount: 2
Fore
SplineSet
336 112 m 2
 336 355 l 2
 336 356 314 417 258 417 c 0
 187 417 173 323 173 226 c 0
 173 168 173 42 253 42 c 0
 299 42 336 101 336 112 c 2
339 52 m 1
 303 14 275 -14 200 -14 c 0
 117 -14 25 80 25 226 c 0
 25 400 124 473 218 473 c 0
 278 473 312 437 336 411 c 1
 336 584 l 2
 336 637 315 638 260 642 c 1
 260 676 l 1
 475 676 l 1
 475 111 l 2
 475 84 477 55 534 53 c 1
 534 20 l 1
 410 5 401 4 339 -13 c 1
 339 52 l 1
EndSplineSet
EndChar

StartChar: e
Encoding: 101 101 69
Width: 444
Flags: HMW
HStem: -14 72<241.5 268> 245 37<169 169 169 298 164 421> 442 31<212.5 271>
VStem: 25 139<282 305>
LayerCount: 2
Fore
SplineSet
169 245 m 1
 172 160 194 58 289 58 c 0
 348 58 383 102 402 125 c 1
 426 111 l 1
 365 18 308 -14 228 -14 c 0
 127 -14 25 60 25 231 c 0
 25 379 116 473 231 473 c 0
 405 473 421 299 421 245 c 1
 169 245 l 1
164 282 m 1
 298 282 l 1
 297 328 311 442 231 442 c 0
 194 442 164 420 164 282 c 1
EndSplineSet
EndChar

StartChar: f
Encoding: 102 102 70
Width: 333
Flags: HMW
HStem: 0 34<14 14 14 292> 417 44<14 71 14 71 210 297> 529 162<162.5 346> 660 31<229 259>
VStem: 71 139<94 417 461 509.5>
LayerCount: 2
Fore
SplineSet
14 0 m 1
 14 34 l 1
 48 38 71 41 71 94 c 2
 71 417 l 1
 14 417 l 1
 14 461 l 1
 71 461 l 1
 71 558 72 691 253 691 c 0
 314 691 389 660 389 591 c 0
 389 556 366 529 326 529 c 0
 284 529 267 563 267 583 c 0
 267 610 289 626 289 641 c 0
 289 657 265 660 253 660 c 0
 205 660 210 610 210 583 c 2
 210 461 l 1
 297 461 l 1
 297 417 l 1
 210 417 l 1
 210 94 l 2
 210 51 227 36 292 34 c 1
 292 0 l 1
 14 0 l 1
EndSplineSet
EndChar

StartChar: g
Encoding: 103 103 71
Width: 500
Flags: HMW
HStem: -206 166<120 288.5> -193 32 -52 119 154 28<210.5 258.5> 398 53<401 483 401 401> 442 31<209.5 258 171.5 273>
VStem: 28 88<-139 -100 -143 -91> 37 117 37 137<274.5 340.5 274.5 349> 303 135 404 79<-117 -85>
LayerCount: 2
Fore
SplineSet
174 309 m 0
 174 240 181 182 240 182 c 0
 303 182 306 252 306 309 c 0
 306 354 306 442 240 442 c 0
 179 442 174 372 174 309 c 0
151 -52 m 1
 125 -73 116 -89 116 -111 c 0
 116 -175 209 -174 226 -174 c 0
 266 -174 404 -174 404 -103 c 0
 404 -67 376 -52 324 -52 c 2
 151 -52 l 1
120 -40 m 1
 120 -38 l 1
 75 -22 42 -7 42 45 c 0
 42 108 116 147 159 159 c 1
 159 161 l 1
 85 188 37 237 37 309 c 0
 37 389 103 473 240 473 c 0
 276 473 312 467 352 451 c 1
 483 451 l 1
 483 398 l 1
 401 398 l 1
 411 388 441 369 441 309 c 0
 441 248 408 186 336 163 c 0
 307 154 307 154 210 154 c 0
 191 154 154 134 154 104 c 0
 154 70 180 69 319 67 c 0
 368 66 483 56 483 -55 c 0
 483 -179 351 -206 226 -206 c 0
 102 -206 28 -167 28 -111 c 0
 28 -71 64 -45 120 -40 c 1
EndSplineSet
EndChar

StartChar: h
Encoding: 104 104 72
Width: 556
Flags: HMW
HStem: 0 34<16 16 16 257 509.5 534> 406 67<271 378.5> 656 20G<16 208 208 208>
VStem: 48 139 339 139
LayerCount: 2
Fore
SplineSet
16 0 m 1
 16 34 l 1
 52 41 69 42 69 91 c 2
 69 584 l 2
 69 631 55 634 16 642 c 1
 16 676 l 1
 208 676 l 1
 208 395 l 1
 256 451 299 473 351 473 c 0
 406 473 485 433 485 323 c 2
 485 91 l 2
 485 74 485 34 534 34 c 1
 534 0 l 1
 299 0 l 1
 299 34 l 1
 332 37 346 54 346 91 c 2
 346 323 l 2
 346 351 345 406 291 406 c 0
 251 406 208 357 208 348 c 2
 208 91 l 2
 208 68 211 39 257 34 c 1
 257 0 l 1
 16 0 l 1
EndSplineSet
EndChar

StartChar: i
Encoding: 105 105 73
Width: 278
Flags: HMW
HStem: 0 21G<16 16 16 255> 441 20G<16 208 208 208>
VStem: 42 155 60 155<591.5 634> 69 139<91 368 368 390.5>
LayerCount: 2
Fore
SplineSet
60 613 m 0
 60 655 93 691 138 691 c 0
 181 691 215 656 215 613 c 0
 215 569 181 536 138 536 c 0
 92 536 60 570 60 613 c 0
16 0 m 1
 16 34 l 1
 52 43 69 43 69 91 c 2
 69 368 l 2
 69 413 54 420 16 427 c 1
 16 461 l 1
 208 461 l 1
 208 91 l 2
 208 60 216 38 255 34 c 1
 255 0 l 1
 16 0 l 1
EndSplineSet
EndChar

StartChar: j
Encoding: 106 106 74
Width: 333
Flags: HMW
HStem: -203 161<-16 164.5> 536 155<162.5 206.5 162.5 206.5>
VStem: 95 152 100 139
LayerCount: 2
Fore
SplineSet
108 613 m 0
 108 655 140 691 185 691 c 0
 228 691 263 656 263 613 c 0
 263 569 228 536 185 536 c 0
 139 536 108 570 108 613 c 0
58 427 m 1
 58 461 l 1
 260 461 l 1
 260 2 l 2
 260 -55 256 -203 73 -203 c 0
 18 -203 -57 -175 -57 -101 c 0
 -57 -73 -37 -42 5 -42 c 0
 46 -42 64 -75 64 -96 c 0
 64 -107 59 -117 54 -126 c 0
 48 -137 41 -147 41 -155 c 0
 41 -171 70 -172 73 -172 c 0
 113 -172 121 -138 121 -96 c 2
 121 368 l 2
 121 423 93 424 58 427 c 1
EndSplineSet
EndChar

StartChar: k
Encoding: 107 107 75
Width: 556
Flags: HMW
HStem: 0 34<22 42 22 42 22 261 309 316 539 543> 441 20G<299 513 513 513> 656 20G<22 209 209 209>
VStem: 70 139<94 198 245 584 584 589.5>
LayerCount: 2
Fore
SplineSet
22 0 m 1
 22 34 l 1
 62 34 70 70 70 94 c 2
 70 584 l 2
 70 595 70 642 22 642 c 1
 22 676 l 1
 209 676 l 1
 209 245 l 1
 358 399 l 1
 358 419 347 421 299 428 c 1
 299 461 l 1
 513 461 l 1
 513 428 l 1
 473 421 454 417 426 394 c 0
 404 376 350 338 324 307 c 1
 518 49 l 2
 528 35 535 34 543 34 c 1
 543 0 l 1
 309 0 l 1
 309 34 l 1
 323 34 351 37 351 53 c 0
 351 64 338 84 232 222 c 1
 209 198 l 1
 209 94 l 2
 209 50 213 41 261 34 c 1
 261 0 l 1
 22 0 l 1
EndSplineSet
EndChar

StartChar: l
Encoding: 108 108 76
Width: 278
Flags: HMW
HStem: 0 34<16 36 16 36 235.5 255> 656 20G<16 206 206 206>
VStem: 54 139 67 139<94 584 584 589.5>
LayerCount: 2
Fore
SplineSet
16 0 m 1
 16 34 l 1
 56 34 67 70 67 94 c 2
 67 584 l 2
 67 595 65 642 16 642 c 1
 16 676 l 1
 206 676 l 1
 206 94 l 2
 206 65 216 34 255 34 c 1
 255 0 l 1
 16 0 l 1
EndSplineSet
EndChar

StartChar: m
Encoding: 109 109 77
Width: 833
Flags: HMW
HStem: 0 34<16 16 16 256> 389 21G<207 209 209 209> 406 67<309 320.5> 441 20G<16 207 207 207>
VStem: 71 139<94 348> 348 139<91 323 323 339> 625 139<91 323 323 332>
CounterMasks: 1 0e
LayerCount: 2
Fore
SplineSet
16 0 m 1
 16 34 l 1
 49 40 71 45 71 94 c 2
 71 368 l 2
 71 420 45 423 16 427 c 1
 16 461 l 1
 207 461 l 1
 207 389 l 1
 209 389 l 1
 223 413 267 473 351 473 c 0
 442 473 467 418 482 386 c 1
 527 445 572 473 630 473 c 0
 685 473 764 442 764 332 c 2
 764 91 l 2
 764 66 764 35 814 34 c 1
 814 0 l 1
 576 0 l 1
 576 34 l 1
 625 36 625 67 625 91 c 2
 625 323 l 2
 625 354 625 406 571 406 c 0
 529 406 487 356 487 348 c 2
 487 91 l 2
 487 59 496 37 534 34 c 1
 534 0 l 1
 300 0 l 1
 300 34 l 1
 348 37 348 68 348 91 c 2
 348 323 l 2
 348 355 348 406 293 406 c 0
 250 406 210 356 210 348 c 2
 210 91 l 2
 210 60 217 38 256 34 c 1
 256 0 l 1
 16 0 l 1
EndSplineSet
EndChar

StartChar: n
Encoding: 110 110 78
Width: 556
Flags: HMW
HStem: 0 34<21 21 21 262> 389 21G<212 214 214 214> 406 67<313.5 323> 441 20G<21 212 212 212>
VStem: 66 139 74 139<94 348> 335 139 351 139<91 323>
LayerCount: 2
Fore
SplineSet
21 0 m 1
 21 34 l 1
 57 41 74 45 74 94 c 2
 74 368 l 2
 74 413 61 421 21 427 c 1
 21 461 l 1
 212 461 l 1
 212 389 l 1
 214 389 l 1
 228 413 271 473 356 473 c 0
 411 473 490 433 490 323 c 2
 490 91 l 2
 490 67 490 36 539 34 c 1
 539 0 l 1
 304 0 l 1
 304 34 l 1
 337 37 351 54 351 91 c 2
 351 323 l 2
 351 351 350 406 296 406 c 0
 256 406 213 357 213 348 c 2
 213 91 l 2
 213 68 216 39 262 34 c 1
 262 0 l 1
 21 0 l 1
EndSplineSet
EndChar

StartChar: o
Encoding: 111 111 79
Width: 500
Flags: HMW
HStem: -14 31<212 286.5 212 319> 442 31<214 281.5>
VStem: 25 147<178 289 178 296.5> 317 147 329 147<162.5 295.5 159.5 303>
LayerCount: 2
Fore
SplineSet
25 232 m 0
 25 361 112 473 251 473 c 0
 382 473 476 365 476 226 c 0
 476 93 387 -14 251 -14 c 0
 112 -14 25 102 25 232 c 0
172 232 m 0
 172 124 172 17 252 17 c 0
 321 17 329 99 329 226 c 0
 329 380 312 442 251 442 c 0
 177 442 172 346 172 232 c 0
EndSplineSet
EndChar

StartChar: p
Encoding: 112 112 80
Width: 556
Flags: HMW
HStem: -205 21G<19 292 19 19> -13 55<304 332 263.5 383> 395 21G 416 57<301 334.5> 441 20G<19 212 212 212>
VStem: 75 139<-113 47 103 346> 334 148 376 148<205 275>
LayerCount: 2
Fore
SplineSet
19 -171 m 1
 65 -164 75 -154 75 -113 c 2
 75 368 l 2
 75 406 65 421 19 427 c 1
 19 461 l 1
 212 461 l 1
 212 395 l 1
 214 395 l 1
 231 428 261 473 341 473 c 0
 425 473 524 395 524 233 c 0
 524 68 434 -13 332 -13 c 0
 276 -13 248 14 214 47 c 1
 214 -113 l 2
 214 -174 245 -172 292 -174 c 1
 292 -205 l 1
 19 -205 l 1
 19 -171 l 1
214 103 m 1
 214 103 236 42 291 42 c 0
 373 42 376 177 376 233 c 0
 376 317 371 416 298 416 c 0
 253 416 214 360 214 346 c 2
 214 103 l 1
EndSplineSet
EndChar

StartChar: q
Encoding: 113 113 81
Width: 556
Flags: HMW
HStem: -205 21G<269 536 269 269> -14 54<173 300.5> 441 32<227.5 292>
VStem: 34 146<165 271.5 165 289> 342 139<-113 42 42 42 98 361 361 381>
LayerCount: 2
Fore
SplineSet
269 -170 m 1
 324 -160 342 -158 342 -113 c 2
 342 42 l 1
 301 -3 252 -14 223 -14 c 0
 123 -14 34 59 34 230 c 0
 34 348 119 473 269 473 c 0
 321 473 352 448 388 416 c 1
 466 473 l 1
 481 473 l 1
 481 -113 l 2
 481 -161 500 -164 536 -171 c 1
 536 -205 l 1
 269 -205 l 1
 269 -170 l 1
342 98 m 1
 342 361 l 2
 342 401 315 441 269 441 c 0
 186 441 180 313 180 230 c 0
 180 100 208 40 274 40 c 0
 327 40 344 98 342 98 c 1
EndSplineSet
EndChar

StartChar: r
Encoding: 114 114 82
Width: 444
Flags: HMW
HStem: 0 34<29 29 29 295> 328 145<357 385 318.5 395> 382 21G<218 220 220 220> 387 21G<273.5 289.5> 441 20G<29 218 218 218>
VStem: 83 139<94 292>
LayerCount: 2
Fore
SplineSet
29 0 m 1
 29 34 l 1
 61 40 83 44 83 94 c 2
 83 378 l 2
 83 428 59 433 29 437 c 1
 29 461 l 1
 218 461 l 1
 218 382 l 1
 220 382 l 1
 241 413 286 473 351 473 c 0
 419 473 434 419 434 395 c 0
 434 369 420 328 370 328 c 0
 344 328 330 340 319 353 c 0
 306 369 298 387 281 387 c 0
 266 387 222 365 222 292 c 2
 222 94 l 2
 222 44 234 37 295 34 c 1
 295 0 l 1
 29 0 l 1
EndSplineSet
EndChar

StartChar: s
Encoding: 115 115 83
Width: 389
Flags: HMW
HStem: -14 34<172.5 216 135.5 237.5> -13 21G<25 25 25 60> 326 21G<305 340 305 305> 440 33<168 199 140 214.5> 451 20G<279 340>
VStem: 25 100<357 370> 265 96<92.5 110>
LayerCount: 2
Fore
SplineSet
25 -13 m 1
 25 152 l 1
 63 152 l 1
 69 125 80 20 191 20 c 0
 241 20 265 56 265 86 c 0
 265 134 201 155 139 186 c 0
 81 215 25 252 25 326 c 0
 25 414 94 473 186 473 c 0
 212 473 234 466 251 460 c 0
 264 455 275 451 283 451 c 0
 301 451 305 463 308 471 c 1
 340 471 l 1
 340 326 l 1
 305 326 l 1
 284 397 243 440 186 440 c 0
 150 440 125 414 125 383 c 0
 125 331 187 312 247 283 c 0
 304 256 361 220 361 140 c 0
 361 45 284 -14 191 -14 c 0
 154 -14 119 2 100 10 c 0
 94 13 89 15 87 15 c 0
 76 15 70 7 60 -13 c 1
 25 -13 l 1
EndSplineSet
EndChar

StartChar: t
Encoding: 116 116 84
Width: 333
Flags: HMW
HStem: -12 71<131 264.5> 417 44<211 305 211 305> 610 20G<186 211 211 211>
VStem: 53 139 72 139<103 417>
LayerCount: 2
Fore
SplineSet
307 111 m 1
 332 100 l 1
 311 57 275 -12 185 -12 c 0
 77 -12 73 82 72 103 c 2
 72 417 l 1
 20 417 l 1
 20 444 l 1
 73 489 118 533 186 630 c 1
 211 630 l 1
 211 461 l 1
 305 461 l 1
 305 417 l 1
 211 417 l 1
 211 103 l 2
 211 87 210 59 250 59 c 0
 279 59 296 90 307 111 c 1
EndSplineSet
EndChar

StartChar: u
Encoding: 117 117 85
Width: 556
Flags: HMW
HStem: -14 65<232.5 234.5> 441 20G<16 204 204 204 280 481 481 481>
VStem: 65 139<122 368 368 388> 326 139 342 139<95 101 101 368 368 395.5>
LayerCount: 2
Fore
SplineSet
343 52 m 1
 314 27 268 -14 201 -14 c 0
 99 -14 65 51 65 122 c 2
 65 368 l 2
 65 408 57 420 16 427 c 1
 16 461 l 1
 204 461 l 1
 204 122 l 2
 204 94 205 51 260 51 c 0
 298 51 323 76 342 95 c 1
 342 368 l 2
 342 423 314 424 280 427 c 1
 280 461 l 1
 481 461 l 1
 481 101 l 2
 481 62 492 44 537 43 c 1
 537 20 l 1
 414 7 400 6 343 -13 c 1
 343 52 l 1
EndSplineSet
EndChar

StartChar: v
Encoding: 118 118 86
Width: 500
Flags: HMW
HStem: -14 21G<241 241 241 267> 427 34<21 271 21 271>
VStem: 21 464<427 461 427 461>
LayerCount: 2
Fore
SplineSet
241 -14 m 1
 63 400 l 2
 51 423 46 423 21 427 c 1
 21 461 l 1
 271 461 l 1
 271 427 l 1
 238 424 218 423 218 400 c 0
 218 396 218 393 306 177 c 1
 389 394 l 1
 389 426 359 426 334 427 c 1
 334 461 l 1
 485 461 l 1
 485 427 l 1
 461 424 447 422 427 372 c 2
 267 -14 l 1
 241 -14 l 1
EndSplineSet
EndChar

StartChar: w
Encoding: 119 119 87
Width: 722
Flags: HMW
HStem: -14 21G<228 228 228 252 479 479 479 502> 289 21G<374 379 374 374> 441 20G<23 245 245 245 294 528 528 528 572 707 707 707>
VStem: 572 135<427 461 427 461>
LayerCount: 2
Fore
SplineSet
228 -14 m 1
 80 360 l 2
 54 425 49 422 23 427 c 1
 23 461 l 1
 245 461 l 1
 245 427 l 1
 231 425 207 423 207 397 c 0
 207 376 241 310 291 176 c 1
 359 347 l 1
 349 381 343 391 338 403 c 0
 329 424 318 424 294 427 c 1
 294 461 l 1
 528 461 l 1
 528 427 l 1
 502 425 480 423 480 402 c 0
 480 381 522 261 540 183 c 1
 542 183 l 1
 569 259 620 368 620 390 c 0
 620 422 600 424 572 427 c 1
 572 461 l 1
 707 461 l 1
 707 427 l 1
 688 423 674 421 657 377 c 2
 502 -14 l 1
 479 -14 l 1
 379 289 l 1
 374 289 l 1
 252 -14 l 1
 228 -14 l 1
EndSplineSet
EndChar

StartChar: x
Encoding: 120 120 88
Width: 500
Flags: HMW
HStem: 0 21G<14 14 14 183 243 243 243 484> 427 34<12 262 250 262>
VStem: 14 470<0 34 0 34>
LayerCount: 2
Fore
SplineSet
14 0 m 1
 14 34 l 1
 58 39 61 30 192 201 c 1
 64 388 l 2
 47 414 39 423 12 427 c 1
 12 461 l 1
 262 461 l 1
 262 427 l 1
 238 427 215 423 215 407 c 0
 215 390 271 322 286 303 c 1
 360 398 360 388 360 402 c 0
 360 423 348 424 309 427 c 1
 309 461 l 1
 477 461 l 1
 477 427 l 1
 449 423 425 411 407 388 c 2
 306 272 l 1
 454 54 l 2
 463 41 471 38 484 34 c 1
 484 0 l 1
 243 0 l 1
 243 34 l 1
 265 35 297 42 288 55 c 0
 267 86 213 171 213 171 c 1
 213 171 148 81 133 60 c 0
 118 40 166 35 183 34 c 1
 183 0 l 1
 14 0 l 1
EndSplineSet
EndChar

StartChar: y
Encoding: 121 121 89
Width: 500
Flags: HMW
HStem: -205 143<75.5 104.5 52 155> 441 20G<16 266 266 266 329 480 480 480>
LayerCount: 2
Fore
SplineSet
236 -13 m 1
 58 400 l 2
 46 423 41 423 16 427 c 1
 16 461 l 1
 266 461 l 1
 266 427 l 1
 240 425 213 424 213 400 c 0
 213 390 224 374 305 167 c 1
 384 394 l 1
 384 426 354 426 329 427 c 1
 329 461 l 1
 480 461 l 1
 480 427 l 1
 458 424 441 422 422 372 c 2
 273 -15 l 2
 223 -148 202 -205 108 -205 c 0
 43 -205 16 -159 16 -127 c 0
 16 -113 22 -62 82 -62 c 0
 127 -62 138 -95 138 -113 c 0
 138 -122 135 -127 135 -131 c 0
 135 -136 140 -148 152 -148 c 0
 186 -148 211 -88 218 -66 c 2
 236 -13 l 1
EndSplineSet
EndChar

StartChar: z
Encoding: 122 122 90
Width: 444
Flags: HMW
HStem: 0 21G<21 21 21 404> 319 21G<38 74 38 38> 429 32<255 255>
VStem: 38 36<319 319>
LayerCount: 2
Fore
SplineSet
21 0 m 1
 21 25 l 1
 255 429 l 1
 137 428 100 428 74 319 c 1
 38 319 l 1
 45 461 l 1
 420 461 l 1
 420 435 l 1
 185 32 l 1
 226 31 258 31 292 42 c 0
 347 63 375 129 382 160 c 1
 420 160 l 1
 404 0 l 1
 21 0 l 1
EndSplineSet
EndChar

StartChar: braceleft
Encoding: 123 123 91
Width: 394
Flags: HMW
HStem: -175 21G<273.5 340> 678 20G<273.5 340>
VStem: 129 105<-40 131 377 556>
LayerCount: 2
Fore
SplineSet
22 261 m 1
 109 280 129 311 129 377 c 2
 129 556 l 2
 129 678 207 698 340 698 c 1
 340 686 l 1
 259 671 234 626 234 556 c 2
 234 377 l 2
 234 306 217 280 120 262 c 1
 120 260 l 1
 217 242 234 202 234 131 c 2
 234 -40 l 2
 234 -109 259 -149 340 -163 c 1
 340 -175 l 1
 207 -175 129 -161 129 -40 c 2
 129 131 l 2
 129 197 109 242 22 261 c 1
EndSplineSet
EndChar

StartChar: bar
Encoding: 124 124 92
Width: 220
Flags: HMW
HStem: -170 21G<77 77 77 146> -19 21G 671 20G<77 146 146 146>
VStem: 66 88 77 69<-170 691 -170 691>
LayerCount: 2
Fore
SplineSet
77 -170 m 1
 77 691 l 1
 146 691 l 1
 146 -170 l 1
 77 -170 l 1
EndSplineSet
EndChar

StartChar: braceright
Encoding: 125 125 93
Width: 394
Flags: HMW
HStem: -175 21G<54 120.5> 678 20G<54 120.5>
VStem: 160 105<-39 132 378 557>
LayerCount: 2
Fore
SplineSet
54 -163 m 1
 135 -148 160 -109 160 -39 c 2
 160 132 l 2
 160 203 177 243 274 261 c 1
 274 263 l 1
 177 281 160 307 160 378 c 2
 160 557 l 2
 160 626 135 672 54 686 c 1
 54 698 l 1
 187 698 265 678 265 557 c 2
 265 378 l 2
 265 312 285 281 372 262 c 1
 285 243 265 198 265 132 c 2
 265 -39 l 2
 265 -161 187 -175 54 -175 c 1
 54 -163 l 1
EndSplineSet
EndChar

StartChar: asciitilde
Encoding: 126 126 94
Width: 520
Flags: HMW
HStem: 173 160
VStem: 29 462<243 263>
LayerCount: 2
Fore
SplineSet
65 173 m 1
 29 243 l 1
 51 285 87 329 154 329 c 0
 187 329 227 311 266 293 c 0
 303 277 338 261 367 261 c 0
 407 261 432 298 455 333 c 1
 491 263 l 1
 461 221 428 177 366 177 c 0
 320 177 285 198 247 217 c 0
 218 232 187 245 149 245 c 0
 105 245 81 208 65 173 c 1
EndSplineSet
EndChar

StartChar: exclamdown
Encoding: 161 161 95
Width: 333
Flags: HMW
HStem: -203 21G<141.5 193> 332 169<143.5 191>
VStem: 82 169<394.5 440.5 394.5 441> 153 29<254 254>
LayerCount: 2
Fore
SplineSet
153 254 m 1
 182 254 l 1
 189 182 197 129 206 88 c 0
 228 -18 252 -43 252 -104 c 0
 252 -168 219 -203 167 -203 c 0
 116 -203 83 -168 83 -104 c 0
 83 -43 107 -17 129 90 c 0
 138 131 146 183 153 254 c 1
82 417 m 0
 82 465 120 501 167 501 c 0
 215 501 251 464 251 417 c 0
 251 372 215 332 167 332 c 0
 120 332 82 371 82 417 c 0
EndSplineSet
EndChar

StartChar: cent
Encoding: 162 162 96
Width: 500
Flags: HMW
HStem: -140 21G<130 130 130 170> -14 21G<259 284.5> 300 21G<370 380> 442 31<239 287.5> 568 20G<389 429 429 429>
VStem: 53 141<245.5 290 245.5 307.5> 321 123<332 400 332 415>
LayerCount: 2
Fore
SplineSet
130 -140 m 1
 181 5 l 1
 109 36 53 109 53 224 c 0
 53 391 177 473 287 473 c 0
 306 473 326 470 345 465 c 1
 389 588 l 1
 429 588 l 1
 381 452 l 1
 417 434 444 405 444 364 c 0
 444 300 382 300 378 300 c 0
 362 300 345 306 334 320 c 1
 252 90 l 1
 274 66 301 53 333 53 c 0
 393 53 421 80 440 103 c 1
 458 85 l 1
 388 -14 301 -14 268 -14 c 0
 250 -14 233 -12 217 -7 c 1
 170 -140 l 1
 130 -140 l 1
225 128 m 1
 321 397 l 1
 321 400 l 2
 321 430 296 442 279 442 c 0
 199 442 194 306 194 274 c 0
 194 217 205 166 225 128 c 1
EndSplineSet
EndChar

StartChar: sterling
Encoding: 163 163 97
Width: 500
Flags: HMW
HStem: -14 31 -14 126<345 389 345 402.5> -13 21G<95 139.5> 118 46<83.5 125.5> 308 65<39 119 39 137 39 119 275 275 275 384> 499 185<371 382 228.5 414> 654 30<264.5 309>
VStem: 21 32<46 73 46 81.5> 105 126<468 599.5>
LayerCount: 2
Fore
SplineSet
181 86 m 1
 164 101 145 118 106 118 c 0
 61 118 53 80 53 66 c 0
 53 26 90 17 107 17 c 0
 161 17 174 60 181 86 c 1
221 49 m 1
 205 28 175 -13 104 -13 c 0
 86 -13 21 -4 21 68 c 0
 21 95 25 164 126 164 c 0
 152 164 163 161 178 157 c 1
 177 204 153 262 137 308 c 1
 39 308 l 1
 39 373 l 1
 119 373 l 1
 112 411 105 449 105 487 c 0
 105 566 152 684 305 684 c 0
 459 684 459 583 459 571 c 0
 459 533 440 499 388 499 c 0
 354 499 329 524 331 608 c 0
 331 620 331 654 287 654 c 0
 242 654 231 616 231 583 c 0
 231 559 266 388 270 373 c 1
 384 373 l 1
 384 308 l 1
 275 308 l 1
 279 251 280 193 257 134 c 1
 308 114 339 112 351 112 c 0
 427 112 443 140 454 183 c 1
 477 183 l 1
 471 109 460 -14 345 -14 c 0
 314 -14 280 -6 221 49 c 1
EndSplineSet
EndChar

StartChar: currency
Encoding: 168 164 98
Width: 500
Flags: HMW
HStem: 164 73 436 75
VStem: 77 88 322 88
LayerCount: 2
Fore
SplineSet
54 89 m 1
 2 141 l 1
 90 229 l 1
 69 257 56 295 56 338 c 0
 56 381 71 421 90 447 c 1
 2 535 l 1
 54 585 l 1
 140 499 l 1
 168 518 208 528 249 528 c 0
 294 528 332 518 360 499 c 1
 446 585 l 1
 498 535 l 1
 410 447 l 1
 429 419 443 381 443 338 c 0
 443 295 431 255 410 229 c 1
 498 141 l 1
 446 89 l 1
 360 177 l 1
 332 158 292 143 249 143 c 0
 208 143 168 158 140 177 c 1
 54 89 l 1
136 338 m 0
 136 273 184 216 249 216 c 0
 316 216 364 273 364 338 c 0
 364 401 316 453 249 453 c 0
 184 453 136 401 136 338 c 0
EndSplineSet
EndChar

StartChar: yen
Encoding: 165 165 99
Width: 500
Flags: HMW
HStem: 0 35<83 83 83 414> 154 50 297 50 640 36<-44 257 227.5 257>
VStem: 185 130<125 164 84 164 214 271 271 271> 400 127<598 676>
LayerCount: 2
Fore
SplineSet
83 0 m 1
 83 35 l 1
 148 41 185 43 185 125 c 2
 185 164 l 1
 50 164 l 1
 50 214 l 1
 185 214 l 1
 185 271 l 1
 174 292 l 1
 50 292 l 1
 50 342 l 1
 149 342 l 1
 39 587 l 2
 25 615 1 638 -44 640 c 1
 -44 676 l 1
 257 676 l 1
 257 640 l 1
 198 640 180 632 180 608 c 0
 180 582 238 454 292 344 c 1
 294 344 l 1
 400 598 l 1
 400 637 364 638 322 640 c 1
 322 676 l 1
 527 676 l 1
 527 640 l 1
 511 638 480 636 463 603 c 2
 339 342 l 1
 450 342 l 1
 450 292 l 1
 319 292 l 1
 315 281 l 1
 315 214 l 1
 450 214 l 1
 450 164 l 1
 315 164 l 1
 315 125 l 2
 315 43 350 41 414 35 c 1
 414 0 l 1
 83 0 l 1
EndSplineSet
EndChar

StartChar: brokenbar
Encoding: 256 166 100
Width: 220
Flags: HMW
HStem: -19 21G<77 77 77 144> 417 21G<77 77 77 143> 671 20G<77 143 143 143>
VStem: 66 88 77 67<-19 263 -19 263>
LayerCount: 2
Fore
SplineSet
77 -19 m 1
 77 263 l 1
 144 263 l 1
 144 -19 l 1
 77 -19 l 1
77 417 m 1
 77 691 l 1
 143 691 l 1
 143 417 l 1
 77 417 l 1
EndSplineSet
EndChar

StartChar: section
Encoding: 167 167 101
Width: 500
Flags: HMW
HStem: -123 23 155 25 313 20G 408 23 625 20G
VStem: 40 75 62 75 90 128<-33.5 -21> 326 85
LayerCount: 2
Fore
SplineSet
132 337 m 0
 132 292 154 272 221 216 c 0
 249 192 280 167 312 167 c 0
 353 167 367 200 367 225 c 0
 367 252 362 263 324 302 c 0
 322 304 235 392 188 392 c 0
 170 392 132 382 132 337 c 0
305 144 m 1
 305 142 l 1
 362 104 404 57 404 -4 c 0
 404 -73 344 -132 237 -132 c 0
 175 -132 90 -99 90 -30 c 0
 90 -12 105 33 152 33 c 0
 196 33 218 0 218 -22 c 0
 218 -45 203 -55 190 -63 c 0
 181 -69 172 -74 172 -80 c 0
 172 -86 179 -109 237 -109 c 0
 293 -109 319 -78 319 -40 c 0
 319 1 302 16 225 78 c 0
 103 181 57 213 57 291 c 0
 57 414 154 418 195 415 c 1
 197 417 l 1
 147 461 99 500 99 558 c 0
 99 641 166 691 242 691 c 0
 357 691 393 622 393 595 c 0
 393 543 345 528 330 528 c 0
 297 528 268 559 268 585 c 0
 268 600 278 612 288 621 c 0
 299 631 310 640 310 647 c 0
 310 654 288 668 242 668 c 0
 201 668 173 642 173 596 c 0
 173 507 443 426 443 262 c 0
 443 148 350 145 305 144 c 1
EndSplineSet
EndChar

StartChar: dieresis
Encoding: 200 168 102
Width: 333
Flags: HMW
HStem: 537 130<40 78.5 40 79.5 249 287.5>
LayerCount: 2
Fore
SplineSet
208 602 m 0
 208 627 228 667 270 667 c 0
 305 667 335 637 335 601 c 0
 335 566 307 537 270 537 c 0
 227 537 208 577 208 602 c 0
-2 602 m 0
 -2 627 19 667 61 667 c 0
 96 667 125 637 125 601 c 0
 125 566 98 537 61 537 c 0
 18 537 -2 577 -2 602 c 0
EndSplineSet
EndChar

StartChar: copyright
Encoding: 257 169 103
Width: 747
Flags: HMW
HStem: -19 52<295.5 452 295.5 473> 146 23 432 21G<508 527 508 508> 517 23 647 52
VStem: 35 71 221 102 505 19 650 71<253 417.5>
LayerCount: 2
Fore
SplineSet
525 256 m 1
 544 256 l 1
 528 182 l 2
 527 170 517 167 500 160 c 0
 481 156 450 142 403 142 c 0
 276 142 176 208 176 346 c 0
 176 431 233 544 400 544 c 0
 452 544 478 534 505 525 c 0
 521 520 527 513 527 504 c 2
 527 432 l 1
 508 432 l 1
 498 474 471 521 400 521 c 0
 318 521 279 446 278 346 c 0
 277 241 310 165 403 165 c 0
 463 165 502 205 525 256 c 1
97 335 m 0
 97 171 217 33 374 33 c 0
 530 33 650 171 650 335 c 0
 650 500 531 639 374 639 c 0
 217 639 97 500 97 335 c 0
26 335 m 0
 26 534 176 691 374 691 c 0
 572 691 721 534 721 335 c 0
 721 137 572 -19 374 -19 c 0
 176 -19 26 137 26 335 c 0
EndSplineSet
EndChar

StartChar: ordfeminine
Encoding: 227 170 104
Width: 300
Flags: HMW
HStem: 397 21G<56 79.5 207 244.5> 665 23<109 143.5>
VStem: -1 98<470 495> 12 85 172 96<465 552 552 552>
LayerCount: 2
Fore
SplineSet
172 465 m 1
 172 552 l 1
 161 549 97 531 97 479 c 0
 97 461 107 439 128 439 c 0
 150 439 165 455 172 465 c 1
175 438 m 1
 133 399 87 397 72 397 c 0
 40 397 -1 415 -1 464 c 0
 -1 526 83 550 173 573 c 1
 173 603 l 2
 173 633 166 665 121 665 c 0
 97 665 82 653 82 644 c 0
 82 631 102 626 102 607 c 0
 102 596 92 573 55 573 c 0
 48 573 12 573 12 614 c 0
 12 652 53 688 138 688 c 0
 210 688 268 663 268 606 c 2
 268 450 l 2
 268 446 274 426 291 443 c 1
 301 431 l 1
 283 411 259 397 230 397 c 0
 184 397 179 422 175 438 c 1
EndSplineSet
EndChar

StartChar: guillemotleft
Encoding: 171 171 105
Width: 500
Flags: HMW
HStem: 36 21G<260.5 269 457.5 466> 395 20G<260.5 269 456.5 465>
VStem: 219 254<47.5 229 47.5 229>
LayerCount: 2
Fore
SplineSet
219 225 m 1
 219 229 l 1
 422 393 l 2
 433 402 451 415 462 415 c 0
 468 415 473 411 473 401 c 0
 473 372 385 265 355 227 c 1
 382 186 473 84 473 54 c 0
 473 41 469 36 463 36 c 0
 452 36 435 50 425 59 c 2
 219 225 l 1
23 225 m 1
 23 229 l 1
 226 393 l 2
 237 402 255 415 266 415 c 0
 272 415 275 411 275 401 c 0
 275 372 189 265 159 227 c 1
 186 186 277 84 277 54 c 0
 277 40 272 36 266 36 c 0
 255 36 239 50 229 59 c 2
 23 225 l 1
EndSplineSet
EndChar

StartChar: logicalnot
Encoding: 258 172 106
Width: 570
Flags: HMW
HStem: 108 21G<468 537 468 468> 331 68<33 537 33 468>
VStem: 448 91 468 69<108 331 331 331>
LayerCount: 2
Fore
SplineSet
33 331 m 1
 33 399 l 1
 537 399 l 1
 537 108 l 1
 468 108 l 1
 468 331 l 1
 33 331 l 1
EndSplineSet
EndChar

StartChar: registered
Encoding: 259 174 107
Width: 747
Flags: HMW
HStem: -19 52<295.5 452 295.5 473> -19 190<207 379 207 473> 158 189 320 21G<333 370 333 333> 667 52
VStem: 26 71<253 417.5 253 434.5> 267 80 436 85 650 71<257 421.5>
LayerCount: 2
Fore
SplineSet
333 342 m 1
 368 342 l 2
 415 342 430 385 430 431 c 0
 430 490 405 510 369 510 c 2
 333 510 l 1
 333 342 l 1
207 153 m 1
 207 171 l 1
 254 174 253 178 253 215 c 2
 253 470 l 2
 253 508 254 512 207 514 c 1
 207 532 l 1
 400 532 l 2
 462 532 515 499 515 431 c 0
 515 384 483 347 435 331 c 1
 563 164 l 1
 563 153 l 1
 482 153 l 1
 485 153 423 239 370 320 c 1
 333 320 l 1
 333 215 l 2
 333 178 332 174 379 171 c 1
 379 153 l 1
 207 153 l 1
97 335 m 0
 97 171 217 33 374 33 c 0
 530 33 650 175 650 339 c 0
 650 504 531 639 374 639 c 0
 217 639 97 500 97 335 c 0
26 335 m 0
 26 534 176 691 374 691 c 0
 572 691 721 538 721 339 c 0
 721 141 572 -19 374 -19 c 0
 176 -19 26 137 26 335 c 0
EndSplineSet
EndChar

StartChar: macron
Encoding: 197 175 108
Width: 333
Flags: HMW
HStem: 565 72<1 331 1 331>
LayerCount: 2
Fore
SplineSet
1 565 m 1
 1 637 l 1
 331 637 l 1
 331 565 l 1
 1 565 l 1
EndSplineSet
EndChar

StartChar: degree
Encoding: 260 176 109
Width: 400
Flags: HMW
HStem: 402 36<171.5 228.5 171.5 240> 652 36<171.5 228.5>
VStem: 48 41 302 41<516.5 573.5>
LayerCount: 2
Fore
SplineSet
57 545 m 0
 57 625 120 688 200 688 c 0
 280 688 343 625 343 545 c 0
 343 465 280 402 200 402 c 0
 120 402 57 465 57 545 c 0
98 545 m 0
 98 488 143 438 200 438 c 0
 257 438 302 488 302 545 c 0
 302 602 257 652 200 652 c 0
 143 652 98 602 98 545 c 0
EndSplineSet
EndChar

StartChar: plusminus
Encoding: 261 177 110
Width: 570
Flags: HMW
HStem: 0 86 275 88 283 66<33 252 33 252 318 537> 486 20G<252 318 318 318>
VStem: 241 88 252 66<126 283 126 283 349 506>
LayerCount: 2
Fore
SplineSet
33 0 m 1
 33 66 l 1
 537 66 l 1
 537 0 l 1
 33 0 l 1
252 126 m 1
 252 283 l 1
 33 283 l 1
 33 349 l 1
 252 349 l 1
 252 506 l 1
 318 506 l 1
 318 349 l 1
 537 349 l 1
 537 283 l 1
 318 283 l 1
 318 126 l 1
 252 126 l 1
EndSplineSet
EndChar

StartChar: twosuperior
Encoding: 262 178 111
Width: 300
Flags: HMW
HStem: 275 80<99 191 191 225.5 99 270> 620 68<106 140>
VStem: 184 88<507.5 621.5>
LayerCount: 2
Fore
SplineSet
0 275 m 1
 0 289 l 1
 105 393 184 472 184 543 c 0
 184 560 173 620 107 620 c 0
 92 620 57 616 33 566 c 1
 9 566 l 1
 22 600 60 688 152 688 c 0
 192 688 272 667 272 576 c 0
 272 545 244 453 99 355 c 1
 191 355 l 2
 260 355 266 361 284 402 c 1
 300 402 l 1
 270 275 l 1
 0 275 l 1
EndSplineSet
EndChar

StartChar: threesuperior
Encoding: 263 179 112
Width: 300
Flags: HMW
HStem: 268 21G<96.5 159.5> 640 48<123.5 131>
VStem: 176 95<585 596.5> 222 75<383 409>
LayerCount: 2
Fore
SplineSet
92 490 m 1
 92 500 l 1
 123 509 176 524 176 579 c 0
 176 614 155 640 107 640 c 0
 69 640 46 605 36 590 c 1
 16 597 l 1
 35 635 85 688 162 688 c 0
 224 688 271 664 271 608 c 0
 271 562 245 546 217 531 c 1
 270 513 297 470 297 425 c 0
 297 341 218 268 101 268 c 0
 92 268 3 269 3 323 c 0
 3 343 22 357 43 363 c 1
 69 363 88 349 104 335 c 0
 121 320 136 304 157 304 c 0
 189 304 222 321 222 369 c 0
 222 449 141 474 92 490 c 1
EndSplineSet
EndChar

StartChar: acute
Encoding: 194 180 113
Width: 333
Flags: HMW
HStem: 528 21G<86 86 86 142> 693 20G<275 289>
LayerCount: 2
Fore
SplineSet
86 528 m 1
 223 685 l 2
 246 711 270 713 280 713 c 0
 298 713 324 705 324 669 c 0
 324 641 304 629 280 614 c 2
 142 528 l 1
 86 528 l 1
EndSplineSet
EndChar

StartChar: mu
Encoding: 264 181 114
Width: 556
Flags: HMW
HStem: -206 21G<76.5 121.5> 441 20G<66 205 205 205 336 475 475 475>
VStem: 33 128<-151 -116.5> 66 139<122 149 149 461> 336 139<102 461>
LayerCount: 2
Fore
SplineSet
129 18 m 1
 131 -2 135 -21 140 -39 c 0
 149 -71 161 -99 161 -128 c 0
 161 -174 142 -206 101 -206 c 0
 52 -206 33 -174 33 -128 c 0
 33 -105 43 -78 52 -39 c 0
 60 -6 66 35 66 88 c 2
 66 461 l 1
 205 461 l 1
 205 149 l 2
 205 95 236 75 264 75 c 0
 283 75 316 88 336 102 c 1
 336 461 l 1
 475 461 l 1
 475 101 l 2
 475 70 496 56 511 54 c 0
 519 53 527 55 536 60 c 1
 536 36 l 1
 504 7 481 -13 431 -13 c 0
 388 -13 350 0 329 39 c 1
 303 5 272 -13 233 -13 c 0
 187 -13 155 0 131 20 c 1
 129 18 l 1
EndSplineSet
EndChar

StartChar: paragraph
Encoding: 182 182 115
Width: 540
Flags: HMW
HStem: -213 21G<260 260 260 309 407 407 407 456> 624 38<309 407 309 309> 640 22<504 540>
VStem: 262 49 399 49
LayerCount: 2
Fore
SplineSet
260 -213 m 1
 260 210 l 1
 114 210 0 281 0 440 c 0
 0 626 140 662 254 662 c 2
 540 662 l 1
 540 640 l 1
 468 640 456 615 456 529 c 2
 456 -213 l 1
 407 -213 l 1
 407 624 l 1
 309 624 l 1
 309 -213 l 1
 260 -213 l 1
EndSplineSet
EndChar

StartChar: periodcentered
Encoding: 180 183 116
Width: 250
Flags: HMW
HStem: 248 169<101 148.5>
VStem: 41 169<308.5 354.5>
LayerCount: 2
Fore
SplineSet
41 332 m 0
 41 377 77 417 125 417 c 0
 172 417 210 378 210 332 c 0
 210 284 172 248 125 248 c 0
 77 248 41 285 41 332 c 0
EndSplineSet
EndChar

StartChar: cedilla
Encoding: 203 184 117
Width: 333
Flags: HMW
HStem: -218 21G<137 162> -20 20G<159 201 201 201>
VStem: 201 93<-156.5 -117.5>
LayerCount: 2
Fore
SplineSet
159 0 m 1
 201 0 l 1
 173 -64 l 1
 230 -47 294 -75 294 -136 c 0
 294 -217 181 -218 143 -218 c 0
 131 -218 109 -216 68 -200 c 1
 84 -163 l 1
 103 -170 119 -177 143 -177 c 0
 155 -177 201 -177 201 -136 c 0
 201 -99 155 -95 127 -104 c 1
 116 -96 l 1
 159 0 l 1
EndSplineSet
EndChar

StartChar: onesuperior
Encoding: 265 185 118
Width: 300
Flags: HMW
HStem: 275 30 355 30<30 30 241 273> 668 20G<192 203 203 203>
VStem: 107 96<445 576 576 583.5>
LayerCount: 2
Fore
SplineSet
30 355 m 1
 30 385 l 1
 105 384 107 407 107 445 c 2
 107 576 l 2
 107 591 107 617 82 617 c 0
 72 617 50 610 28 602 c 1
 28 623 l 1
 192 688 l 1
 203 688 l 1
 203 441 l 2
 203 401 209 385 273 385 c 1
 273 355 l 1
 30 355 l 1
EndSplineSet
EndChar

StartChar: ordmasculine
Encoding: 235 186 119
Width: 330
Flags: HMW
HStem: 397 20<143 187 143 209.5> 667 21<146 184>
VStem: 18 97<503.5 583.5> 214 98<503.5 583.5 502 588>
LayerCount: 2
Fore
SplineSet
18 542 m 0
 18 625 79 688 165 688 c 0
 251 688 312 625 312 542 c 0
 312 462 254 397 165 397 c 0
 76 397 18 462 18 542 c 0
115 542 m 0
 115 465 121 417 165 417 c 0
 209 417 214 465 214 542 c 0
 214 634 203 667 165 667 c 0
 127 667 115 634 115 542 c 0
EndSplineSet
EndChar

StartChar: guillemotright
Encoding: 187 187 120
Width: 500
Flags: HMW
HStem: 36 21G<36 45 232 240.5> 395 20G<35 43.5 231 239.5>
VStem: 145 136
LayerCount: 2
Fore
SplineSet
341 224 m 1
 314 265 223 367 223 397 c 0
 223 411 228 415 234 415 c 0
 245 415 261 401 271 392 c 2
 477 226 l 1
 477 222 l 1
 274 58 l 2
 264 50 246 36 235 36 c 0
 229 36 225 39 225 50 c 0
 225 79 311 186 341 224 c 1
145 224 m 1
 118 265 27 367 27 397 c 0
 27 411 32 415 38 415 c 0
 49 415 65 401 75 392 c 2
 281 226 l 1
 281 222 l 1
 78 58 l 2
 71 52 51 36 39 36 c 0
 33 36 27 40 27 50 c 0
 27 79 115 186 145 224 c 1
EndSplineSet
EndChar

StartChar: onequarter
Encoding: 266 188 121
Width: 750
Flags: HMW
HStem: -12 21G<174 174 174 232> 0 21G<608 702 608 608> 87 66<447 609 474 608 702 743> 275 30<28 28 241 273> 325 21G<607 609 607 607> 413 21G<650 702 702 702> 668 20G<192 203 203 203 615 671 671 671>
VStem: 107 96<365 576 576 583.5> 609 93<153 325 325 325>
LayerCount: 2
Fore
SplineSet
28 275 m 1
 28 305 l 1
 103 304 107 327 107 365 c 2
 107 576 l 2
 107 591 107 617 82 617 c 0
 72 617 50 610 28 602 c 1
 28 623 l 1
 192 688 l 1
 203 688 l 1
 203 361 l 2
 203 321 209 305 273 305 c 1
 273 275 l 1
 28 275 l 1
174 -12 m 1
 615 688 l 1
 671 688 l 1
 232 -12 l 1
 174 -12 l 1
474 155 m 1
 474 153 l 1
 609 153 l 1
 609 325 l 1
 607 325 l 1
 474 155 l 1
447 87 m 1
 447 154 l 1
 506 237 590 341 650 413 c 1
 702 413 l 1
 702 153 l 1
 743 153 l 1
 743 87 l 1
 702 87 l 1
 702 0 l 1
 608 0 l 1
 608 87 l 1
 447 87 l 1
EndSplineSet
EndChar

StartChar: onehalf
Encoding: 267 189 122
Width: 750
Flags: HMW
HStem: -12 21G<132 132 132 190> 0 80<580 656 656 690.5 580 745> 275 30<-7 -7 206 238> 345 68<581 615> 668 20G<157 168 168 168 573 629 629 629>
VStem: 72 96<365 576 576 583.5> 659 88<232.5 346.5>
LayerCount: 2
Fore
SplineSet
475 0 m 1
 475 14 l 1
 580 118 659 197 659 268 c 0
 659 285 648 345 582 345 c 0
 567 345 532 341 508 291 c 1
 484 291 l 1
 497 325 535 413 627 413 c 0
 667 413 747 392 747 301 c 0
 747 283 747 238 673 172 c 2
 580 85 l 1
 580 80 l 1
 656 80 l 2
 725 80 731 86 749 127 c 1
 775 127 l 1
 745 0 l 1
 475 0 l 1
-7 275 m 1
 -7 305 l 1
 68 304 72 327 72 365 c 2
 72 576 l 2
 72 591 72 617 47 617 c 0
 37 617 15 610 -7 602 c 1
 -7 623 l 1
 157 688 l 1
 168 688 l 1
 168 361 l 2
 168 321 174 305 238 305 c 1
 238 275 l 1
 -7 275 l 1
132 -12 m 1
 573 688 l 1
 629 688 l 1
 190 -12 l 1
 132 -12 l 1
EndSplineSet
EndChar

StartChar: threequarters
Encoding: 268 190 123
Width: 750
Flags: HMW
HStem: -12 21G<172 172 172 230> 87 66<437 599 464 598 692 733> 640 48<143.5 151>
VStem: 196 95<585 596.5> 242 75<383 409> 599 93<153 325 325 325>
LayerCount: 2
Fore
SplineSet
464 155 m 1
 464 153 l 1
 599 153 l 1
 599 325 l 1
 597 325 l 1
 464 155 l 1
437 87 m 1
 437 154 l 1
 494 240 580 341 640 413 c 1
 692 413 l 1
 692 153 l 1
 733 153 l 1
 733 87 l 1
 692 87 l 1
 692 0 l 1
 598 0 l 1
 598 87 l 1
 437 87 l 1
112 490 m 1
 112 500 l 1
 143 509 196 524 196 579 c 0
 196 614 175 640 127 640 c 0
 89 640 66 605 56 590 c 1
 36 597 l 1
 55 635 105 688 182 688 c 0
 244 688 291 664 291 608 c 0
 291 562 265 546 241 533 c 1
 241 529 l 1
 289 513 317 470 317 425 c 0
 317 341 238 268 121 268 c 0
 112 268 23 269 23 323 c 0
 23 343 42 357 63 363 c 1
 89 363 108 349 124 335 c 0
 141 320 156 304 177 304 c 0
 209 304 242 321 242 369 c 0
 242 449 161 474 112 490 c 1
172 -12 m 1
 613 688 l 1
 669 688 l 1
 230 -12 l 1
 172 -12 l 1
EndSplineSet
EndChar

StartChar: questiondown
Encoding: 191 191 124
Width: 500
Flags: HMW
HStem: -201 36<251 294.5 251 331> 335 166<238 285>
VStem: 55 149<-55 0 -55 6.5> 177 169<397.5 443.5 397.5 444> 312 131<-58.5 -40.5 -78.5 -19>
LayerCount: 2
Fore
SplineSet
177 420 m 0
 177 468 215 501 261 501 c 0
 309 501 346 467 346 420 c 0
 346 375 309 335 261 335 c 0
 215 335 177 374 177 420 c 0
247 257 m 1
 277 257 l 1
 294 192 269 157 246 114 c 0
 226 76 204 34 204 -34 c 0
 204 -76 212 -165 290 -165 c 0
 299 -165 349 -162 349 -125 c 0
 349 -112 341 -104 333 -95 c 0
 323 -84 312 -72 312 -45 c 0
 312 7 353 19 373 19 c 0
 424 19 443 -23 443 -58 c 0
 443 -99 413 -201 249 -201 c 0
 218 -201 55 -190 55 -31 c 0
 55 44 107 79 158 112 c 0
 211 147 261 180 247 257 c 1
EndSplineSet
EndChar

StartChar: Agrave
Encoding: 269 192 125
Width: 722
Flags: HMW
HStem: 0 35<9 9 9 212> 197 39<189 384 189 399 174 384> 670 20G<329 357 357 357> 903 20G<226 255.5>
LayerCount: 2
Fore
SplineSet
189 236 m 1
 384 236 l 1
 283 479 l 1
 189 236 l 1
9 0 m 1
 9 35 l 1
 63 43 66 48 78 78 c 2
 329 690 l 1
 357 690 l 1
 624 74 l 2
 637 43 641 33 689 35 c 1
 689 0 l 1
 365 0 l 1
 365 35 l 1
 427 40 445 41 445 74 c 0
 445 101 413 165 399 197 c 1
 174 197 l 1
 146 125 130 94 130 78 c 0
 130 40 178 37 212 35 c 1
 212 0 l 1
 9 0 l 1
378 738 m 1
 236 826 l 2
 211 841 196 856 196 879 c 0
 196 893 207 923 245 923 c 0
 266 923 286 908 297 895 c 2
 434 738 l 1
 378 738 l 1
EndSplineSet
EndChar

StartChar: Aacute
Encoding: 270 193 126
Width: 722
Flags: HMW
HStem: 0 35<9 9 9 212> 197 39<189 384 189 399 174 384> 670 20G<329 357 357 357> 903 20G<458 472>
LayerCount: 2
Fore
SplineSet
189 236 m 1
 384 236 l 1
 283 479 l 1
 189 236 l 1
9 0 m 1
 9 35 l 1
 63 43 66 48 78 78 c 2
 329 690 l 1
 357 690 l 1
 624 74 l 2
 637 43 641 33 689 35 c 1
 689 0 l 1
 365 0 l 1
 365 35 l 1
 427 40 445 41 445 74 c 0
 445 101 413 165 399 197 c 1
 174 197 l 1
 146 125 130 94 130 78 c 0
 130 40 178 37 212 35 c 1
 212 0 l 1
 9 0 l 1
274 738 m 1
 411 895 l 2
 434 921 453 923 463 923 c 0
 481 923 512 915 512 879 c 0
 512 851 496 841 472 826 c 2
 330 738 l 1
 274 738 l 1
EndSplineSet
EndChar

StartChar: Acircumflex
Encoding: 271 194 127
Width: 722
Flags: HMW
HStem: 0 35<9 9 9 212> 197 39<189 384 189 399 174 384> 670 20G<329 357 357 357> 894 20G<308 400 400 400>
LayerCount: 2
Fore
SplineSet
189 236 m 1
 384 236 l 1
 283 479 l 1
 189 236 l 1
9 0 m 1
 9 35 l 1
 63 43 66 48 78 78 c 2
 329 690 l 1
 357 690 l 1
 624 74 l 2
 637 43 641 33 689 35 c 1
 689 0 l 1
 365 0 l 1
 365 35 l 1
 427 40 445 41 445 74 c 0
 445 101 413 165 399 197 c 1
 174 197 l 1
 146 125 130 94 130 78 c 0
 130 40 178 37 212 35 c 1
 212 0 l 1
 9 0 l 1
186 738 m 1
 308 914 l 1
 400 914 l 1
 523 738 l 1
 466 738 l 1
 354 836 l 1
 242 738 l 1
 186 738 l 1
EndSplineSet
EndChar

StartChar: Atilde
Encoding: 272 195 128
Width: 722
Flags: HMW
HStem: 0 35<9 9 9 212> 197 39<189 384 189 399 174 384> 757 78<425 459.5 425 460.5> 824 78
LayerCount: 2
Fore
SplineSet
189 236 m 1
 384 236 l 1
 283 479 l 1
 189 236 l 1
9 0 m 1
 9 35 l 1
 63 43 66 48 78 78 c 2
 329 690 l 1
 357 690 l 1
 624 74 l 2
 637 43 641 33 689 35 c 1
 689 0 l 1
 365 0 l 1
 365 35 l 1
 427 40 445 41 445 74 c 0
 445 101 413 165 399 197 c 1
 174 197 l 1
 146 125 130 94 130 78 c 0
 130 40 178 37 212 35 c 1
 212 0 l 1
 9 0 l 1
172 759 m 1
 179 794 198 884 290 884 c 0
 324 884 346 870 369 857 c 0
 389 846 409 835 441 835 c 0
 478 835 488 867 494 884 c 1
 537 884 l 1
 528 849 505 757 416 757 c 0
 394 757 365 772 335 785 c 0
 311 796 285 806 263 806 c 0
 231 806 215 777 214 759 c 1
 172 759 l 1
EndSplineSet
EndChar

StartChar: Adieresis
Encoding: 273 196 129
Width: 722
Flags: HMW
HStem: 0 35<9 9 9 212> 197 39<189 384 189 399 174 384> 670 20G<329 357 357 357> 747 130<232 268 442 478>
VStem: 186 127<794 830> 313 83<794 830> 396 127<794 830>
CounterMasks: 1 0e
LayerCount: 2
Fore
SplineSet
189 236 m 1
 384 236 l 1
 283 479 l 1
 189 236 l 1
9 0 m 1
 9 35 l 1
 63 43 66 48 78 78 c 2
 329 690 l 1
 357 690 l 1
 624 74 l 2
 637 43 641 33 689 35 c 1
 689 0 l 1
 365 0 l 1
 365 35 l 1
 427 40 445 41 445 74 c 0
 445 101 413 165 399 197 c 1
 174 197 l 1
 146 125 130 94 130 78 c 0
 130 40 178 37 212 35 c 1
 212 0 l 1
 9 0 l 1
396 812 m 0
 396 848 424 877 460 877 c 0
 496 877 523 848 523 812 c 0
 523 776 496 747 460 747 c 0
 424 747 396 776 396 812 c 0
186 812 m 0
 186 848 214 877 250 877 c 0
 286 877 313 848 313 812 c 0
 313 776 286 747 250 747 c 0
 214 747 186 776 186 812 c 0
EndSplineSet
EndChar

StartChar: Aring
Encoding: 274 197 130
Width: 722
Flags: HMW
HStem: 0 35<9 9 9 212> 197 39<189 384 189 399 174 384> 675 20G 722 48<329.5 362.5 329.5 376> 899 48
VStem: 240 48<811.5 844.5 811.5 857.5> 288 117<811.5 844.5> 405 48<811.5 844.5>
CounterMasks: 1 07
LayerCount: 2
Fore
SplineSet
189 236 m 1
 384 236 l 1
 283 479 l 1
 189 236 l 1
9 0 m 1
 9 35 l 1
 63 43 66 48 78 78 c 2
 329 690 l 1
 357 690 l 1
 624 74 l 2
 637 43 641 33 689 35 c 1
 689 0 l 1
 365 0 l 1
 365 35 l 1
 427 40 445 41 445 74 c 0
 445 101 413 165 399 197 c 1
 174 197 l 1
 146 125 130 94 130 78 c 0
 130 40 178 37 212 35 c 1
 212 0 l 1
 9 0 l 1
288 828 m 0
 288 795 313 770 346 770 c 0
 379 770 405 795 405 828 c 0
 405 861 379 887 346 887 c 0
 313 887 288 861 288 828 c 0
240 828 m 0
 240 887 289 935 347 935 c 0
 405 935 453 886 453 828 c 0
 453 769 405 722 347 722 c 0
 289 722 240 768 240 828 c 0
EndSplineSet
EndChar

StartChar: AE
Encoding: 225 198 131
Width: 1000
Flags: HMW
HStem: 0 35<4 4 4 210> 0 44<631 714 631 910> 303 40<264 432 264 432 242 432> 331 32<592 592> 631 45<633 762>
VStem: 432 160<99 303 303 303 363 601>
LayerCount: 2
Fore
SplineSet
264 343 m 1
 432 343 l 1
 432 623 l 1
 425 623 l 1
 264 343 l 1
4 0 m 1
 4 35 l 1
 40 42 47 34 66 69 c 2
 362 605 l 1
 362 636 327 642 275 644 c 1
 275 676 l 1
 909 676 l 1
 909 475 l 1
 874 475 l 1
 855 565 850 631 674 631 c 0
 592 631 592 620 592 601 c 2
 592 363 l 1
 709 374 709 384 737 512 c 1
 770 512 l 1
 770 174 l 1
 737 174 l 1
 721 273 722 326 592 331 c 1
 592 98 l 2
 592 63 601 44 661 44 c 0
 767 44 808 54 853 96 c 0
 885 127 928 198 928 211 c 1
 951 211 l 1
 910 0 l 1
 344 0 l 1
 344 35 l 1
 418 38 432 60 432 99 c 2
 432 303 l 1
 242 303 l 1
 123 78 l 1
 123 45 160 41 210 35 c 1
 210 0 l 1
 4 0 l 1
EndSplineSet
EndChar

StartChar: Ccedilla
Encoding: 275 199 132
Width: 722
Flags: HMW
HStem: -218 21G<373 398> -59 42 -17 46<371 371> 454 21G<634 669 634 634> 658 33<330 420.5 298 460> 668 20G<632 669 669 669>
VStem: 49 177<269 416.5 269 433.5> 421 93<-156.5 -123.5>
LayerCount: 2
Fore
SplineSet
304 -163 m 1
 323 -170 339 -177 363 -177 c 0
 375 -177 421 -177 421 -136 c 0
 421 -111 401 -100 375 -100 c 0
 362 -100 355 -102 347 -104 c 1
 336 -96 l 1
 371 -17 l 1
 161 0 49 156 49 332 c 0
 49 535 193 691 403 691 c 0
 438 691 470 683 497 674 c 0
 539 660 570 642 586 642 c 0
 613 642 622 663 632 688 c 1
 669 688 l 1
 669 454 l 1
 634 454 l 1
 599 541 517 658 403 658 c 0
 257 658 226 501 226 332 c 0
 226 206 271 29 421 29 c 0
 499 29 574 59 657 152 c 1
 687 127 l 1
 615 45 538 -18 413 -19 c 1
 393 -64 l 1
 403 -61 411 -59 424 -59 c 0
 475 -59 514 -80 514 -129 c 0
 514 -210 417 -218 379 -218 c 0
 367 -218 329 -216 288 -200 c 1
 304 -163 l 1
EndSplineSet
EndChar

StartChar: Egrave
Encoding: 276 200 133
Width: 667
Flags: HMW
HStem: 0 31<317.5 399 317.5 601> 329 34<266 314 266 315.5> 475 21G<558 593 558 558> 512 21G<418 454 454 454> 642 34<311.5 406.5> 903 20G<212 241.5>
VStem: 104 162<87 329 363 580> 418 36<174 512 174 512>
LayerCount: 2
Fore
SplineSet
364 738 m 1
 222 826 l 2
 197 841 182 856 182 879 c 0
 182 893 193 923 231 923 c 0
 252 923 272 908 283 895 c 2
 420 738 l 1
 364 738 l 1
16 0 m 1
 16 35 l 1
 73 41 104 25 104 87 c 2
 104 580 l 2
 104 646 62 638 16 641 c 1
 16 676 l 1
 593 676 l 1
 593 475 l 1
 558 475 l 1
 535 617 474 642 339 642 c 0
 284 642 266 623 266 580 c 2
 266 363 l 1
 362 363 403 388 418 512 c 1
 454 512 l 1
 454 174 l 1
 418 174 l 1
 406 299 365 329 266 329 c 1
 266 87 l 2
 266 43 285 31 350 31 c 0
 448 31 550 57 613 208 c 1
 641 208 l 1
 601 0 l 1
 16 0 l 1
EndSplineSet
EndChar

StartChar: Eacute
Encoding: 277 201 134
Width: 667
Flags: HMW
HStem: 0 31<317.5 399 317.5 601> 329 34<266 314 266 315.5> 475 21G<558 593 558 558> 512 21G<418 454 454 454> 642 34<311.5 406.5> 903 20G<444 458>
VStem: 104 162<87 329 363 580> 418 36<174 512 174 512>
LayerCount: 2
Fore
SplineSet
16 0 m 1
 16 35 l 1
 73 41 104 25 104 87 c 2
 104 580 l 2
 104 646 62 638 16 641 c 1
 16 676 l 1
 593 676 l 1
 593 475 l 1
 558 475 l 1
 535 617 474 642 339 642 c 0
 284 642 266 623 266 580 c 2
 266 363 l 1
 362 363 403 388 418 512 c 1
 454 512 l 1
 454 174 l 1
 418 174 l 1
 406 299 365 329 266 329 c 1
 266 87 l 2
 266 43 285 31 350 31 c 0
 448 31 550 57 613 208 c 1
 641 208 l 1
 601 0 l 1
 16 0 l 1
260 738 m 1
 397 895 l 2
 420 921 439 923 449 923 c 0
 467 923 498 915 498 879 c 0
 498 851 482 841 458 826 c 2
 316 738 l 1
 260 738 l 1
EndSplineSet
EndChar

StartChar: Ecircumflex
Encoding: 278 202 135
Width: 667
Flags: HMW
HStem: 0 31<317.5 399 317.5 601> 329 34<266 314 266 315.5> 475 21G<558 593 558 558> 512 21G<418 454 454 454> 642 34<311.5 406.5> 894 20G<294 386 386 386>
VStem: 104 162<87 329 363 580> 418 36<174 512 174 512>
LayerCount: 2
Fore
SplineSet
16 0 m 1
 16 35 l 1
 73 41 104 25 104 87 c 2
 104 580 l 2
 104 646 62 638 16 641 c 1
 16 676 l 1
 593 676 l 1
 593 475 l 1
 558 475 l 1
 535 617 474 642 339 642 c 0
 284 642 266 623 266 580 c 2
 266 363 l 1
 362 363 403 388 418 512 c 1
 454 512 l 1
 454 174 l 1
 418 174 l 1
 406 299 365 329 266 329 c 1
 266 87 l 2
 266 43 285 31 350 31 c 0
 448 31 550 57 613 208 c 1
 641 208 l 1
 601 0 l 1
 16 0 l 1
172 738 m 1
 294 914 l 1
 386 914 l 1
 509 738 l 1
 452 738 l 1
 340 836 l 1
 228 738 l 1
 172 738 l 1
EndSplineSet
EndChar

StartChar: Edieresis
Encoding: 279 203 136
Width: 667
Flags: HMW
HStem: 0 31<317.5 399 317.5 601> 329 34<266 314 266 315.5> 642 34<311.5 406.5> 747 130<218 254 427 463>
VStem: 104 162<87 329 363 580> 171 130<794 830> 380 130<794 830> 418 36<174 512 174 512>
LayerCount: 2
Fore
SplineSet
380 812 m 0
 380 848 409 877 445 877 c 0
 481 877 510 848 510 812 c 0
 510 776 481 747 445 747 c 0
 409 747 380 776 380 812 c 0
171 812 m 0
 171 848 200 877 236 877 c 0
 272 877 301 848 301 812 c 0
 301 776 272 747 236 747 c 0
 200 747 171 776 171 812 c 0
16 0 m 1
 16 35 l 1
 73 41 104 25 104 87 c 2
 104 580 l 2
 104 646 62 638 16 641 c 1
 16 676 l 1
 593 676 l 1
 593 475 l 1
 558 475 l 1
 535 617 474 642 339 642 c 0
 284 642 266 623 266 580 c 2
 266 363 l 1
 362 363 403 388 418 512 c 1
 454 512 l 1
 454 174 l 1
 418 174 l 1
 406 299 365 329 266 329 c 1
 266 87 l 2
 266 43 285 31 350 31 c 0
 448 31 550 57 613 208 c 1
 641 208 l 1
 601 0 l 1
 16 0 l 1
EndSplineSet
EndChar

StartChar: Igrave
Encoding: 280 204 137
Width: 389
Flags: HMW
HStem: 0 35<20 20 20 370> 641 35<20 370 20 370> 903 20G<66 95.5>
VStem: 113 162<106 570>
LayerCount: 2
Fore
SplineSet
218 738 m 1
 76 826 l 2
 51 841 36 856 36 879 c 0
 36 893 47 923 85 923 c 0
 106 923 126 908 137 895 c 2
 274 738 l 1
 218 738 l 1
20 0 m 1
 20 35 l 1
 74 40 113 44 113 106 c 2
 113 570 l 2
 113 636 66 638 20 641 c 1
 20 676 l 1
 370 676 l 1
 370 641 l 1
 323 639 275 638 275 570 c 2
 275 106 l 2
 275 42 315 39 370 35 c 1
 370 0 l 1
 20 0 l 1
EndSplineSet
EndChar

StartChar: Iacute
Encoding: 281 205 138
Width: 389
Flags: HMW
HStem: 0 35<20 20 20 370> 641 35<20 370 20 370> 903 20G<298 312>
VStem: 113 162<106 570>
LayerCount: 2
Fore
SplineSet
114 738 m 1
 251 895 l 2
 274 921 293 923 303 923 c 0
 321 923 352 915 352 879 c 0
 352 851 336 841 312 826 c 2
 170 738 l 1
 114 738 l 1
20 0 m 1
 20 35 l 1
 74 40 113 44 113 106 c 2
 113 570 l 2
 113 636 66 638 20 641 c 1
 20 676 l 1
 370 676 l 1
 370 641 l 1
 323 639 275 638 275 570 c 2
 275 106 l 2
 275 42 315 39 370 35 c 1
 370 0 l 1
 20 0 l 1
EndSplineSet
EndChar

StartChar: Icircumflex
Encoding: 282 206 139
Width: 389
Flags: HMW
HStem: 0 35<20 20 20 370> 641 35<20 370 20 370> 894 20G<148 240 240 240>
VStem: 113 162<106 570>
LayerCount: 2
Fore
SplineSet
26 738 m 1
 148 914 l 1
 240 914 l 1
 363 738 l 1
 306 738 l 1
 194 836 l 1
 82 738 l 1
 26 738 l 1
20 0 m 1
 20 35 l 1
 74 40 113 44 113 106 c 2
 113 570 l 2
 113 636 66 638 20 641 c 1
 20 676 l 1
 370 676 l 1
 370 641 l 1
 323 639 275 638 275 570 c 2
 275 106 l 2
 275 42 315 39 370 35 c 1
 370 0 l 1
 20 0 l 1
EndSplineSet
EndChar

StartChar: Idieresis
Encoding: 283 207 140
Width: 389
Flags: HMW
HStem: 0 35<20 20 20 370> 641 35<20 370 20 370> 747 130<71 107 281 317>
VStem: 20 134<641 830 676 830> 113 162<106 570> 234 130<794 830>
LayerCount: 2
Fore
SplineSet
234 812 m 0
 234 848 263 877 299 877 c 0
 335 877 364 848 364 812 c 0
 364 776 335 747 299 747 c 0
 263 747 234 776 234 812 c 0
24 812 m 0
 24 848 53 877 89 877 c 0
 125 877 154 848 154 812 c 0
 154 776 125 747 89 747 c 0
 53 747 24 776 24 812 c 0
20 0 m 1
 20 35 l 1
 74 40 113 44 113 106 c 2
 113 570 l 2
 113 636 66 638 20 641 c 1
 20 676 l 1
 370 676 l 1
 370 641 l 1
 323 639 275 638 275 570 c 2
 275 106 l 2
 275 42 315 39 370 35 c 1
 370 0 l 1
 20 0 l 1
EndSplineSet
EndChar

StartChar: Eth
Encoding: 284 208 141
Width: 722
Flags: HMW
HStem: 0 35<14 45.5 14 45.5 292 330> 326 47<6 97 6 97 259 373> 642 34<289 319 319 407>
VStem: 97 162<91 326 373 584> 516 174<246 383.5>
LayerCount: 2
Fore
SplineSet
14 0 m 1
 14 35 l 1
 77 35 97 54 97 91 c 2
 97 326 l 1
 6 326 l 1
 6 373 l 1
 97 373 l 1
 97 584 l 2
 97 645 53 641 14 641 c 1
 14 676 l 1
 319 676 l 2
 599 676 690 492 690 338 c 0
 690 154 582 0 330 0 c 2
 14 0 l 1
259 326 m 1
 259 91 l 2
 259 51 268 35 316 35 c 0
 428 35 516 99 516 338 c 0
 516 429 493 642 321 642 c 0
 257 642 258 606 259 584 c 2
 259 373 l 1
 373 373 l 1
 373 326 l 1
 259 326 l 1
EndSplineSet
EndChar

StartChar: Ntilde
Encoding: 285 209 142
Width: 722
Flags: HMW
HStem: -18 21G<595 623 595 595> 641 35<486 486 701 701> 757 78<436.5 466.5 436.5 467.5>
VStem: 103 44 579 44<249 552 -18 582>
LayerCount: 2
Fore
SplineSet
179 759 m 1
 186 794 205 884 297 884 c 0
 330 884 356 873 379 861 c 0
 404 848 425 835 448 835 c 0
 485 835 495 867 501 884 c 1
 544 884 l 1
 535 849 512 757 423 757 c 0
 392 757 368 772 343 785 c 0
 322 796 299 806 270 806 c 0
 238 806 222 777 221 759 c 1
 179 759 l 1
16 0 m 1
 16 35 l 1
 76 42 104 49 104 115 c 2
 104 579 l 1
 48 648 32 651 19 651 c 1
 19 676 l 1
 230 676 l 1
 577 249 l 1
 579 249 l 1
 579 552 l 2
 579 612 567 635 486 641 c 1
 486 676 l 1
 701 676 l 1
 701 641 l 1
 629 632 623 600 623 552 c 2
 623 -18 l 1
 595 -18 l 1
 150 524 l 1
 148 524 l 1
 148 115 l 2
 148 43 169 43 243 35 c 1
 243 0 l 1
 16 0 l 1
EndSplineSet
EndChar

StartChar: Ograve
Encoding: 286 210 143
Width: 778
Flags: HMW
HStem: -19 33<303.5 474.5 303.5 491.5> 658 33<319 459> 903 20G<261 290.5>
VStem: 35 177<297.5 414 297.5 450> 566 177<288.5 405>
LayerCount: 2
Fore
SplineSet
413 738 m 1
 271 826 l 2
 246 841 231 856 231 879 c 0
 231 893 242 923 280 923 c 0
 301 923 321 908 332 895 c 2
 469 738 l 1
 413 738 l 1
35 341 m 0
 35 559 196 691 389 691 c 0
 582 691 743 550 743 332 c 0
 743 122 594 -19 389 -19 c 0
 184 -19 35 131 35 341 c 0
212 341 m 0
 212 254 218 14 389 14 c 0
 560 14 566 245 566 332 c 0
 566 478 529 658 389 658 c 0
 249 658 212 487 212 341 c 0
EndSplineSet
EndChar

StartChar: Oacute
Encoding: 287 211 144
Width: 778
Flags: HMW
HStem: -19 33<303.5 474.5 303.5 491.5> 658 33<319 459> 903 20G<493 507>
VStem: 35 177<292.5 409 292.5 445> 566 177<292.5 409>
LayerCount: 2
Fore
SplineSet
309 738 m 1
 446 895 l 2
 469 921 488 923 498 923 c 0
 516 923 547 915 547 879 c 0
 547 851 531 841 507 826 c 2
 365 738 l 1
 309 738 l 1
35 336 m 0
 35 554 196 691 389 691 c 0
 582 691 743 554 743 336 c 0
 743 126 594 -19 389 -19 c 0
 184 -19 35 126 35 336 c 0
212 336 m 0
 212 249 218 14 389 14 c 0
 560 14 566 249 566 336 c 0
 566 482 529 658 389 658 c 0
 249 658 212 482 212 336 c 0
EndSplineSet
EndChar

StartChar: Ocircumflex
Encoding: 288 212 145
Width: 778
Flags: HMW
HStem: -19 33<303.5 474.5 303.5 491.5> 658 33<319 459>
VStem: 35 177<297.5 414 297.5 450> 566 177<287.5 404>
LayerCount: 2
Fore
SplineSet
221 738 m 1
 343 914 l 1
 435 914 l 1
 558 738 l 1
 501 738 l 1
 389 836 l 1
 277 738 l 1
 221 738 l 1
35 341 m 0
 35 559 196 691 389 691 c 0
 582 691 743 549 743 331 c 0
 743 121 594 -19 389 -19 c 0
 184 -19 35 131 35 341 c 0
212 341 m 0
 212 254 218 14 389 14 c 0
 560 14 566 244 566 331 c 0
 566 477 529 658 389 658 c 0
 249 658 212 487 212 341 c 0
EndSplineSet
EndChar

StartChar: Otilde
Encoding: 289 213 146
Width: 778
Flags: HMW
HStem: -19 33<303.5 474.5 303.5 491.5> 658 33<319 459> 757 78<459 488.5 459 489.5> 806 78<276 307>
VStem: 35 177<298.5 415 298.5 451> 566 177<287.5 404>
LayerCount: 2
Fore
SplineSet
201 759 m 1
 208 794 227 884 319 884 c 0
 353 884 380 872 403 860 c 0
 427 848 448 835 470 835 c 0
 507 835 517 867 523 884 c 1
 566 884 l 1
 557 849 534 757 445 757 c 0
 414 757 391 771 366 784 c 0
 344 795 322 806 292 806 c 0
 260 806 244 777 243 759 c 1
 201 759 l 1
35 342 m 0
 35 560 196 691 389 691 c 0
 582 691 743 549 743 331 c 0
 743 121 594 -19 389 -19 c 0
 184 -19 35 132 35 342 c 0
212 342 m 0
 212 255 218 14 389 14 c 0
 560 14 566 244 566 331 c 0
 566 477 529 658 389 658 c 0
 249 658 212 488 212 342 c 0
EndSplineSet
EndChar

StartChar: Odieresis
Encoding: 290 214 147
Width: 778
Flags: HMW
HStem: -19 33<303.5 474.5 303.5 491.5> 658 33<319 459> 747 130<267 303 476 512>
VStem: 35 177<292.5 409 292.5 445> 221 128<794 830> 430 128<794 830> 566 177<292.5 409>
LayerCount: 2
Fore
SplineSet
430 812 m 0
 430 848 458 877 494 877 c 0
 530 877 558 848 558 812 c 0
 558 776 530 747 494 747 c 0
 458 747 430 776 430 812 c 0
221 812 m 0
 221 848 249 877 285 877 c 0
 321 877 349 848 349 812 c 0
 349 776 321 747 285 747 c 0
 249 747 221 776 221 812 c 0
35 336 m 0
 35 554 196 691 389 691 c 0
 582 691 743 554 743 336 c 0
 743 126 594 -19 389 -19 c 0
 184 -19 35 126 35 336 c 0
212 336 m 0
 212 249 218 14 389 14 c 0
 560 14 566 249 566 336 c 0
 566 482 529 658 389 658 c 0
 249 658 212 482 212 336 c 0
EndSplineSet
EndChar

StartChar: multiply
Encoding: 291 215 148
Width: 570
Flags: HMW
HStem: 16 21G<93 93 477 477> 470 20G<96 96 474 474>
LayerCount: 2
Fore
SplineSet
48 63 m 1
 239 253 l 1
 48 445 l 1
 96 490 l 1
 285 300 l 1
 474 490 l 1
 522 446 l 1
 330 253 l 1
 522 64 l 1
 477 16 l 1
 285 210 l 1
 93 16 l 1
 48 63 l 1
EndSplineSet
EndChar

StartChar: Oslash
Encoding: 233 216 149
Width: 778
Flags: HMW
HStem: -74 21G<81 81 81 131> -19 33<354.5 474.5 354.5 491.5> 658 33<319 420.5> 717 20G<635 685 685 685>
VStem: 35 177<321 415 321 451> 566 177<286.5 361.5>
LayerCount: 2
Fore
SplineSet
253 104 m 1
 278 52 320 14 389 14 c 0
 560 14 566 243 566 330 c 0
 566 393 559 468 540 524 c 1
 253 104 l 1
234 151 m 1
 520 569 l 1
 493 623 452 658 389 658 c 0
 249 658 212 488 212 342 c 0
 212 300 213 219 234 151 c 1
81 -74 m 1
 167 52 l 1
 85 115 35 221 35 342 c 0
 35 560 196 691 389 691 c 0
 456 691 519 675 572 644 c 1
 635 737 l 1
 685 737 l 1
 607 622 l 1
 689 561 743 456 743 330 c 0
 743 120 594 -19 389 -19 c 0
 318 -19 255 -2 202 30 c 1
 131 -74 l 1
 81 -74 l 1
EndSplineSet
EndChar

StartChar: Ugrave
Encoding: 292 217 150
Width: 722
Flags: HMW
HStem: -19 49<322 471> 641 35<16 354 16 354> 903 20G<260 289.5>
VStem: 98 159<225 562> 579 44<225 562>
LayerCount: 2
Fore
SplineSet
412 738 m 1
 270 826 l 2
 245 841 230 856 230 879 c 0
 230 893 241 923 279 923 c 0
 300 923 320 908 331 895 c 2
 468 738 l 1
 412 738 l 1
16 641 m 1
 16 676 l 1
 354 676 l 1
 354 641 l 1
 288 638 257 650 257 562 c 2
 257 225 l 2
 257 168 246 30 390 30 c 0
 566 30 579 161 579 225 c 2
 579 562 l 2
 579 623 567 637 481 641 c 1
 481 676 l 1
 701 676 l 1
 701 641 l 1
 646 633 623 628 623 562 c 2
 623 225 l 2
 623 63 552 -19 390 -19 c 0
 254 -19 98 40 98 225 c 2
 98 562 l 2
 98 646 72 635 16 641 c 1
EndSplineSet
EndChar

StartChar: Uacute
Encoding: 293 218 151
Width: 722
Flags: HMW
HStem: -19 49<322 471> 641 35<16 354 16 354> 903 20G<492 506>
VStem: 98 159<225 562> 579 44<225 562>
LayerCount: 2
Fore
SplineSet
16 641 m 1
 16 676 l 1
 354 676 l 1
 354 641 l 1
 288 638 257 650 257 562 c 2
 257 225 l 2
 257 168 246 30 390 30 c 0
 566 30 579 161 579 225 c 2
 579 562 l 2
 579 623 567 637 481 641 c 1
 481 676 l 1
 701 676 l 1
 701 641 l 1
 646 633 623 628 623 562 c 2
 623 225 l 2
 623 63 552 -19 390 -19 c 0
 254 -19 98 40 98 225 c 2
 98 562 l 2
 98 646 72 635 16 641 c 1
308 738 m 1
 445 895 l 2
 468 921 487 923 497 923 c 0
 515 923 546 915 546 879 c 0
 546 851 530 841 506 826 c 2
 364 738 l 1
 308 738 l 1
EndSplineSet
EndChar

StartChar: Ucircumflex
Encoding: 294 219 152
Width: 722
Flags: HMW
HStem: -19 49<322 471> 641 35<16 354 16 354> 894 20G<342 434 434 434>
VStem: 98 159<225 562> 579 44<225 562>
LayerCount: 2
Fore
SplineSet
16 641 m 1
 16 676 l 1
 354 676 l 1
 354 641 l 1
 288 638 257 650 257 562 c 2
 257 225 l 2
 257 168 246 30 390 30 c 0
 566 30 579 161 579 225 c 2
 579 562 l 2
 579 623 567 637 481 641 c 1
 481 676 l 1
 701 676 l 1
 701 641 l 1
 646 633 623 628 623 562 c 2
 623 225 l 2
 623 63 552 -19 390 -19 c 0
 254 -19 98 40 98 225 c 2
 98 562 l 2
 98 646 72 635 16 641 c 1
220 738 m 1
 342 914 l 1
 434 914 l 1
 557 738 l 1
 500 738 l 1
 388 836 l 1
 276 738 l 1
 220 738 l 1
EndSplineSet
EndChar

StartChar: Udieresis
Encoding: 295 220 153
Width: 722
Flags: HMW
HStem: -19 49<322 471> 641 35<16 354 16 354> 747 130<265 301 476 512>
VStem: 98 159<225 562> 218 130<794 830> 409 130 556 44
LayerCount: 2
Fore
SplineSet
429 812 m 0
 429 848 458 877 494 877 c 0
 530 877 559 848 559 812 c 0
 559 776 530 747 494 747 c 0
 458 747 429 776 429 812 c 0
218 812 m 0
 218 848 247 877 283 877 c 0
 319 877 348 848 348 812 c 0
 348 776 319 747 283 747 c 0
 247 747 218 776 218 812 c 0
16 641 m 1
 16 676 l 1
 354 676 l 1
 354 641 l 1
 288 638 257 650 257 562 c 2
 257 225 l 2
 257 168 246 30 390 30 c 0
 566 30 579 161 579 225 c 2
 579 562 l 2
 579 623 567 637 481 641 c 1
 481 676 l 1
 701 676 l 1
 701 641 l 1
 646 633 623 628 623 562 c 2
 623 225 l 2
 623 63 552 -19 390 -19 c 0
 254 -19 98 40 98 225 c 2
 98 562 l 2
 98 646 72 635 16 641 c 1
EndSplineSet
EndChar

StartChar: Yacute
Encoding: 296 221 154
Width: 722
Flags: HMW
HStem: 0 35<185 185 185 532> 641 35<15 350 315.5 350> 908 20G<480 494>
VStem: 278 162<117 264 264 264>
LayerCount: 2
Fore
SplineSet
296 743 m 1
 433 900 l 2
 456 926 475 928 485 928 c 0
 503 928 534 920 534 884 c 0
 534 856 518 846 494 831 c 2
 352 743 l 1
 296 743 l 1
185 0 m 1
 185 35 l 1
 254 42 278 34 278 117 c 2
 278 264 l 1
 95 586 l 2
 90 595 66 638 15 641 c 1
 15 676 l 1
 350 676 l 1
 350 641 l 1
 281 641 269 635 269 607 c 0
 269 592 285 567 413 329 c 1
 571 597 l 1
 571 636 526 638 479 641 c 1
 479 676 l 1
 699 676 l 1
 699 641 l 1
 680 638 651 634 631 602 c 2
 440 301 l 1
 440 117 l 2
 440 34 462 42 532 35 c 1
 532 0 l 1
 185 0 l 1
EndSplineSet
EndChar

StartChar: Thorn
Encoding: 297 222 155
Width: 611
Flags: HMW
HStem: -17 21G 0 21G<16 16 16 350> 173 35<262 322.5> 194 35 503 35<293 328 328 351> 503 173<293 350 16 351> 507 165 656 20G<16 350 350 350>
VStem: 100 162<117 173 76.5 208 208 468 538 550> 116 162 427 172 428 172<297 404 289.5 416>
LayerCount: 2
Fore
SplineSet
16 0 m 1
 16 35 l 1
 73 46 100 27 100 117 c 2
 100 551 l 2
 100 635 69 636 16 641 c 1
 16 676 l 1
 350 676 l 1
 350 641 l 1
 281 631 262 631 262 550 c 2
 262 538 l 1
 328 538 l 2
 557 538 600 446 600 362 c 0
 600 217 430 172 262 173 c 1
 262 117 l 2
 262 36 281 44 350 35 c 1
 350 0 l 1
 16 0 l 1
262 208 m 1
 383 208 428 235 428 359 c 0
 428 473 392 503 310 503 c 0
 276 503 263 490 262 468 c 2
 262 208 l 1
EndSplineSet
EndChar

StartChar: germandbls
Encoding: 251 223 156
Width: 556
Flags: HMW
HStem: -12 35 -6 126<286 348> 0 21G<19 209 209 209> 373 34<269 269> 663 28<241 288.5>
VStem: 70 139<71.5 97 97 507> 339 137<500 567 500 589> 371 146<174 245.5 147.5 267>
LayerCount: 2
Fore
SplineSet
19 0 m 1
 209 0 l 1
 209 586 l 2
 210 611 214 663 268 663 c 0
 309 663 339 638 339 540 c 0
 339 456 344 413 269 407 c 1
 269 373 l 1
 335 370 371 344 371 190 c 0
 371 158 369 130 375 106 c 0
 388 58 391 33 366 28 c 0
 354 28 343 31 343 45 c 0
 343 55 346 61 346 73 c 0
 346 95 334 120 300 120 c 0
 272 120 252 101 252 72 c 0
 252 51 260 35 272 22 c 0
 290 3 319 -6 348 -6 c 2
 377 -4 l 2
 391 -3 405 4 417 12 c 0
 469 47 517 105 517 190 c 0
 517 301 457 357 323 392 c 1
 323 394 l 1
 412 411 476 460 476 540 c 0
 476 594 425 691 268 691 c 0
 152 691 70 612 70 507 c 2
 70 97 l 2
 70 46 56 40 19 34 c 1
 19 0 l 1
EndSplineSet
EndChar

StartChar: agrave
Encoding: 298 224 157
Width: 500
Flags: HMW
HStem: -14 21G<111 147 343 400.5> 281 192<104 281.5> 441 32<208 263>
VStem: 25 146<108.5 145> 293 138<100 245 245 245>
LayerCount: 2
Fore
SplineSet
267 528 m 1
 125 616 l 2
 100 631 85 646 85 669 c 0
 85 683 96 713 134 713 c 0
 155 713 175 698 186 685 c 2
 323 528 l 1
 267 528 l 1
293 100 m 1
 293 245 l 1
 270 240 171 211 171 124 c 0
 171 93 186 57 222 57 c 0
 256 57 279 84 293 100 c 1
294 56 m 1
 229 -9 159 -14 135 -14 c 0
 87 -14 25 17 25 93 c 0
 25 197 152 237 294 280 c 1
 294 336 l 2
 294 387 300 441 226 441 c 0
 190 441 147 421 147 405 c 0
 147 396 152 389 159 381 c 0
 167 371 177 359 177 337 c 0
 177 319 162 281 110 281 c 0
 98 281 44 281 44 349 c 0
 44 412 102 473 226 473 c 0
 337 473 431 430 431 336 c 2
 431 75 l 2
 431 71 442 33 473 64 c 1
 488 43 l 1
 460 10 423 -14 378 -14 c 0
 308 -14 300 28 294 56 c 1
EndSplineSet
EndChar

StartChar: aacute
Encoding: 299 225 158
Width: 500
Flags: HMW
HStem: -14 21G<111 147 343 400.5> 281 192<104 281.5> 441 32<208 263> 528 21G<163 163 163 219> 693 20G<347 361>
VStem: 25 146<108.5 145> 293 138<100 245 245 245>
LayerCount: 2
Fore
SplineSet
293 100 m 1
 293 245 l 1
 270 240 171 211 171 124 c 0
 171 93 186 57 222 57 c 0
 256 57 279 84 293 100 c 1
294 56 m 1
 229 -9 159 -14 135 -14 c 0
 87 -14 25 17 25 93 c 0
 25 197 152 237 294 280 c 1
 294 336 l 2
 294 387 300 441 226 441 c 0
 190 441 147 421 147 405 c 0
 147 396 153 389 159 381 c 0
 167 371 177 359 177 337 c 0
 177 319 162 281 110 281 c 0
 98 281 44 281 44 349 c 0
 44 412 102 473 226 473 c 0
 337 473 431 430 431 336 c 2
 431 75 l 2
 431 71 442 33 473 64 c 1
 488 43 l 1
 460 10 423 -14 378 -14 c 0
 308 -14 300 28 294 56 c 1
163 528 m 1
 300 685 l 2
 323 711 342 713 352 713 c 0
 370 713 401 705 401 669 c 0
 401 641 385 631 361 616 c 2
 219 528 l 1
 163 528 l 1
EndSplineSet
EndChar

StartChar: acircumflex
Encoding: 300 226 159
Width: 500
Flags: HMW
HStem: -14 21G<111 147 343 400.5> 281 192<104 281.5> 441 32<208 263> 684 20G<197 289 289 289>
VStem: 25 146<108.5 145> 293 138<100 245 245 245>
LayerCount: 2
Fore
SplineSet
293 100 m 1
 293 245 l 1
 270 240 171 211 171 124 c 0
 171 93 186 57 222 57 c 0
 256 57 279 84 293 100 c 1
294 56 m 1
 229 -9 159 -14 135 -14 c 0
 87 -14 25 17 25 93 c 0
 25 197 152 237 294 280 c 1
 294 336 l 2
 294 387 300 441 226 441 c 0
 190 441 147 421 147 405 c 0
 147 396 152 390 158 383 c 0
 167 372 177 360 177 337 c 0
 177 319 162 281 110 281 c 0
 98 281 44 281 44 349 c 0
 44 412 102 473 226 473 c 0
 337 473 431 430 431 336 c 2
 431 75 l 2
 431 71 442 33 473 64 c 1
 488 43 l 1
 460 10 423 -14 378 -14 c 0
 308 -14 300 28 294 56 c 1
75 528 m 1
 197 704 l 1
 289 704 l 1
 412 528 l 1
 355 528 l 1
 243 626 l 1
 131 528 l 1
 75 528 l 1
EndSplineSet
EndChar

StartChar: atilde
Encoding: 301 227 160
Width: 500
Flags: HMW
HStem: -14 21G<111 147 343 400.5> 281 192<104 281.5> 441 32<208 263> 547 78<317 348.5 317 349.5> 596 78<136 166>
VStem: 25 146<108.5 145> 293 138<100 245 245 245>
LayerCount: 2
Fore
SplineSet
293 100 m 1
 293 245 l 1
 270 240 171 211 171 124 c 0
 171 93 186 57 222 57 c 0
 256 57 279 84 293 100 c 1
294 56 m 1
 229 -9 159 -14 135 -14 c 0
 87 -14 25 17 25 93 c 0
 25 197 152 237 294 280 c 1
 294 336 l 2
 294 387 300 441 226 441 c 0
 190 441 147 421 147 405 c 0
 147 396 152 390 158 383 c 0
 167 373 177 360 177 337 c 0
 177 319 162 281 110 281 c 0
 98 281 44 281 44 349 c 0
 44 412 102 473 226 473 c 0
 337 473 431 430 431 336 c 2
 431 75 l 2
 431 71 442 33 473 64 c 1
 488 43 l 1
 460 10 423 -14 378 -14 c 0
 308 -14 300 28 294 56 c 1
61 549 m 1
 68 584 87 674 179 674 c 0
 205 674 230 661 256 648 c 0
 280 636 304 625 330 625 c 0
 367 625 377 657 383 674 c 1
 426 674 l 1
 417 639 394 547 305 547 c 0
 279 547 253 562 225 576 c 0
 203 587 180 596 152 596 c 0
 120 596 104 567 103 549 c 1
 61 549 l 1
EndSplineSet
EndChar

StartChar: adieresis
Encoding: 302 228 161
Width: 500
Flags: HMW
HStem: -14 21G<111 147 343 400.5> 281 192<104 281.5> 441 32<208 263> 537 130<117 155.5 117 156.5 326 364.5>
VStem: 25 146<108.5 145> 293 138<100 245 245 245>
LayerCount: 2
Fore
SplineSet
293 100 m 1
 293 245 l 1
 270 240 171 211 171 124 c 0
 171 93 186 57 222 57 c 0
 256 57 279 84 293 100 c 1
294 56 m 1
 229 -9 159 -14 135 -14 c 0
 87 -14 25 17 25 93 c 0
 25 197 152 237 294 280 c 1
 294 336 l 2
 294 387 300 441 226 441 c 0
 190 441 147 421 147 405 c 0
 147 396 152 389 158 382 c 0
 166 372 177 360 177 337 c 0
 177 319 162 281 110 281 c 0
 98 281 44 281 44 349 c 0
 44 412 102 473 226 473 c 0
 337 473 431 430 431 336 c 2
 431 75 l 2
 431 71 442 33 473 64 c 1
 488 43 l 1
 460 10 423 -14 378 -14 c 0
 308 -14 300 28 294 56 c 1
285 602 m 0
 285 627 305 667 347 667 c 0
 382 667 412 637 412 601 c 0
 412 566 384 537 347 537 c 0
 304 537 285 577 285 602 c 0
75 602 m 0
 75 627 96 667 138 667 c 0
 173 667 202 637 202 601 c 0
 202 566 175 537 138 537 c 0
 95 537 75 577 75 602 c 0
EndSplineSet
EndChar

StartChar: aring
Encoding: 303 229 162
Width: 500
Flags: HMW
HStem: -14 21G<111 147 343 400.5> 281 192<104 281.5> 527 48<227 259 227 273> 527 164<227 259 227 273> 575 116<227 259> 691 49<227 259>
VStem: 25 146<108.5 145> 137 164<617 649 617 662.5> 185 165<617 649>
LayerCount: 2
Fore
SplineSet
185 633 m 0
 185 601 211 575 243 575 c 0
 275 575 301 601 301 633 c 0
 301 665 275 691 243 691 c 0
 211 691 185 665 185 633 c 0
293 100 m 1
 293 245 l 1
 270 240 171 211 171 124 c 0
 171 93 186 57 222 57 c 0
 256 57 279 84 293 100 c 1
294 56 m 1
 229 -9 159 -14 135 -14 c 0
 87 -14 25 17 25 93 c 0
 25 197 152 237 294 280 c 1
 294 336 l 2
 294 387 300 441 226 441 c 0
 190 441 147 421 147 405 c 0
 147 396 153 389 159 381 c 0
 167 371 177 359 177 337 c 0
 177 319 162 281 110 281 c 0
 98 281 44 281 44 349 c 0
 44 412 102 473 226 473 c 0
 337 473 431 430 431 336 c 2
 431 75 l 2
 431 71 442 33 473 64 c 1
 488 43 l 1
 460 10 423 -14 378 -14 c 0
 308 -14 300 28 294 56 c 1
137 633 m 0
 137 692 186 740 244 740 c 0
 302 740 350 691 350 633 c 0
 350 574 302 527 244 527 c 0
 186 527 137 573 137 633 c 0
EndSplineSet
EndChar

StartChar: ae
Encoding: 241 230 163
Width: 722
Flags: HMW
HStem: -14 63<114 239.5> -14 70<489.5 530.5> 248 37<434 571 434 692 434 571> 284 189<99.5 267> 441 32<203.5 258>
VStem: 33 149 50 132<326 353 322 382> 296 138<202 225 225 248 202 248 285 317 202 360 202 374.5> 571 121<248 318 248 362.5>
LayerCount: 2
Fore
SplineSet
434 285 m 1
 571 285 l 1
 571 318 l 2
 571 407 554 443 502 443 c 0
 434 443 434 349 434 285 c 1
296 81 m 1
 296 248 l 1
 241 229 177 201 177 121 c 0
 177 93 185 49 230 49 c 0
 249 49 267 50 296 81 c 1
337 75 m 1
 331 69 l 2
 297 35 238 -14 152 -14 c 0
 76 -14 33 22 33 91 c 0
 33 195 119 223 296 280 c 1
 296 360 l 2
 296 389 298 441 218 441 c 0
 189 441 153 429 153 407 c 0
 153 395 160 389 167 382 c 0
 174 374 182 364 182 342 c 0
 182 302 159 284 114 284 c 0
 85 284 50 304 50 348 c 0
 50 416 118 473 218 473 c 0
 316 473 353 443 374 422 c 1
 400 449 438 473 502 473 c 0
 584 473 693 421 692 248 c 1
 434 248 l 1
 434 225 l 2
 434 179 434 56 545 56 c 0
 618 56 652 103 672 128 c 1
 693 113 l 1
 639 24 572 -14 489 -14 c 0
 452 -14 384 -9 337 75 c 1
EndSplineSet
EndChar

StartChar: ccedilla
Encoding: 304 231 164
Width: 444
Flags: HMW
HStem: -218 21G<197 222> -11 64<214 333.5> 300 173<210 352> 442 31<218 264.5>
VStem: 25 141<204 296.5 204 313.5> 261 93<-156.5 -117.5> 293 124
LayerCount: 2
Fore
SplineSet
176 -96 m 1
 214 -11 l 1
 100 0 25 100 25 215 c 0
 25 412 163 473 257 473 c 0
 328 473 416 436 416 364 c 0
 416 300 356 300 348 300 c 0
 292 300 292 349 292 403 c 0
 292 433 272 442 257 442 c 0
 179 442 166 319 166 274 c 0
 166 134 227 53 305 53 c 0
 362 53 388 82 412 109 c 1
 430 91 l 1
 387 30 327 -9 255 -13 c 1
 233 -64 l 1
 288 -49 354 -76 354 -136 c 0
 354 -215 241 -218 203 -218 c 0
 191 -218 169 -216 128 -200 c 1
 144 -163 l 1
 163 -170 179 -177 203 -177 c 0
 215 -177 261 -177 261 -136 c 0
 261 -99 215 -95 187 -104 c 1
 176 -96 l 1
EndSplineSet
EndChar

StartChar: egrave
Encoding: 305 232 165
Width: 444
Flags: HMW
HStem: -14 72<241.5 268> 245 37<169 169 169 305 164 421> 442 31<216.5 275> 693 20G<100 129.5>
VStem: 25 139<282 305>
LayerCount: 2
Fore
SplineSet
252 528 m 1
 110 616 l 2
 85 631 70 646 70 669 c 0
 70 683 81 713 119 713 c 0
 140 713 160 698 171 685 c 2
 308 528 l 1
 252 528 l 1
169 245 m 1
 172 160 194 58 289 58 c 0
 348 58 383 102 402 125 c 1
 426 111 l 1
 365 18 308 -14 228 -14 c 0
 127 -14 25 60 25 231 c 0
 25 379 116 473 231 473 c 0
 405 473 418 299 421 245 c 1
 169 245 l 1
164 282 m 1
 305 282 l 1
 296 330 315 442 235 442 c 0
 198 442 164 420 164 282 c 1
EndSplineSet
EndChar

StartChar: eacute
Encoding: 306 233 166
Width: 444
Flags: HMW
HStem: -14 72<241.5 268> 245 37<169 169 169 312 164 426> 442 31<216.5 275> 693 20G<332 346>
VStem: 25 139<282 305>
LayerCount: 2
Fore
SplineSet
148 528 m 1
 285 685 l 2
 308 711 327 713 337 713 c 0
 355 713 386 705 386 669 c 0
 386 641 370 631 346 616 c 2
 204 528 l 1
 148 528 l 1
169 245 m 1
 172 160 194 58 289 58 c 0
 348 58 383 102 402 125 c 1
 426 111 l 1
 365 18 308 -14 228 -14 c 0
 127 -14 25 60 25 231 c 0
 25 379 116 473 231 473 c 0
 405 473 426 299 426 245 c 1
 169 245 l 1
164 282 m 1
 312 282 l 1
 310 325 315 442 235 442 c 0
 198 442 164 420 164 282 c 1
EndSplineSet
EndChar

StartChar: ecircumflex
Encoding: 307 234 167
Width: 444
Flags: HMW
HStem: -14 72<241.5 268> 245 37<169 169 169 313 164 426> 442 31<216.5 275> 528 21G<60 60 60 116 340 340 340 397> 684 20G<182 274 274 274>
VStem: 25 139<282 305>
LayerCount: 2
Fore
SplineSet
60 528 m 1
 182 704 l 1
 274 704 l 1
 397 528 l 1
 340 528 l 1
 228 626 l 1
 116 528 l 1
 60 528 l 1
169 245 m 1
 172 160 194 58 289 58 c 0
 348 58 383 102 402 125 c 1
 426 111 l 1
 365 18 308 -14 228 -14 c 0
 127 -14 25 60 25 231 c 0
 25 379 116 473 231 473 c 0
 405 473 426 299 426 245 c 1
 169 245 l 1
164 282 m 1
 313 282 l 1
 306 330 315 442 235 442 c 0
 198 442 164 420 164 282 c 1
EndSplineSet
EndChar

StartChar: edieresis
Encoding: 308 235 168
Width: 444
Flags: HMW
HStem: -14 72<241.5 268> 245 37<169 169 169 308 164 421> 442 31<216.5 275> 537 130<105 141 315 351>
VStem: 25 139<282 305> 58 130<584 620> 268 130<584 620>
LayerCount: 2
Fore
SplineSet
268 602 m 0
 268 638 297 667 333 667 c 0
 369 667 398 638 398 602 c 0
 398 566 369 537 333 537 c 0
 297 537 268 566 268 602 c 0
58 602 m 0
 58 638 87 667 123 667 c 0
 159 667 188 638 188 602 c 0
 188 566 159 537 123 537 c 0
 87 537 58 566 58 602 c 0
169 245 m 1
 172 160 194 58 289 58 c 0
 348 58 383 102 402 125 c 1
 426 111 l 1
 365 18 308 -14 228 -14 c 0
 127 -14 25 60 25 231 c 0
 25 379 116 473 231 473 c 0
 405 473 418 299 421 245 c 1
 169 245 l 1
164 282 m 1
 308 282 l 1
 301 330 315 442 235 442 c 0
 198 442 164 420 164 282 c 1
EndSplineSet
EndChar

StartChar: igrave
Encoding: 309 236 169
Width: 278
Flags: HMW
HStem: 0 21G<16 16 16 255> 441 20G<16 208 208 208> 528 21G<155 155 155 211> 693 20G<3 32.5>
VStem: 69 139<94 368 368 390.5>
LayerCount: 2
Fore
SplineSet
155 528 m 1
 13 616 l 2
 -12 631 -26 646 -26 669 c 0
 -26 683 -16 713 22 713 c 0
 43 713 63 698 74 685 c 2
 211 528 l 1
 155 528 l 1
16 0 m 1
 16 34 l 1
 52 43 69 46 69 94 c 2
 69 368 l 2
 69 413 54 420 16 427 c 1
 16 461 l 1
 208 461 l 1
 208 91 l 2
 208 60 216 38 255 34 c 1
 255 0 l 1
 16 0 l 1
EndSplineSet
EndChar

StartChar: iacute
Encoding: 310 237 170
Width: 278
Flags: HMW
HStem: 0 21G<16 16 16 255> 441 20G<16 208 208 208> 528 21G<51 51 51 107> 693 20G<235 249>
VStem: 69 139<91 368 368 390.5>
LayerCount: 2
Fore
SplineSet
51 528 m 1
 188 685 l 2
 211 711 230 713 240 713 c 0
 258 713 290 705 290 669 c 0
 290 641 273 631 249 616 c 2
 107 528 l 1
 51 528 l 1
16 0 m 1
 16 34 l 1
 52 43 69 43 69 91 c 2
 69 368 l 2
 69 413 54 420 16 427 c 1
 16 461 l 1
 208 461 l 1
 208 91 l 2
 208 60 216 38 255 34 c 1
 255 0 l 1
 16 0 l 1
EndSplineSet
EndChar

StartChar: icircumflex
Encoding: 311 238 171
Width: 278
Flags: HMW
HStem: 0 21G<16 16 16 255> 441 20G<16 208 208 208> 528 21G<-36 -36 -36 20 244 244 244 301> 684 20G<85 177 177 177>
VStem: 69 139<91 368 368 390.5>
LayerCount: 2
Fore
SplineSet
16 0 m 1
 16 34 l 1
 52 43 69 43 69 91 c 2
 69 368 l 2
 69 413 54 420 16 427 c 1
 16 461 l 1
 208 461 l 1
 208 91 l 2
 208 60 216 38 255 34 c 1
 255 0 l 1
 16 0 l 1
-36 528 m 1
 85 704 l 1
 177 704 l 1
 301 528 l 1
 244 528 l 1
 131 626 l 1
 20 528 l 1
 -36 528 l 1
EndSplineSet
EndChar

StartChar: idieresis
Encoding: 312 239 172
Width: 278
Flags: HMW
HStem: 0 21G<16 16 16 255> 537 130<10 46 220 256>
VStem: -36 127<585 621> 69 139<91 368 368 390.5> 174 127<585 621>
LayerCount: 2
Fore
SplineSet
174 603 m 0
 174 639 202 667 238 667 c 0
 274 667 301 639 301 603 c 0
 301 567 274 537 238 537 c 0
 202 537 174 567 174 603 c 0
-36 603 m 0
 -36 639 -8 667 28 667 c 0
 64 667 91 639 91 603 c 0
 91 567 64 537 28 537 c 0
 -8 537 -36 567 -36 603 c 0
16 0 m 1
 16 34 l 1
 52 43 69 43 69 91 c 2
 69 368 l 2
 69 413 54 420 16 427 c 1
 16 461 l 1
 208 461 l 1
 208 91 l 2
 208 60 216 38 255 34 c 1
 255 0 l 1
 16 0 l 1
EndSplineSet
EndChar

StartChar: eth
Encoding: 313 240 173
Width: 500
Flags: HMW
HStem: -14 31<212 286.5 212 319> 442 31<214 267.5 181.5 281.5> 671 20G<128 128 378 378>
VStem: 25 147<185 296 185 303.5> 329 147<175.5 316> 340 147
LayerCount: 2
Fore
SplineSet
340 432 m 1
 342 435 l 1
 324 490 294 537 256 574 c 1
 146 518 l 1
 98 549 l 1
 215 608 l 1
 173 639 127 658 82 666 c 1
 128 691 l 1
 176 687 234 674 288 645 c 1
 378 691 l 1
 427 661 l 1
 335 614 l 1
 415 555 476 401 476 239 c 0
 476 93 387 -14 251 -14 c 0
 112 -14 25 109 25 239 c 0
 25 368 112 473 251 473 c 0
 284 473 316 464 340 432 c 1
172 239 m 0
 172 131 172 17 252 17 c 0
 321 17 329 112 329 239 c 0
 329 393 312 442 251 442 c 0
 177 442 172 353 172 239 c 0
EndSplineSet
EndChar

StartChar: ntilde
Encoding: 314 241 174
Width: 556
Flags: HMW
HStem: 0 34<21 21 21 262> 406 67<313.5 323> 547 78<350 383.5 350 384.5> 596 78<171 200.5>
VStem: 74 139<91 348> 351 139<91 323>
LayerCount: 2
Fore
SplineSet
96 549 m 1
 103 584 122 674 214 674 c 0
 244 674 265 657 293 643 c 0
 312 633 335 625 365 625 c 0
 402 625 412 657 418 674 c 1
 461 674 l 1
 452 639 429 547 340 547 c 0
 315 547 289 561 262 574 c 0
 238 585 214 596 187 596 c 0
 155 596 139 567 138 549 c 1
 96 549 l 1
21 0 m 1
 21 34 l 1
 57 41 74 42 74 91 c 2
 74 368 l 2
 74 413 61 421 21 427 c 1
 21 461 l 1
 212 461 l 1
 212 389 l 1
 214 389 l 1
 228 413 271 473 356 473 c 0
 411 473 490 433 490 323 c 2
 490 91 l 2
 490 67 490 36 539 34 c 1
 539 0 l 1
 304 0 l 1
 304 34 l 1
 337 37 351 54 351 91 c 2
 351 323 l 2
 351 351 350 406 296 406 c 0
 256 406 213 357 213 348 c 2
 213 91 l 2
 213 68 216 39 262 34 c 1
 262 0 l 1
 21 0 l 1
EndSplineSet
EndChar

StartChar: ograve
Encoding: 315 242 175
Width: 500
Flags: HMW
HStem: -14 31<212 286.5 212 319> 442 31<214 281.5> 528 21G<274 274 274 330> 693 20G<122 146.5>
VStem: 25 147<198 294.5> 329 147<180.5 300.5 164.5 321>
LayerCount: 2
Fore
SplineSet
274 528 m 1
 143 608 l 2
 118 624 92 646 92 669 c 0
 92 683 103 713 141 713 c 0
 152 713 167 712 198 681 c 0
 225 654 264 604 330 528 c 1
 274 528 l 1
25 230 m 0
 25 359 112 473 251 473 c 0
 382 473 476 370 476 231 c 0
 476 98 387 -14 251 -14 c 0
 112 -14 25 100 25 230 c 0
172 252 m 0
 172 144 172 17 252 17 c 0
 321 17 329 117 329 244 c 0
 329 398 312 442 251 442 c 0
 177 442 172 366 172 252 c 0
EndSplineSet
EndChar

StartChar: oacute
Encoding: 316 243 176
Width: 500
Flags: HMW
HStem: -14 31<212 286.5 212 319> 442 31<214 281.5> 528 21G<172 172 172 228> 693 20G<356 370>
VStem: 25 147<175 286 175 293.5> 329 147<165.5 298.5 162.5 306>
LayerCount: 2
Fore
SplineSet
172 528 m 1
 309 685 l 2
 332 711 351 713 361 713 c 0
 379 713 410 705 410 669 c 0
 410 641 394 631 370 616 c 2
 228 528 l 1
 172 528 l 1
25 229 m 0
 25 358 112 473 251 473 c 0
 382 473 476 368 476 229 c 0
 476 96 387 -14 251 -14 c 0
 112 -14 25 99 25 229 c 0
172 229 m 0
 172 121 172 17 252 17 c 0
 321 17 329 102 329 229 c 0
 329 383 312 442 251 442 c 0
 177 442 172 343 172 229 c 0
EndSplineSet
EndChar

StartChar: ocircumflex
Encoding: 317 244 177
Width: 500
Flags: HMW
HStem: -14 31<212 286.5 212 319> 442 31<214 281.5> 528 21G<82 82 82 138 362 362 362 419> 684 20G<204 296 296 296>
VStem: 25 147<175 286 175 293.5> 329 147<165.5 298.5 162.5 306>
LayerCount: 2
Fore
SplineSet
82 528 m 1
 204 704 l 1
 296 704 l 1
 419 528 l 1
 362 528 l 1
 250 630 l 1
 138 528 l 1
 82 528 l 1
25 229 m 0
 25 358 112 473 251 473 c 0
 382 473 476 368 476 229 c 0
 476 96 387 -14 251 -14 c 0
 112 -14 25 99 25 229 c 0
172 229 m 0
 172 121 172 17 252 17 c 0
 321 17 329 102 329 229 c 0
 329 383 312 442 251 442 c 0
 177 442 172 343 172 229 c 0
EndSplineSet
EndChar

StartChar: otilde
Encoding: 318 245 178
Width: 500
Flags: HMW
HStem: -14 31<212 286.5 212 319> 442 31<214 281.5> 547 78<331.5 365.5 331.5 366.5> 596 78<153 183>
VStem: 25 147<175 286 175 293.5> 329 147<165.5 298.5 162.5 306>
LayerCount: 2
Fore
SplineSet
78 549 m 1
 85 584 104 674 196 674 c 0
 225 674 246 657 274 643 c 0
 293 633 316 625 347 625 c 0
 384 625 394 657 400 674 c 1
 443 674 l 1
 434 639 411 547 322 547 c 0
 298 547 274 560 249 572 c 0
 224 584 197 596 169 596 c 0
 137 596 121 567 120 549 c 1
 78 549 l 1
25 229 m 0
 25 358 112 473 251 473 c 0
 382 473 476 368 476 229 c 0
 476 96 387 -14 251 -14 c 0
 112 -14 25 99 25 229 c 0
172 229 m 0
 172 121 172 17 252 17 c 0
 321 17 329 102 329 229 c 0
 329 383 312 442 251 442 c 0
 177 442 172 343 172 229 c 0
EndSplineSet
EndChar

StartChar: odieresis
Encoding: 319 246 179
Width: 500
Flags: HMW
HStem: -14 31<212 286.5 212 319> 442 31<214 281.5> 538 129<127 163 337 373>
VStem: 25 147<175 286 175 293.5> 81 129<584 620> 291 129<584 620> 329 147<165.5 298.5 162.5 306>
LayerCount: 2
Fore
SplineSet
291 602 m 0
 291 638 319 667 355 667 c 0
 391 667 420 638 420 602 c 0
 420 566 391 538 355 538 c 0
 319 538 291 566 291 602 c 0
81 602 m 0
 81 638 109 667 145 667 c 0
 181 667 210 638 210 602 c 0
 210 566 181 538 145 538 c 0
 109 538 81 566 81 602 c 0
25 229 m 0
 25 358 112 473 251 473 c 0
 382 473 476 368 476 229 c 0
 476 96 387 -14 251 -14 c 0
 112 -14 25 99 25 229 c 0
172 229 m 0
 172 121 172 17 252 17 c 0
 321 17 329 102 329 229 c 0
 329 383 312 442 251 442 c 0
 177 442 172 343 172 229 c 0
EndSplineSet
EndChar

StartChar: divide
Encoding: 320 247 180
Width: 570
Flags: HMW
HStem: -31 100<271 299> -31 150 209 87 221 64<34 537 34 537> 385 152 437 100<271 299>
VStem: 209 153 235 100<5 33 473 501>
LayerCount: 2
Fore
SplineSet
235 487 m 0
 235 515 257 537 285 537 c 0
 313 537 335 515 335 487 c 0
 335 459 313 437 285 437 c 0
 257 437 235 459 235 487 c 0
235 19 m 0
 235 47 257 69 285 69 c 0
 313 69 335 47 335 19 c 0
 335 -9 313 -31 285 -31 c 0
 257 -31 235 -9 235 19 c 0
34 221 m 1
 34 285 l 1
 537 285 l 1
 537 221 l 1
 34 221 l 1
EndSplineSet
EndChar

StartChar: oslash
Encoding: 249 248 181
Width: 500
Flags: HMW
HStem: -92 21G<34 34 34 81> -14 31<232.5 286.5 232.5 319> 321 21G<325 327 325 325> 442 31<214 268> 529 20G<415 461 461 461>
VStem: 23 147 25 147<209 281 209 288.5> 329 147<160.5 242>
LayerCount: 2
Fore
SplineSet
183 80 m 1
 193 41 213 17 252 17 c 0
 321 17 329 97 329 224 c 0
 329 260 328 296 327 321 c 1
 325 321 l 1
 183 80 l 1
34 -92 m 1
 110 36 l 1
 56 81 25 147 25 224 c 0
 25 353 112 473 251 473 c 0
 290 473 326 464 355 448 c 1
 415 549 l 1
 461 549 l 1
 388 426 l 1
 442 383 476 307 476 224 c 0
 476 91 387 -14 251 -14 c 0
 211 -14 174 -4 144 13 c 1
 81 -92 l 1
 34 -92 l 1
173 143 m 1
 175 143 l 1
 316 382 l 1
 305 423 285 442 251 442 c 0
 177 442 172 338 172 224 c 0
 172 194 172 169 173 143 c 1
EndSplineSet
EndChar

StartChar: ugrave
Encoding: 321 249 182
Width: 556
Flags: HMW
HStem: -14 65<232.5 234.5 232.5 343> 441 20G<16 204 204 204 280 481 481 481> 528 21G<295 295 295 351> 693 20G<143 172.5>
VStem: 65 139<122 368 368 388> 342 139<95 101 101 368 368 395.5>
LayerCount: 2
Fore
SplineSet
295 528 m 1
 153 616 l 2
 128 631 113 646 113 669 c 0
 113 683 124 713 162 713 c 0
 183 713 203 698 214 685 c 2
 351 528 l 1
 295 528 l 1
343 52 m 1
 314 27 268 -14 201 -14 c 0
 99 -14 65 51 65 122 c 2
 65 368 l 2
 65 408 57 420 16 427 c 1
 16 461 l 1
 204 461 l 1
 204 122 l 2
 204 94 205 51 260 51 c 0
 298 51 323 76 342 95 c 1
 342 368 l 2
 342 423 314 424 280 427 c 1
 280 461 l 1
 481 461 l 1
 481 101 l 2
 481 62 492 44 537 43 c 1
 537 20 l 1
 414 7 400 5 343 -14 c 1
 343 52 l 1
EndSplineSet
EndChar

StartChar: uacute
Encoding: 322 250 183
Width: 556
Flags: HMW
HStem: -14 65<232.5 234.5> 441 20G<16 204 204 204 280 481 481 481> 528 21G<191 191 191 247> 693 20G<375 389>
VStem: 65 139<122 368 368 388> 342 139<95 101 101 368 368 395.5>
LayerCount: 2
Fore
SplineSet
191 528 m 1
 328 685 l 2
 351 711 370 713 380 713 c 0
 398 713 429 705 429 669 c 0
 429 641 413 631 389 616 c 2
 247 528 l 1
 191 528 l 1
343 52 m 1
 314 27 268 -14 201 -14 c 0
 99 -14 65 51 65 122 c 2
 65 368 l 2
 65 408 57 423 16 430 c 1
 16 461 l 1
 204 461 l 1
 204 122 l 2
 204 94 205 51 260 51 c 0
 298 51 323 76 342 95 c 1
 342 368 l 2
 342 423 314 424 280 427 c 1
 280 461 l 1
 481 461 l 1
 481 101 l 2
 481 62 492 44 537 43 c 1
 537 20 l 1
 414 7 400 6 343 -13 c 1
 343 52 l 1
EndSplineSet
EndChar

StartChar: ucircumflex
Encoding: 323 251 184
Width: 556
Flags: HMW
HStem: -14 65<232.5 234.5> 441 20G<16 204 204 204 280 481 481 481> 528 21G<103 103 103 159 383 383 383 440> 684 20G<225 317 317 317>
VStem: 65 139<122 368 368 388> 342 139<95 101 101 368 368 395.5>
LayerCount: 2
Fore
SplineSet
103 528 m 1
 225 704 l 1
 317 704 l 1
 440 528 l 1
 383 528 l 1
 271 626 l 1
 159 528 l 1
 103 528 l 1
343 52 m 1
 314 27 268 -14 201 -14 c 0
 99 -14 65 51 65 122 c 2
 65 368 l 2
 65 408 57 420 16 427 c 1
 16 461 l 1
 204 461 l 1
 204 122 l 2
 204 94 205 51 260 51 c 0
 298 51 323 76 342 95 c 1
 342 368 l 2
 342 423 314 424 280 427 c 1
 280 461 l 1
 481 461 l 1
 481 101 l 2
 481 62 492 44 537 43 c 1
 537 20 l 1
 414 7 400 6 343 -13 c 1
 343 52 l 1
EndSplineSet
EndChar

StartChar: udieresis
Encoding: 324 252 185
Width: 556
Flags: HMW
HStem: -14 65<232.5 234.5> 537 130<148 184 358 394>
VStem: 65 139<122 368 368 388> 103 127<584 620> 313 127<584 620> 342 139<95 101 101 368 368 395.5>
LayerCount: 2
Fore
SplineSet
313 602 m 0
 313 638 340 667 376 667 c 0
 412 667 440 638 440 602 c 0
 440 566 412 537 376 537 c 0
 340 537 313 566 313 602 c 0
103 602 m 0
 103 638 130 667 166 667 c 0
 202 667 230 638 230 602 c 0
 230 566 202 537 166 537 c 0
 130 537 103 566 103 602 c 0
343 52 m 1
 314 27 268 -14 201 -14 c 0
 99 -14 65 51 65 122 c 2
 65 368 l 2
 65 408 57 420 16 427 c 1
 16 461 l 1
 204 461 l 1
 204 122 l 2
 204 94 205 51 260 51 c 0
 298 51 323 76 342 95 c 1
 342 368 l 2
 342 423 314 424 280 427 c 1
 280 461 l 1
 481 461 l 1
 481 101 l 2
 481 62 492 44 537 43 c 1
 537 20 l 1
 414 7 400 6 343 -13 c 1
 343 52 l 1
EndSplineSet
EndChar

StartChar: yacute
Encoding: 325 253 186
Width: 500
Flags: HMW
HStem: -205 143<75.5 104.5 52 155> 441 20G<16 266 266 266 329 480 480 480> 528 21G<170 170 170 226> 693 20G<354 368>
VStem: 16 122<-143 -104> 16 464<427 461 427 461> 329 151<427 461 427 461>
LayerCount: 2
Fore
SplineSet
170 528 m 1
 307 685 l 2
 330 711 349 713 359 713 c 0
 377 713 408 705 408 669 c 0
 408 641 392 631 368 616 c 2
 226 528 l 1
 170 528 l 1
236 -13 m 1
 58 400 l 2
 46 423 41 423 16 427 c 1
 16 461 l 1
 266 461 l 1
 266 427 l 1
 240 425 213 424 213 400 c 0
 213 390 224 374 305 167 c 1
 384 394 l 1
 384 426 354 426 329 427 c 1
 329 461 l 1
 480 461 l 1
 480 427 l 1
 458 424 441 422 422 372 c 2
 273 -15 l 2
 223 -148 202 -205 108 -205 c 0
 43 -205 16 -159 16 -127 c 0
 16 -113 22 -62 82 -62 c 0
 127 -62 138 -95 138 -113 c 0
 138 -122 135 -127 135 -131 c 0
 135 -136 140 -148 152 -148 c 0
 186 -148 211 -88 236 -13 c 1
EndSplineSet
EndChar

StartChar: thorn
Encoding: 326 254 187
Width: 556
Flags: HMW
HStem: -205 21G<19 292 19 19> -13 55<304 332 277 383> 395 21G 416 57<301 334.5> 656 20G<20 214 214 214>
VStem: 75 139<-113 47 103 346 395 584 584 607.5> 376 148<205 275>
LayerCount: 2
Fore
SplineSet
19 -171 m 1
 65 -164 75 -154 75 -113 c 2
 75 584 l 2
 75 631 56 635 20 642 c 1
 20 676 l 1
 214 676 l 1
 214 395 l 1
 216 395 l 1
 231 428 261 473 341 473 c 0
 425 473 524 395 524 233 c 0
 524 68 434 -13 332 -13 c 0
 276 -13 248 14 214 47 c 1
 214 -113 l 2
 214 -164 245 -172 292 -174 c 1
 292 -205 l 1
 19 -205 l 1
 19 -171 l 1
214 103 m 1
 230 63 263 42 291 42 c 0
 373 42 376 177 376 233 c 0
 376 317 371 416 298 416 c 0
 253 416 214 360 214 346 c 2
 214 103 l 1
EndSplineSet
EndChar

StartChar: ydieresis
Encoding: 327 255 188
Width: 500
Flags: HMW
HStem: -205 143<75.5 104.5 52 155> 538 129<127 163 337 373>
VStem: 16 194<427 620 461 620> 81 129<584 620> 291 129<584 620>
LayerCount: 2
Fore
SplineSet
291 602 m 0
 291 638 319 667 355 667 c 0
 391 667 420 638 420 602 c 0
 420 566 391 538 355 538 c 0
 319 538 291 566 291 602 c 0
81 602 m 0
 81 638 109 667 145 667 c 0
 181 667 210 638 210 602 c 0
 210 566 181 538 145 538 c 0
 109 538 81 566 81 602 c 0
236 -13 m 1
 58 400 l 2
 46 423 41 423 16 427 c 1
 16 461 l 1
 266 461 l 1
 266 427 l 1
 240 425 213 424 213 400 c 0
 213 390 224 374 305 167 c 1
 384 394 l 1
 384 426 354 426 329 427 c 1
 329 461 l 1
 480 461 l 1
 480 427 l 1
 458 424 441 422 422 372 c 2
 273 -15 l 2
 223 -148 202 -205 108 -205 c 0
 43 -205 16 -159 16 -127 c 0
 16 -113 22 -62 82 -62 c 0
 127 -62 138 -95 138 -113 c 0
 138 -122 135 -127 135 -131 c 0
 135 -136 140 -148 152 -148 c 0
 186 -148 211 -88 236 -13 c 1
EndSplineSet
EndChar

StartChar: dotlessi
Encoding: 245 305 189
Width: 278
Flags: HMW
HStem: 0 21G<16 16 16 255> 441 20G<16 208 208 208>
VStem: 69 139<91 368 368 390.5>
LayerCount: 2
Fore
SplineSet
16 0 m 1
 16 34 l 1
 52 43 69 43 69 91 c 2
 69 368 l 2
 69 413 54 420 16 427 c 1
 16 461 l 1
 208 461 l 1
 208 91 l 2
 208 60 216 38 255 34 c 1
 255 0 l 1
 16 0 l 1
EndSplineSet
EndChar

StartChar: Lslash
Encoding: 232 321 190
Width: 667
Flags: HMW
HStem: 0 31<322.5 431.5 322.5 597> 641 35<19 368 19 368>
VStem: 105 162<87 189 189 189 250 284 345 559>
LayerCount: 2
Fore
SplineSet
19 0 m 1
 19 35 l 1
 75 42 105 46 105 87 c 2
 105 189 l 1
 24 140 l 1
 24 201 l 1
 105 250 l 1
 105 559 l 2
 105 625 64 638 19 641 c 1
 19 676 l 1
 368 676 l 1
 368 641 l 1
 298 638 267 619 267 559 c 2
 267 345 l 1
 390 421 l 1
 390 360 l 1
 267 284 l 1
 267 87 l 2
 267 39 289 31 356 31 c 0
 507 31 563 114 609 227 c 1
 638 227 l 1
 597 0 l 1
 19 0 l 1
EndSplineSet
EndChar

StartChar: lslash
Encoding: 248 322 191
Width: 278
Flags: HMW
HStem: 0 34<16 36 16 36 235.5 255> 656 20G<16 206 206 206>
VStem: 67 139<94 322 322 322 372 411 461 584 584 589.5>
LayerCount: 2
Fore
SplineSet
16 0 m 1
 16 34 l 1
 56 34 67 70 67 94 c 2
 67 322 l 1
 -22 250 l 1
 -22 300 l 1
 67 372 l 1
 67 584 l 2
 67 595 65 642 16 642 c 1
 16 676 l 1
 206 676 l 1
 206 461 l 1
 303 541 l 1
 303 491 l 1
 206 411 l 1
 206 94 l 2
 206 65 216 34 255 34 c 1
 255 0 l 1
 16 0 l 1
EndSplineSet
EndChar

StartChar: OE
Encoding: 234 338 192
Width: 1000
Flags: HMW
HStem: -5 21G<256 385> 0 27 0 35<661 743 661 939> 333 33<627 686.5 627 687> 641 35<671.5 787.5> 652 32<292.5 389 227 422.5>
VStem: 22 170<232.5 382.5 189.5 394.5> 472 155<212 333 366 503 503 548.5>
LayerCount: 2
Fore
SplineSet
627 333 m 1
 627 83 l 2
 627 58 627 35 695 35 c 0
 791 35 886 52 954 211 c 1
 981 211 l 1
 939 0 l 1
 509 0 l 2
 441 0 413 -5 357 -5 c 0
 155 -5 22 118 22 347 c 0
 22 442 74 684 380 684 c 0
 398 684 510 676 528 676 c 2
 940 676 l 1
 940 475 l 1
 904 475 l 1
 889 568 875 641 700 641 c 0
 643 641 627 639 627 615 c 2
 627 366 l 1
 746 366 744 404 768 514 c 1
 801 514 l 1
 801 176 l 1
 768 176 l 1
 755 264 747 333 627 333 c 1
472 212 m 2
 472 503 l 2
 472 594 472 652 373 652 c 0
 212 652 192 441 192 324 c 0
 192 55 279 27 366 27 c 0
 472 27 472 84 472 212 c 2
EndSplineSet
EndChar

StartChar: oe
Encoding: 250 339 193
Width: 722
Flags: HMW
HStem: -14 30<218.5 267 218.5 284.5> -14 72<500.5 556.5> 245 37<444 571 444 696 444 571> 444 29<217 267.5 476.5 535.5>
VStem: 22 145<166.5 295> 303 136 571 125
LayerCount: 2
Fore
SplineSet
308 149 m 2
 308 311 l 2
 308 407 294 444 241 444 c 0
 193 444 167 397 167 227 c 0
 167 16 196 16 241 16 c 0
 293 16 308 85 308 149 c 2
383 34 m 1
 363 17 328 -14 241 -14 c 0
 100 -14 22 106 22 227 c 0
 22 363 108 473 241 473 c 0
 324 473 357 440 373 424 c 1
 400 445 446 473 507 473 c 0
 655 473 694 367 696 245 c 1
 444 245 l 1
 442 180 446 58 555 58 c 0
 618 58 647 92 676 125 c 1
 696 109 l 1
 661 59 610 -14 503 -14 c 0
 424 -14 398 17 383 34 c 1
444 282 m 1
 571 282 l 1
 568 383 564 444 507 444 c 0
 445 444 445 367 444 282 c 1
EndSplineSet
EndChar

StartChar: Scaron
Encoding: 328 352 194
Width: 556
Flags: HMW
HStem: -19 33<237 325 201.5 357> 475 21G<446 484 446 446> 660 31<234 284.5 165 319> 894 20G<110 166 166 166 390 447 447 447>
VStem: 44 109<471 597.5> 394 119<146 159.5>
LayerCount: 2
Fore
SplineSet
232 738 m 1
 110 914 l 1
 166 914 l 1
 278 815 l 1
 390 914 l 1
 447 914 l 1
 324 738 l 1
 232 738 l 1
35 -19 m 1
 35 228 l 1
 74 228 l 1
 94 127 138 14 265 14 c 0
 385 14 394 113 394 126 c 0
 394 193 347 217 215 280 c 0
 44 362 44 448 44 494 c 0
 44 555 70 691 260 691 c 0
 309 691 344 679 370 669 c 0
 386 663 400 658 411 658 c 0
 434 658 439 673 444 692 c 1
 484 692 l 1
 484 475 l 1
 446 475 l 1
 428 545 378 660 260 660 c 0
 208 660 153 630 153 565 c 0
 153 511 172 489 403 374 c 0
 437 357 513 299 513 190 c 0
 513 102 449 -19 265 -19 c 0
 209 -19 174 -7 148 3 c 0
 130 10 117 15 104 15 c 0
 83 15 78 -3 74 -19 c 1
 35 -19 l 1
EndSplineSet
EndChar

StartChar: scaron
Encoding: 329 353 195
Width: 389
Flags: HMW
HStem: -14 34<183 219 138.5 240.5> -13 21G<25 25 25 50> 440 33<168 197 140 214.5>
VStem: 27 100<332 370> 265 96<92.5 132>
LayerCount: 2
Fore
SplineSet
148 528 m 1
 26 704 l 1
 82 704 l 1
 194 605 l 1
 306 704 l 1
 363 704 l 1
 240 528 l 1
 148 528 l 1
25 -13 m 1
 25 152 l 1
 53 152 l 1
 59 125 83 20 194 20 c 0
 244 20 265 56 265 86 c 0
 265 178 27 172 27 326 c 0
 27 414 94 473 186 473 c 0
 208 473 229 468 247 463 c 0
 267 457 283 451 293 451 c 0
 311 451 315 463 318 471 c 1
 340 471 l 1
 340 326 l 1
 315 326 l 1
 294 397 243 440 186 440 c 0
 150 440 127 414 127 383 c 0
 127 281 361 304 361 140 c 0
 361 45 287 -14 194 -14 c 0
 172 -14 147 -8 127 -2 c 0
 102 6 82 15 77 15 c 0
 66 15 60 7 50 -13 c 1
 25 -13 l 1
EndSplineSet
EndChar

StartChar: Ydieresis
Encoding: 330 376 196
Width: 722
Flags: HMW
HStem: 0 35<185 185 185 532> 641 35<15 350 315.5 350> 748 129<258 294 468 504>
VStem: 212 129<794 830> 278 162<127 264 264 264> 422 129<794 830>
LayerCount: 2
Fore
SplineSet
422 812 m 0
 422 848 450 877 486 877 c 0
 522 877 551 848 551 812 c 0
 551 776 522 748 486 748 c 0
 450 748 422 776 422 812 c 0
212 812 m 0
 212 848 240 877 276 877 c 0
 312 877 341 848 341 812 c 0
 341 776 312 748 276 748 c 0
 240 748 212 776 212 812 c 0
185 0 m 1
 185 35 l 1
 254 42 278 44 278 127 c 2
 278 264 l 1
 95 586 l 2
 90 595 66 638 15 641 c 1
 15 676 l 1
 350 676 l 1
 350 641 l 1
 281 641 269 635 269 607 c 0
 269 592 285 577 413 329 c 1
 563 597 l 1
 563 636 526 638 479 641 c 1
 479 676 l 1
 699 676 l 1
 699 641 l 1
 680 638 643 634 623 602 c 2
 440 301 l 1
 440 127 l 2
 440 44 462 42 532 35 c 1
 532 0 l 1
 185 0 l 1
EndSplineSet
EndChar

StartChar: Zcaron
Encoding: 331 381 197
Width: 667
Flags: HMW
HStem: 0 35<225 225 225 608> 450 20G<59 97 59 59> 641 35<410 410> 894 20G<165 221 221 221 445 502 502 502>
VStem: 28 606<0 241 16 241>
LayerCount: 2
Fore
SplineSet
287 738 m 1
 165 914 l 1
 221 914 l 1
 333 815 l 1
 445 914 l 1
 502 914 l 1
 379 738 l 1
 287 738 l 1
28 0 m 1
 28 16 l 1
 410 641 l 1
 241 636 241 636 208 626 c 0
 133 603 115 521 97 470 c 1
 59 470 l 1
 80 676 l 1
 604 676 l 1
 604 660 l 1
 225 35 l 1
 448 32 546 31 598 241 c 1
 634 241 l 1
 608 0 l 1
 28 0 l 1
EndSplineSet
EndChar

StartChar: zcaron
Encoding: 332 382 198
Width: 444
Flags: HMW
HStem: 0 21G<21 21 21 404> 319 21G<38 64 38 38> 429 32<255 255> 528 21G<176 176 176 268> 684 20G<54 110 110 110 334 391 391 391>
VStem: 38 26<319 319>
LayerCount: 2
Fore
SplineSet
176 528 m 1
 54 704 l 1
 110 704 l 1
 222 605 l 1
 334 704 l 1
 391 704 l 1
 268 528 l 1
 176 528 l 1
21 0 m 1
 21 28 l 1
 255 429 l 1
 137 428 90 428 64 319 c 1
 38 319 l 1
 45 461 l 1
 416 461 l 1
 416 435 l 1
 185 32 l 1
 226 31 268 31 302 42 c 0
 357 63 385 129 392 160 c 1
 420 160 l 1
 404 0 l 1
 21 0 l 1
EndSplineSet
EndChar

StartChar: florin
Encoding: 166 402 199
Width: 500
Flags: HMW
HStem: -155 21G<57 161> 394 46<74 194 74 190 322 444> 567 139<431.5 435.5 308.5 460.5> 676 30<354.5 396.5>
VStem: 0 108<-82 -55.5> 183 139
LayerCount: 2
Fore
SplineSet
74 394 m 1
 74 440 l 1
 194 440 l 1
 206 514 230 706 387 706 c 0
 484 706 498 642 498 627 c 0
 498 595 475 567 446 567 c 0
 417 567 391 586 391 614 c 0
 391 635 409 655 409 661 c 0
 409 663 406 676 387 676 c 0
 322 676 322 565 322 530 c 2
 322 440 l 1
 444 440 l 1
 444 394 l 1
 322 394 l 1
 314 279 315 220 304 133 c 0
 286 -12 229 -155 93 -155 c 0
 21 -155 0 -111 0 -78 c 0
 0 -33 33 -20 54 -20 c 0
 81 -20 108 -35 108 -69 c 0
 108 -95 90 -97 90 -110 c 0
 90 -117 100 -125 112 -125 c 0
 136 -125 174 -102 177 -12 c 2
 190 394 l 1
 74 394 l 1
EndSplineSet
EndChar

StartChar: circumflex
Encoding: 195 710 200
Width: 333
Flags: HMW
HStem: 528 21G<-2 -2 -2 54 278 278 278 335> 684 20G<120 212 212 212>
LayerCount: 2
Fore
SplineSet
-2 528 m 1
 120 704 l 1
 212 704 l 1
 335 528 l 1
 278 528 l 1
 166 630 l 1
 54 528 l 1
 -2 528 l 1
EndSplineSet
EndChar

StartChar: caron
Encoding: 207 711 201
Width: 333
Flags: HMW
HStem: 528 21G<120 120 120 212> 684 20G<-2 55 55 55 277 335 335 335>
LayerCount: 2
Fore
SplineSet
120 528 m 1
 -2 704 l 1
 55 704 l 1
 166 605 l 1
 277 704 l 1
 335 704 l 1
 212 528 l 1
 120 528 l 1
EndSplineSet
EndChar

StartChar: breve
Encoding: 198 728 202
Width: 333
Flags: HMW
HStem: 528 76<121.5 209 121.5 214.5> 528 163<15 214.5>
LayerCount: 2
Fore
SplineSet
15 691 m 1
 59 691 l 1
 64 663 76 604 167 604 c 0
 251 604 266 660 274 691 c 1
 318 691 l 1
 318 591 263 528 166 528 c 0
 73 528 15 585 15 691 c 1
EndSplineSet
EndChar

StartChar: dotaccent
Encoding: 199 729 203
Width: 333
Flags: HMW
HStem: 537 130<149 184.5 149 184.5>
VStem: 103 127<584.5 621>
LayerCount: 2
Fore
SplineSet
103 603 m 0
 103 639 131 667 167 667 c 0
 202 667 230 640 230 603 c 0
 230 566 202 537 167 537 c 0
 130 537 103 566 103 603 c 0
EndSplineSet
EndChar

StartChar: ring
Encoding: 202 730 204
Width: 333
Flags: HMW
HStem: 527 165<152 184 152 196> 575 117<152 184> 575 165<152 184>
VStem: 60 166<617 649 617 662.5> 109 117<617 649> 109 164<617 649>
LayerCount: 2
Fore
SplineSet
60 633 m 0
 60 692 110 740 168 740 c 0
 226 740 273 691 273 633 c 0
 273 574 225 527 167 527 c 0
 109 527 60 573 60 633 c 0
EndSplineSet
EndChar

StartChar: ogonek
Encoding: 206 731 205
Width: 333
Flags: HMW
HStem: -173 69<181 250.5> 24 20G<157 191 191 191>
VStem: 90 84<-124.5 -26.5>
LayerCount: 2
Fore
SplineSet
157 44 m 1
 191 44 l 1
 187 25 174 -14 174 -39 c 0
 174 -86 199 -104 239 -104 c 0
 262 -104 275 -90 297 -76 c 1
 319 -98 l 1
 297 -146 235 -173 201 -173 c 0
 161 -173 90 -159 90 -90 c 0
 90 -45 109 0 157 44 c 1
EndSplineSet
EndChar

StartChar: tilde
Encoding: 196 732 206
Width: 333
Flags: HMW
HStem: 547 78<241.5 271.5 241.5 272.5> 596 78<59 96>
LayerCount: 2
Fore
SplineSet
-16 547 m 1
 -9 582 10 674 102 674 c 0
 119 674 150 655 185 641 c 0
 207 632 230 625 253 625 c 0
 290 625 300 657 306 674 c 1
 349 674 l 1
 340 639 317 547 228 547 c 0
 203 547 185 556 166 567 c 0
 142 580 117 596 75 596 c 0
 43 596 27 565 26 547 c 1
 -16 547 l 1
EndSplineSet
EndChar

StartChar: hungarumlaut
Encoding: 205 733 207
Width: 333
Flags: HMW
HStem: 528 185<-13 185 -13 185 171 243 171 189>
LayerCount: 2
Fore
SplineSet
189 528 m 1
 324 685 l 2
 347 711 366 713 376 713 c 0
 394 713 425 705 425 669 c 0
 425 641 409 631 385 616 c 2
 243 528 l 1
 189 528 l 1
-13 528 m 1
 124 685 l 2
 147 711 166 713 176 713 c 0
 194 713 225 705 225 669 c 0
 225 641 209 631 185 616 c 2
 40 528 l 1
 -13 528 l 1
EndSplineSet
EndChar

StartChar: endash
Encoding: 177 8211 208
Width: 500
Flags: HMW
HStem: 181 90
LayerCount: 2
Fore
SplineSet
0 181 m 1
 0 244 l 1
 500 244 l 1
 500 181 l 1
 0 181 l 1
EndSplineSet
EndChar

StartChar: emdash
Encoding: 208 8212 209
Width: 1000
Flags: HMW
HStem: 181 90
LayerCount: 2
Fore
SplineSet
0 181 m 1
 0 243 l 1
 1000 243 l 1
 1000 181 l 1
 0 181 l 1
EndSplineSet
EndChar

StartChar: quoteleft
Encoding: 96 8216 210
Width: 333
Flags: HMW
HStem: 356 21G<132.5 192> 671 20G<236 236>
VStem: 70 68<523.5 533> 70 184<444 469.5 412 533>
LayerCount: 2
Fore
SplineSet
247 669 m 1
 219 650 138 593 138 537 c 0
 138 510 160 517 180 517 c 0
 208 517 254 501 254 438 c 0
 254 386 215 356 169 356 c 0
 96 356 70 418 70 470 c 0
 70 596 183 661 236 691 c 1
 247 669 l 1
EndSplineSet
EndChar

StartChar: quoteright
Encoding: 39 8217 211
Width: 333
Flags: HMW
HStem: 356 21G<97 97> 671 20G<138 197.5>
VStem: 79 184<577.5 603 514 635> 195 68<514 523.5>
LayerCount: 2
Fore
SplineSet
97 356 m 1
 86 378 l 1
 114 397 195 454 195 510 c 0
 195 537 173 530 153 530 c 0
 125 530 79 546 79 609 c 0
 79 661 115 691 161 691 c 0
 234 691 263 629 263 577 c 0
 263 451 150 386 97 356 c 1
EndSplineSet
EndChar

StartChar: quotesinglbase
Encoding: 184 8218 212
Width: 333
Flags: HMW
HStem: -180 21G<97 97> 135 20G<138 197.5>
VStem: 79 184<41.5 67 -22 99> 195 68<-22 -12.5>
LayerCount: 2
Fore
SplineSet
86 -158 m 1
 114 -139 195 -82 195 -26 c 0
 195 1 173 -6 153 -6 c 0
 125 -6 79 10 79 73 c 0
 79 125 115 155 161 155 c 0
 234 155 263 93 263 41 c 0
 263 -85 150 -150 97 -180 c 1
 86 -158 l 1
EndSplineSet
EndChar

StartChar: quotedblleft
Encoding: 170 8220 213
Width: 500
Flags: HMW
HStem: 356 161<132 156 132 157 402 426> 671 20G<198 198 468 468>
VStem: 32 68<523.5 533> 32 184<444 469.5 412 533> 302 68<523.5 533> 302 184<444 469.5 412 533>
LayerCount: 2
Fore
SplineSet
479 669 m 1
 451 650 370 593 370 537 c 0
 370 510 392 517 412 517 c 0
 440 517 486 501 486 438 c 0
 486 386 450 356 404 356 c 0
 331 356 302 418 302 470 c 0
 302 596 415 661 468 691 c 1
 479 669 l 1
209 669 m 1
 181 650 100 593 100 537 c 0
 100 510 122 517 142 517 c 0
 170 517 216 501 216 438 c 0
 216 386 180 356 134 356 c 0
 61 356 32 418 32 470 c 0
 32 596 145 661 198 691 c 1
 209 669 l 1
EndSplineSet
EndChar

StartChar: quotedblright
Encoding: 186 8221 214
Width: 500
Flags: HMW
HStem: 356 21G<32 32 302 302> 530 161<74 98 344 368>
VStem: 14 184<577.5 603 514 635> 130 68<514 523.5> 284 184<577.5 603 514 635> 400 68<514 523.5>
LayerCount: 2
Fore
SplineSet
32 356 m 1
 21 378 l 1
 49 397 130 454 130 510 c 0
 130 537 108 530 88 530 c 0
 60 530 14 546 14 609 c 0
 14 661 50 691 96 691 c 0
 169 691 198 629 198 577 c 0
 198 451 85 386 32 356 c 1
302 356 m 1
 291 378 l 1
 319 397 400 454 400 510 c 0
 400 537 378 530 358 530 c 0
 330 530 284 546 284 609 c 0
 284 661 320 691 366 691 c 0
 439 691 468 629 468 577 c 0
 468 451 355 386 302 356 c 1
EndSplineSet
EndChar

StartChar: quotedblbase
Encoding: 185 8222 215
Width: 500
Flags: HMW
HStem: -180 21G<32 32 302 302> -6 161<74 98 344 368>
VStem: 14 184<42.5 67 -22 100> 130 68<-22 -12.5> 284 184<42.5 67 -22 100> 400 68<-22 -12.5>
LayerCount: 2
Fore
SplineSet
21 -158 m 1
 49 -139 130 -82 130 -26 c 0
 130 1 108 -6 88 -6 c 0
 60 -6 14 11 14 74 c 0
 14 126 50 155 96 155 c 0
 169 155 198 93 198 41 c 0
 198 -85 85 -150 32 -180 c 1
 21 -158 l 1
291 -158 m 1
 319 -139 400 -82 400 -26 c 0
 400 1 378 -6 358 -6 c 0
 330 -6 284 11 284 74 c 0
 284 126 320 155 366 155 c 0
 439 155 468 93 468 41 c 0
 468 -85 355 -150 302 -180 c 1
 291 -158 l 1
EndSplineSet
EndChar

StartChar: dagger
Encoding: 178 8224 216
Width: 500
Flags: HMW
HStem: -134 21G<240 240 240 261> 404 106<388 417.5> 671 20G<229 256.5>
VStem: 194 113<620 645> 238 28
LayerCount: 2
Fore
SplineSet
240 -134 m 1
 235 20 l 2
 231 148 187 261 184 269 c 0
 182 275 238 300 238 446 c 1
 208 444 188 438 173 431 c 0
 144 418 133 403 98 403 c 0
 67 403 47 432 47 460 c 0
 47 485 62 510 99 510 c 0
 131 510 146 495 173 482 c 0
 189 475 208 468 238 466 c 1
 238 504 234 529 228 548 c 0
 215 589 194 596 194 632 c 0
 194 658 208 691 250 691 c 0
 263 691 307 687 307 639 c 0
 307 601 288 585 274 551 c 0
 266 531 260 506 261 466 c 1
 291 470 312 477 329 484 c 0
 357 496 375 510 401 510 c 0
 438 510 453 486 453 461 c 0
 453 433 433 404 402 404 c 0
 374 404 354 418 329 430 c 0
 311 438 290 446 261 446 c 1
 259 301 321 274 318 268 c 0
 312 255 271 148 266 20 c 2
 261 -134 l 1
 240 -134 l 1
EndSplineSet
EndChar

StartChar: daggerdbl
Encoding: 179 8225 217
Width: 500
Flags: HW
LayerCount: 2
Fore
SplineSet
239 -1 m 1
 193 -1 152 -41 105 -41 c 0
 80 -41 54 -18 54 9 c 0
 54 36 80 59 105 59 c 0
 152 59 193 19 239 19 c 1
 236 53 215 83 187 102 c 1
 234 138 238 184 238 232 c 0
 238 280 234 326 187 362 c 1
 215 381 236 411 239 445 c 1
 193 445 152 405 105 405 c 0
 80 405 54 428 54 455 c 0
 54 482 80 505 105 505 c 0
 152 505 193 465 239 465 c 1
 235 508 195 562 195 602 c 0
 195 634 217 662 250 662 c 0
 283 662 305 634 305 602 c 0
 305 562 265 508 261 465 c 1
 307 465 348 505 395 505 c 0
 420 505 446 482 446 455 c 0
 446 428 420 405 395 405 c 0
 348 405 307 445 261 445 c 1
 264 411 285 381 313 362 c 1
 266 326 262 280 262 232 c 0
 262 184 266 138 313 102 c 1
 285 83 264 53 261 19 c 1
 307 19 348 59 395 59 c 0
 420 59 446 36 446 9 c 0
 446 -18 420 -41 395 -41 c 0
 348 -41 307 -1 261 -1 c 1
 265 -44 305 -98 305 -138 c 0
 305 -170 283 -198 250 -198 c 0
 217 -198 195 -170 195 -138 c 0
 195 -98 235 -44 239 -1 c 1
EndSplineSet
EndChar

StartChar: bullet
Encoding: 183 8226 218
Width: 350
Flags: HMW
HStem: 198 21G<137 214.5> 458 20G<137 214.5>
LayerCount: 2
Fore
SplineSet
35 338 m 0
 35 415 99 478 175 478 c 0
 254 478 315 415 315 338 c 0
 315 259 254 198 175 198 c 0
 99 198 35 259 35 338 c 0
EndSplineSet
EndChar

StartChar: ellipsis
Encoding: 188 8230 219
Width: 1000
Flags: HMW
HStem: -13 169<142 189.5 475 522.5 808 855.5>
VStem: 82 169<49.5 95.5> 415 169<49.5 95.5> 748 169<49.5 95.5>
CounterMasks: 1 70
LayerCount: 2
Fore
SplineSet
748 73 m 0
 748 118 784 156 832 156 c 0
 879 156 917 119 917 73 c 0
 917 25 879 -13 832 -13 c 0
 784 -13 748 26 748 73 c 0
415 73 m 0
 415 118 451 156 499 156 c 0
 546 156 584 119 584 73 c 0
 584 25 546 -13 499 -13 c 0
 451 -13 415 26 415 73 c 0
82 73 m 0
 82 118 118 156 166 156 c 0
 213 156 251 119 251 73 c 0
 251 25 213 -13 166 -13 c 0
 118 -13 82 26 82 73 c 0
EndSplineSet
EndChar

StartChar: perthousand
Encoding: 189 8240 220
Width: 1000
Flags: HMW
HStem: -15 21G<70 70 70 136> -14 24<475.5 510.5 475.5 543 809.5 844.5> 318 24<475.5 510.5 809.5 844.5> 320 21G<123 223> 344 21G<155.5 190.5> 652 24<155.5 190.5> 657 20G<530 596 596 596>
VStem: 24 114<463.5 532.5 463.5 542> 208 114<463.5 532.5> 344 114<129.5 198.5 129.5 208> 528 114<129.5 198.5> 678 114<129.5 198.5 129.5 208> 862 114<129.5 198.5>
LayerCount: 2
Fore
SplineSet
70 -15 m 1
 530 677 l 1
 596 677 l 1
 136 -15 l 1
 70 -15 l 1
138 498 m 0
 138 429 138 344 173 344 c 0
 208 344 208 429 208 498 c 0
 208 567 208 652 173 652 c 0
 138 652 138 567 138 498 c 0
24 498 m 0
 24 586 73 676 173 676 c 0
 273 676 322 586 322 498 c 0
 322 410 273 320 173 320 c 0
 73 320 24 410 24 498 c 0
792 164 m 0
 792 95 792 10 827 10 c 0
 862 10 862 95 862 164 c 0
 862 233 862 318 827 318 c 0
 792 318 792 233 792 164 c 0
678 164 m 0
 678 252 727 342 827 342 c 0
 927 342 976 252 976 164 c 0
 976 76 927 -14 827 -14 c 0
 727 -14 678 76 678 164 c 0
458 164 m 0
 458 95 458 10 493 10 c 0
 528 10 528 95 528 164 c 0
 528 233 528 318 493 318 c 0
 458 318 458 233 458 164 c 0
344 164 m 0
 344 252 393 342 493 342 c 0
 593 342 642 252 642 164 c 0
 642 76 593 -14 493 -14 c 0
 393 -14 344 76 344 164 c 0
EndSplineSet
EndChar

StartChar: guilsinglleft
Encoding: 172 8249 221
Width: 333
Flags: HMW
HStem: 36 21G<288.5 297> 395 20G<287.5 296>
LayerCount: 2
Fore
SplineSet
51 225 m 1
 51 229 l 1
 254 393 l 2
 264 402 282 415 293 415 c 0
 299 415 305 412 305 401 c 0
 305 372 217 265 187 227 c 1
 214 186 305 84 305 54 c 0
 305 41 300 36 294 36 c 0
 283 36 267 49 257 59 c 2
 51 225 l 1
EndSplineSet
EndChar

StartChar: guilsinglright
Encoding: 173 8250 222
Width: 333
Flags: HMW
HStem: 36 21G<37 45.5> 395 20G<35.5 44.5>
LayerCount: 2
Fore
SplineSet
146 224 m 1
 119 265 28 367 28 397 c 0
 28 410 32 415 39 415 c 0
 50 415 66 402 76 392 c 2
 282 226 l 1
 282 222 l 1
 79 58 l 2
 69 50 51 36 40 36 c 0
 34 36 28 39 28 50 c 0
 28 79 116 186 146 224 c 1
EndSplineSet
EndChar

StartChar: fraction
Encoding: 164 8260 223
Width: 167
Flags: HMW
HStem: -12 21G<-168 -110 -168 -168> 668 20G<273 329 329 329>
LayerCount: 2
Fore
SplineSet
-110 -12 m 1
 -168 -12 l 1
 273 688 l 1
 329 688 l 1
 -110 -12 l 1
EndSplineSet
EndChar

StartChar: Euro
Encoding: 333 8364 224
Width: 722
Flags: HMW
HStem: 0 92<433 467.5> 262 40<9 104 24 104 24 107 274 274 274 566> 391 40<24 105 9 111 278 598> 498 21G<647 673 647 647> 658 32<397 491 373 512.5>
VStem: 107 167<262 262>
LayerCount: 2
Fore
SplineSet
9 262 m 1
 24 302 l 1
 104 302 l 1
 103 318 103 333 103 348 c 0
 103 362 104 377 105 391 c 1
 9 391 l 1
 24 431 l 1
 111 431 l 1
 173 668 307 690 439 690 c 0
 543 690 607 669 673 644 c 1
 673 498 l 1
 647 498 l 1
 636 593 575 658 450 658 c 0
 344 658 291 571 278 431 c 1
 613 431 l 1
 598 391 l 1
 273 391 l 1
 271 376 271 363 271 349 c 0
 271 334 272 319 273 302 c 1
 580 302 l 1
 566 262 l 1
 274 262 l 1
 281 155 376 92 490 92 c 0
 548 92 611 111 669 150 c 1
 689 140 l 1
 631 53 527 0 408 0 c 0
 279 0 122 112 107 262 c 1
 9 262 l 1
EndSplineSet
EndChar

StartChar: trademark
Encoding: 334 8482 225
Width: 1000
Flags: HMW
HStem: 271 21G<668 681 668 668> 272 33<108 108 108 302> 643 33<427 441.5> 652 24<92 112 112 158 251 251 251 297>
VStem: 158 93<353 652> 497 29<364 563> 830 93<353 565 565 565>
LayerCount: 2
Fore
SplineSet
445 272 m 1
 445 305 l 1
 492 308 497 314 497 364 c 2
 497 601 l 1
 483 633 456 643 427 643 c 1
 427 676 l 1
 566 676 l 1
 708 387 l 1
 859 676 l 1
 977 676 l 1
 977 643 l 1
 930 641 923 627 923 595 c 2
 923 353 l 2
 923 313 922 309 974 305 c 1
 974 272 l 1
 780 272 l 1
 780 305 l 1
 832 309 830 313 830 353 c 2
 830 565 l 1
 828 565 l 1
 681 271 l 1
 668 271 l 1
 528 563 l 1
 526 563 l 1
 526 364 l 2
 526 314 531 308 578 305 c 1
 578 272 l 1
 445 272 l 1
108 272 m 1
 108 305 l 1
 159 309 158 313 158 353 c 2
 158 652 l 1
 112 652 l 2
 72 652 55 623 47 588 c 1
 24 588 l 1
 24 676 l 1
 386 676 l 1
 386 588 l 1
 363 588 l 1
 355 623 337 652 297 652 c 2
 251 652 l 1
 251 353 l 2
 251 313 250 309 302 305 c 1
 302 272 l 1
 108 272 l 1
EndSplineSet
EndChar

StartChar: minus
Encoding: 335 8722 226
Width: 570
Flags: HMW
HStem: 209 64<33 537 33 537>
LayerCount: 2
Fore
SplineSet
33 209 m 1
 33 273 l 1
 537 273 l 1
 537 209 l 1
 33 209 l 1
EndSplineSet
EndChar

StartChar: fi
Encoding: 174 64257 227
Width: 556
Flags: HMW
HStem: 0 34<14 14 14 257> 417 44<14 71 14 71 210 314> 661 30<249.5 299 184 314>
VStem: 71 139<94 417> 348 124 348 139<91 383 383 393.5>
LayerCount: 2
Fore
SplineSet
14 0 m 1
 14 34 l 1
 50 39 71 42 71 94 c 2
 71 417 l 1
 14 417 l 1
 14 461 l 1
 71 461 l 1
 72 527 76 691 292 691 c 0
 306 691 472 684 472 600 c 0
 472 540 411 539 406 539 c 0
 392 539 343 546 343 593 c 0
 343 617 352 629 352 633 c 0
 352 642 336 661 292 661 c 0
 207 661 210 590 210 461 c 1
 316 461 l 2
 368 461 434 468 487 473 c 1
 487 91 l 2
 487 55 498 35 536 34 c 1
 536 0 l 1
 301 0 l 1
 301 34 l 1
 347 38 348 67 348 91 c 2
 348 383 l 2
 348 404 344 417 314 417 c 2
 210 417 l 1
 210 91 l 2
 210 68 211 39 257 34 c 1
 257 0 l 1
 14 0 l 1
EndSplineSet
EndChar

StartChar: fl
Encoding: 175 64258 228
Width: 556
Flags: HMW
HStem: 0 21G<14 14 14 257 301 301 301 536> 417 44<14 71 14 71 210 348> 658 33<247 290 193 305.5> 670 20G<468 487 487 487>
VStem: 71 139<94 417> 348 139<91 417 417 417 461 559 559 559>
LayerCount: 2
Fore
SplineSet
210 461 m 1
 348 461 l 1
 348 559 l 1
 339 561 327 576 327 595 c 0
 327 609 340 627 340 635 c 0
 340 651 323 658 288 658 c 0
 206 658 210 582 210 523 c 2
 210 461 l 1
14 0 m 1
 14 34 l 1
 50 39 71 42 71 94 c 2
 71 417 l 1
 14 417 l 1
 14 461 l 1
 71 461 l 1
 73 557 98 691 288 691 c 0
 292 691 353 691 421 660 c 1
 468 690 l 1
 487 690 l 1
 487 91 l 2
 487 81 486 38 536 34 c 1
 536 0 l 1
 301 0 l 1
 301 34 l 1
 347 40 348 72 348 91 c 2
 348 417 l 1
 210 417 l 1
 210 91 l 2
 210 68 211 39 257 34 c 1
 257 0 l 1
 14 0 l 1
EndSplineSet
EndChar
